<?xml version="1.0" encoding="UTF-8" standalone="no"?>
<!-- Created with Inkscape (http://www.inkscape.org/) -->

<svg
   xmlns:dc="http://purl.org/dc/elements/1.1/"
   xmlns:cc="http://creativecommons.org/ns#"
   xmlns:rdf="http://www.w3.org/1999/02/22-rdf-syntax-ns#"
   xmlns:svg="http://www.w3.org/2000/svg"
   xmlns="http://www.w3.org/2000/svg"
   xmlns:sodipodi="http://sodipodi.sourceforge.net/DTD/sodipodi-0.dtd"
   xmlns:inkscape="http://www.inkscape.org/namespaces/inkscape"
   width="45.434978"
   height="45.434978"
   viewBox="0 0 45.434979 45.434978"
   id="svg2"
   version="1.1"
   inkscape:version="0.91pre3 r13670"
   sodipodi:docname="unide.svg"
   inkscape:export-xdpi="2028.3932"
   inkscape:export-ydpi="2028.3932">
  <defs
     id="defs4">
    <clipPath
       id="clipPath4150"
       clipPathUnits="userSpaceOnUse">
      <path
         inkscape:connector-curvature="0"
         id="path4152"
         d="M 0,600 600,600 600,0 0,0 0,600 Z" />
    </clipPath>
    <clipPath
       id="clipPath4168"
       clipPathUnits="userSpaceOnUse">
      <path
         inkscape:connector-curvature="0"
         id="path4170"
         d="m 90.9465,501.159 17.0005,0 0,-17 -17.0005,0 0,17 z" />
    </clipPath>
    <clipPath
       id="clipPath4186"
       clipPathUnits="userSpaceOnUse">
      <path
         inkscape:connector-curvature="0"
         id="path4188"
         d="M 0,600 600,600 600,0 0,0 0,600 Z" />
    </clipPath>
    <clipPath
       id="clipPath4196"
       clipPathUnits="userSpaceOnUse">
      <path
         inkscape:connector-curvature="0"
         id="path4198"
         d="m 297.456,500.682 17,0 0,-17 -17,0 0,17 z" />
    </clipPath>
    <clipPath
       id="clipPath4292"
       clipPathUnits="userSpaceOnUse">
      <path
         inkscape:connector-curvature="0"
         id="path4294"
         d="m 413.857,246.067 23.767,0 0,-26.103 -23.767,0 0,26.103 z" />
    </clipPath>
    <clipPath
       id="clipPath4316"
       clipPathUnits="userSpaceOnUse">
      <path
         inkscape:connector-curvature="0"
         id="path4318"
         d="m 389.541,245.471 21.773,0 0,-25.027 -21.773,0 0,25.027 z" />
    </clipPath>
    <clipPath
       id="clipPath4360"
       clipPathUnits="userSpaceOnUse">
      <path
         inkscape:connector-curvature="0"
         id="path4362"
         d="M 0,600 600,600 600,0 0,0 0,600 Z" />
    </clipPath>
    <clipPath
       id="clipPath4390"
       clipPathUnits="userSpaceOnUse">
      <path
         inkscape:connector-curvature="0"
         id="path4392"
         d="M 0,600 600,600 600,0 0,0 0,600 Z" />
    </clipPath>
    <clipPath
       id="clipPath4436"
       clipPathUnits="userSpaceOnUse">
      <path
         inkscape:connector-curvature="0"
         id="path4438"
         d="M 0,600 600,600 600,0 0,0 0,600 Z" />
    </clipPath>
  </defs>
  <sodipodi:namedview
     id="base"
     pagecolor="#ffffff"
     bordercolor="#666666"
     borderopacity="1.0"
     inkscape:pageopacity="0.0"
     inkscape:pageshadow="2"
     inkscape:zoom="1.9530527"
     inkscape:cx="-24.21509"
     inkscape:cy="-83.351548"
     inkscape:document-units="px"
     inkscape:current-layer="layer1"
     showgrid="false"
     inkscape:window-width="1920"
     inkscape:window-height="1178"
     inkscape:window-x="1358"
     inkscape:window-y="-8"
     inkscape:window-maximized="1"
     fit-margin-top="0"
     fit-margin-left="0"
     fit-margin-right="0"
     fit-margin-bottom="0"
     units="px" />
  <metadata
     id="metadata7">
    <rdf:RDF>
      <cc:Work
         rdf:about="">
        <dc:format>image/svg+xml</dc:format>
        <dc:type
           rdf:resource="http://purl.org/dc/dcmitype/StillImage" />
        <dc:title></dc:title>
      </cc:Work>
    </rdf:RDF>
  </metadata>
  <g
     inkscape:label="Layer 1"
     inkscape:groupmode="layer"
     id="layer1"
     transform="translate(-138.42962,-840.07049)">
    <g
       id="g4183"
       transform="translate(0.08520974,-2.4418105e-6)">
      <path
         inkscape:export-ydpi="220.7"
         inkscape:export-xdpi="220.7"
         d="m 161.03402,844.7619 c 5.97125,-5.97125 12.34625,-6.0325 18.22375,-0.155 5.91,5.91 5.91,12.28375 0.0312,18.1625 l -13.3975,13.39625 -4.95,-4.95 13.15,-13.15 c 3.7125,-3.7125 4.0525,-6.5275 1.11375,-9.4675 -3.00125,-3.00125 -5.97125,-2.62875 -9.7775,1.17625 l -12.96375,12.96375 -4.7025,-4.70375 13.2725,-13.2725 z"
         style="fill:#3f136c;fill-opacity:1;fill-rule:nonzero;stroke:none"
         id="path5725-3"
         inkscape:connector-curvature="0" />
      <path
         inkscape:export-ydpi="220.7"
         inkscape:export-xdpi="220.7"
         d="m 156.22327,849.57265 4.70375,4.70375 -12.96375,12.9625 c -3.80625,3.80625 -4.1775,6.77625 -1.17625,9.7775 2.93875,2.93875 5.755,2.59875 9.4675,-1.11375 l 13.14875,-13.15 4.95125,4.95125 -13.3975,13.39625 c -5.87875,5.87875 -12.2525,5.87875 -18.16125,-0.03 -5.8775,-5.87875 -5.81625,-12.25375 0.155,-18.225 l 13.2725,-13.2725 z"
         style="fill:#3f136c;fill-opacity:1;fill-rule:nonzero;stroke:none"
         id="path5729-0"
         inkscape:connector-curvature="0" />
      <path
         inkscape:export-ydpi="220.7"
         inkscape:export-xdpi="220.7"
         d="m 143.00915,862.73065 c -5.97125,-5.97125 -6.0325,-12.34625 -0.155,-18.22375 5.91,-5.91 12.28375,-5.91 18.1625,-0.0312 l 13.39625,13.3975 -4.95,4.95 -13.15,-13.15 c -3.7125,-3.7125 -6.5275,-4.0525 -9.4675,-1.11375 -3.00125,3.00125 -2.62875,5.97125 1.17625,9.7775 l 12.96375,12.96375 -4.70375,4.7025 -13.2725,-13.2725 z"
         style="fill:#3f136c;fill-opacity:1;fill-rule:nonzero;stroke:none"
         id="path5733-1"
         inkscape:connector-curvature="0" />
      <path
         inkscape:export-ydpi="220.7"
         inkscape:export-xdpi="220.7"
         d="m 147.73352,867.4549 4.70375,-4.70375 12.9625,12.96375 c 3.80625,3.80625 6.77625,4.1775 9.7775,1.17625 2.93875,-2.93875 2.59875,-5.755 -1.11375,-9.4675 l -13.15,-13.14875 4.95125,-4.95125 13.39625,13.3975 c 5.87875,5.87875 5.87875,12.2525 -0.03,18.16125 -5.87875,5.8775 -12.25375,5.81625 -18.225,-0.155 l -13.2725,-13.2725 z"
         style="fill:#67b419;fill-opacity:1;fill-rule:nonzero;stroke:none"
         id="path5737-8"
         inkscape:connector-curvature="0" />
    </g>
  </g>
</svg>
