<?xml version="1.0" encoding="UTF-8" standalone="no"?><svg xmlns="http://www.w3.org/2000/svg" xmlns:xlink="http://www.w3.org/1999/xlink" contentScriptType="application/ecmascript" contentStyleType="text/css" height="661px" preserveAspectRatio="none" style="width:1090px;height:661px;" version="1.1" viewBox="0 0 1090 661" width="1090px" zoomAndPan="magnify"><defs><filter height="300%" id="f153x2ubafieo0" width="300%" x="-1" y="-1"><feGaussianBlur result="blurOut" stdDeviation="2.0"/><feColorMatrix in="blurOut" result="blurOut2" type="matrix" values="0 0 0 0 0 0 0 0 0 0 0 0 0 0 0 0 0 0 .4 0"/><feOffset dx="4.0" dy="4.0" in="blurOut2" result="blurOut3"/><feBlend in="SourceGraphic" in2="blurOut3" mode="normal"/></filter></defs><g><!--class Device--><rect fill="#F5F5F5" filter="url(#f153x2ubafieo0)" height="96.4375" id="Device" style="stroke: #000000; stroke-width: 1.5;" width="167" x="6" y="224"/><text fill="#50237F" font-family="sans-serif" font-size="12" lengthAdjust="spacingAndGlyphs" textLength="37" x="71" y="241.457">Device</text><line style="stroke: #000000; stroke-width: 1.5;" x1="7" x2="172" y1="249.0938" y2="249.0938"/><text fill="#000000" font-family="sans-serif" font-size="11" lengthAdjust="spacingAndGlyphs" textLength="42" x="12" y="264.5127">id: String</text><text fill="#000000" font-family="sans-serif" font-size="11" lengthAdjust="spacingAndGlyphs" textLength="84" x="12" y="278.3486">mode[0..1]: String</text><text fill="#000000" font-family="sans-serif" font-size="11" lengthAdjust="spacingAndGlyphs" textLength="112" x="12" y="292.1846">state[0..1]: DeviceState</text><text fill="#000000" font-family="sans-serif" font-size="11" lengthAdjust="spacingAndGlyphs" textLength="155" x="12" y="306.0205">additionalProperties[0..1]: Object</text><line style="stroke: #000000; stroke-width: 1.5;" x1="7" x2="172" y1="312.4375" y2="312.4375"/><!--class Context--><rect fill="#F5F5F5" filter="url(#f153x2ubafieo0)" height="110.2734" id="Context" style="stroke: #000000; stroke-width: 1.5;" width="167" x="430" y="217"/><text fill="#50237F" font-family="sans-serif" font-size="12" lengthAdjust="spacingAndGlyphs" textLength="41" x="493" y="234.457">Context</text><line style="stroke: #000000; stroke-width: 1.5;" x1="431" x2="596" y1="242.0938" y2="242.0938"/><text fill="#000000" font-family="sans-serif" font-size="11" lengthAdjust="spacingAndGlyphs" textLength="80" x="436" y="257.5127">limits[0..1]: Limits</text><text fill="#000000" font-family="sans-serif" font-size="11" lengthAdjust="spacingAndGlyphs" textLength="114" x="436" y="271.3486">namespace[0..1]: String</text><text fill="#000000" font-family="sans-serif" font-size="11" lengthAdjust="spacingAndGlyphs" textLength="79" x="436" y="285.1846">type[0..1]: String</text><text fill="#000000" font-family="sans-serif" font-size="11" lengthAdjust="spacingAndGlyphs" textLength="75" x="436" y="299.0205">unit[0..1]: String</text><text fill="#000000" font-family="sans-serif" font-size="11" lengthAdjust="spacingAndGlyphs" textLength="155" x="436" y="312.8564">additionalProperties[0..1]: Object</text><line style="stroke: #000000; stroke-width: 1.5;" x1="431" x2="596" y1="319.2734" y2="319.2734"/><!--class Limits--><rect fill="#F5F5F5" filter="url(#f153x2ubafieo0)" height="110.2734" id="Limits" style="stroke: #000000; stroke-width: 1.5;" width="156" x="435.5" y="395"/><text fill="#50237F" font-family="sans-serif" font-size="12" lengthAdjust="spacingAndGlyphs" textLength="34" x="496.5" y="412.457">Limits</text><line style="stroke: #000000; stroke-width: 1.5;" x1="436.5" x2="590.5" y1="420.0938" y2="420.0938"/><text fill="#000000" font-family="sans-serif" font-size="11" lengthAdjust="spacingAndGlyphs" textLength="142" x="441.5" y="435.5127">lowerError[0..1]: Float | [Float]</text><text fill="#000000" font-family="sans-serif" font-size="11" lengthAdjust="spacingAndGlyphs" textLength="144" x="441.5" y="449.3486">lowerWarn[0..1]: Float | [Float]</text><text fill="#000000" font-family="sans-serif" font-size="11" lengthAdjust="spacingAndGlyphs" textLength="121" x="441.5" y="463.1846">target[0..1]:  Float | [Float]</text><text fill="#000000" font-family="sans-serif" font-size="11" lengthAdjust="spacingAndGlyphs" textLength="142" x="441.5" y="477.0205">upperError[0..1]: Float | [Float]</text><text fill="#000000" font-family="sans-serif" font-size="11" lengthAdjust="spacingAndGlyphs" textLength="144" x="441.5" y="490.8564">upperWarn[0..1]: Float | [Float]</text><line style="stroke: #000000; stroke-width: 1.5;" x1="436.5" x2="590.5" y1="497.2734" y2="497.2734"/><!--class Part--><rect fill="#F5F5F5" filter="url(#f153x2ubafieo0)" height="124.1094" id="Part" style="stroke: #000000; stroke-width: 1.5;" width="167" x="208" y="210"/><text fill="#50237F" font-family="sans-serif" font-size="12" lengthAdjust="spacingAndGlyphs" textLength="22" x="280.5" y="227.457">Part</text><line style="stroke: #000000; stroke-width: 1.5;" x1="209" x2="374" y1="235.0938" y2="235.0938"/><text fill="#000000" font-family="sans-serif" font-size="11" lengthAdjust="spacingAndGlyphs" textLength="82" x="214" y="250.5127">code[0..1]: String</text><text fill="#000000" font-family="sans-serif" font-size="11" lengthAdjust="spacingAndGlyphs" textLength="66" x="214" y="264.3486">id[0..1]: String</text><text fill="#000000" font-family="sans-serif" font-size="11" lengthAdjust="spacingAndGlyphs" textLength="94" x="214" y="278.1846">type[0..1]: PartType</text><text fill="#000000" font-family="sans-serif" font-size="11" lengthAdjust="spacingAndGlyphs" textLength="87" x="214" y="292.0205">typeId[0..1]: String</text><text fill="#000000" font-family="sans-serif" font-size="11" lengthAdjust="spacingAndGlyphs" textLength="87" x="214" y="305.8564">result[0..1]: Result</text><text fill="#000000" font-family="sans-serif" font-size="11" lengthAdjust="spacingAndGlyphs" textLength="155" x="214" y="319.6924">additionalProperties[0..1]: Object</text><line style="stroke: #000000; stroke-width: 1.5;" x1="209" x2="374" y1="326.1094" y2="326.1094"/><!--class DeviceState--><rect fill="#F5F5F5" filter="url(#f153x2ubafieo0)" height="117.1797" id="DeviceState" style="stroke: #000000; stroke-width: 1.5;" width="97" x="869" y="11.5"/><ellipse cx="884" cy="27.5" fill="#FFFFFF" rx="11" ry="11" style="stroke: #000000; stroke-width: 1.0;"/><path d="M882.8594,28.2969 L882.8594,30.7969 L887.1875,30.7969 L887.1875,29.875 Q887.1875,29.2656 887.4297,29 Q887.6719,28.7344 888.0469,28.7344 Q888.4219,28.7344 888.6563,29 Q888.8906,29.2656 888.8906,29.875 L888.8906,32.5 L880.8906,32.5 Q880.2656,32.5 880.0078,32.2656 Q879.75,32.0313 879.75,31.6406 Q879.75,31.2656 880.0156,31.0313 Q880.2813,30.7969 880.8906,30.7969 L881.1563,30.7969 L881.1563,24.1406 L880.8906,24.1406 Q880.2656,24.1406 880.0078,23.9063 Q879.75,23.6719 879.75,23.2813 Q879.75,22.9063 880.0078,22.6719 Q880.2656,22.4375 880.8906,22.4375 L888.5156,22.4375 L888.5156,25.0313 Q888.5156,25.6406 888.2891,25.8984 Q888.0625,26.1563 887.6719,26.1563 Q887.2969,26.1563 887.0625,25.8984 Q886.8281,25.6406 886.8281,25.0313 L886.8281,24.1406 L882.8594,24.1406 L882.8594,26.5938 L884.3438,26.5938 Q884.3438,25.9375 884.4688,25.75 Q884.7344,25.3438 885.2031,25.3438 Q885.5781,25.3438 885.8125,25.6016 Q886.0469,25.8594 886.0469,26.4688 L886.0469,28.4375 Q886.0469,28.9844 885.9219,29.1719 Q885.6563,29.5625 885.2031,29.5625 Q884.7344,29.5625 884.4688,29.1563 Q884.3438,28.9688 884.3438,28.2969 L882.8594,28.2969 Z "/><text fill="#50237F" font-family="sans-serif" font-size="12" lengthAdjust="spacingAndGlyphs" textLength="65" x="898" y="32.4102">DeviceState</text><line style="stroke: #000000; stroke-width: 1.5;" x1="870" x2="965" y1="43.5" y2="43.5"/><text fill="#000000" font-family="sans-serif" font-size="11" lengthAdjust="spacingAndGlyphs" textLength="15" x="875" y="58.9189">OK</text><text fill="#000000" font-family="sans-serif" font-size="11" lengthAdjust="spacingAndGlyphs" textLength="23" x="875" y="72.7549">INFO</text><text fill="#000000" font-family="sans-serif" font-size="11" lengthAdjust="spacingAndGlyphs" textLength="32" x="875" y="86.5908">WARN</text><text fill="#000000" font-family="sans-serif" font-size="11" lengthAdjust="spacingAndGlyphs" textLength="35" x="875" y="100.4268">ERROR</text><text fill="#000000" font-family="sans-serif" font-size="11" lengthAdjust="spacingAndGlyphs" textLength="53" x="875" y="114.2627">UNKNOWN</text><line style="stroke: #000000; stroke-width: 1.5;" x1="870" x2="965" y1="120.6797" y2="120.6797"/><!--class Result--><rect fill="#F5F5F5" filter="url(#f153x2ubafieo0)" height="89.5078" id="Result" style="stroke: #000000; stroke-width: 1.5;" width="68" x="1001.5" y="25"/><ellipse cx="1016.5" cy="41" fill="#FFFFFF" rx="11" ry="11" style="stroke: #000000; stroke-width: 1.0;"/><path d="M1015.3594,41.7969 L1015.3594,44.2969 L1019.6875,44.2969 L1019.6875,43.375 Q1019.6875,42.7656 1019.9297,42.5 Q1020.1719,42.2344 1020.5469,42.2344 Q1020.9219,42.2344 1021.1563,42.5 Q1021.3906,42.7656 1021.3906,43.375 L1021.3906,46 L1013.3906,46 Q1012.7656,46 1012.5078,45.7656 Q1012.25,45.5313 1012.25,45.1406 Q1012.25,44.7656 1012.5156,44.5313 Q1012.7813,44.2969 1013.3906,44.2969 L1013.6563,44.2969 L1013.6563,37.6406 L1013.3906,37.6406 Q1012.7656,37.6406 1012.5078,37.4063 Q1012.25,37.1719 1012.25,36.7813 Q1012.25,36.4063 1012.5078,36.1719 Q1012.7656,35.9375 1013.3906,35.9375 L1021.0156,35.9375 L1021.0156,38.5313 Q1021.0156,39.1406 1020.7891,39.3984 Q1020.5625,39.6563 1020.1719,39.6563 Q1019.7969,39.6563 1019.5625,39.3984 Q1019.3281,39.1406 1019.3281,38.5313 L1019.3281,37.6406 L1015.3594,37.6406 L1015.3594,40.0938 L1016.8438,40.0938 Q1016.8438,39.4375 1016.9688,39.25 Q1017.2344,38.8438 1017.7031,38.8438 Q1018.0781,38.8438 1018.3125,39.1016 Q1018.5469,39.3594 1018.5469,39.9688 L1018.5469,41.9375 Q1018.5469,42.4844 1018.4219,42.6719 Q1018.1563,43.0625 1017.7031,43.0625 Q1017.2344,43.0625 1016.9688,42.6563 Q1016.8438,42.4688 1016.8438,41.7969 L1015.3594,41.7969 Z "/><text fill="#50237F" font-family="sans-serif" font-size="12" lengthAdjust="spacingAndGlyphs" textLength="36" x="1030.5" y="45.9102">Result</text><line style="stroke: #000000; stroke-width: 1.5;" x1="1002.5" x2="1068.5" y1="57" y2="57"/><text fill="#000000" font-family="sans-serif" font-size="11" lengthAdjust="spacingAndGlyphs" textLength="15" x="1007.5" y="72.4189">OK</text><text fill="#000000" font-family="sans-serif" font-size="11" lengthAdjust="spacingAndGlyphs" textLength="22" x="1007.5" y="86.2549">NOK</text><text fill="#000000" font-family="sans-serif" font-size="11" lengthAdjust="spacingAndGlyphs" textLength="53" x="1007.5" y="100.0908">UNKNOWN</text><line style="stroke: #000000; stroke-width: 1.5;" x1="1002.5" x2="1068.5" y1="106.5078" y2="106.5078"/><!--class PartType--><rect fill="#F5F5F5" filter="url(#f153x2ubafieo0)" height="75.6719" id="PartType" style="stroke: #000000; stroke-width: 1.5;" width="80" x="877.5" y="234"/><ellipse cx="892.5" cy="250" fill="#FFFFFF" rx="11" ry="11" style="stroke: #000000; stroke-width: 1.0;"/><path d="M891.3594,250.7969 L891.3594,253.2969 L895.6875,253.2969 L895.6875,252.375 Q895.6875,251.7656 895.9297,251.5 Q896.1719,251.2344 896.5469,251.2344 Q896.9219,251.2344 897.1563,251.5 Q897.3906,251.7656 897.3906,252.375 L897.3906,255 L889.3906,255 Q888.7656,255 888.5078,254.7656 Q888.25,254.5313 888.25,254.1406 Q888.25,253.7656 888.5156,253.5313 Q888.7813,253.2969 889.3906,253.2969 L889.6563,253.2969 L889.6563,246.6406 L889.3906,246.6406 Q888.7656,246.6406 888.5078,246.4063 Q888.25,246.1719 888.25,245.7813 Q888.25,245.4063 888.5078,245.1719 Q888.7656,244.9375 889.3906,244.9375 L897.0156,244.9375 L897.0156,247.5313 Q897.0156,248.1406 896.7891,248.3984 Q896.5625,248.6563 896.1719,248.6563 Q895.7969,248.6563 895.5625,248.3984 Q895.3281,248.1406 895.3281,247.5313 L895.3281,246.6406 L891.3594,246.6406 L891.3594,249.0938 L892.8438,249.0938 Q892.8438,248.4375 892.9688,248.25 Q893.2344,247.8438 893.7031,247.8438 Q894.0781,247.8438 894.3125,248.1016 Q894.5469,248.3594 894.5469,248.9688 L894.5469,250.9375 Q894.5469,251.4844 894.4219,251.6719 Q894.1563,252.0625 893.7031,252.0625 Q893.2344,252.0625 892.9688,251.6563 Q892.8438,251.4688 892.8438,250.7969 L891.3594,250.7969 Z "/><text fill="#50237F" font-family="sans-serif" font-size="12" lengthAdjust="spacingAndGlyphs" textLength="48" x="906.5" y="254.9102">PartType</text><line style="stroke: #000000; stroke-width: 1.5;" x1="878.5" x2="956.5" y1="266" y2="266"/><text fill="#000000" font-family="sans-serif" font-size="11" lengthAdjust="spacingAndGlyphs" textLength="36" x="883.5" y="281.4189">SINGLE</text><text fill="#000000" font-family="sans-serif" font-size="11" lengthAdjust="spacingAndGlyphs" textLength="35" x="883.5" y="295.2549">BATCH</text><line style="stroke: #000000; stroke-width: 1.5;" x1="878.5" x2="956.5" y1="301.6719" y2="301.6719"/><!--class MeasurementPayload--><rect fill="#F5F5F5" filter="url(#f153x2ubafieo0)" height="96.4375" id="MeasurementPayload" style="stroke: #000000; stroke-width: 1.5;" width="179" x="162" y="22"/><text fill="#50237F" font-family="sans-serif" font-size="12" lengthAdjust="spacingAndGlyphs" textLength="120" x="191.5" y="39.457">MeasurementPayload</text><line style="stroke: #000000; stroke-width: 1.5;" x1="163" x2="340" y1="47.0938" y2="47.0938"/><text fill="#000000" font-family="sans-serif" font-size="11" lengthAdjust="spacingAndGlyphs" textLength="101" x="168" y="62.5127">content-spec : String</text><text fill="#000000" font-family="sans-serif" font-size="11" lengthAdjust="spacingAndGlyphs" textLength="74" x="168" y="76.3486">device : Device</text><text fill="#000000" font-family="sans-serif" font-size="11" lengthAdjust="spacingAndGlyphs" textLength="167" x="168" y="90.1846">measurements : TimeMeasurement</text><text fill="#000000" font-family="sans-serif" font-size="11" lengthAdjust="spacingAndGlyphs" textLength="71" x="168" y="104.0205">part[0..1] : Part</text><line style="stroke: #000000; stroke-width: 1.5;" x1="163" x2="340" y1="110.4375" y2="110.4375"/><!--class TimeMeasurement--><rect fill="#F5F5F5" filter="url(#f153x2ubafieo0)" height="124.1094" id="TimeMeasurement" style="stroke: #000000; stroke-width: 1.5;" width="140" x="463.5" y="8"/><text fill="#50237F" font-family="sans-serif" font-size="12" lengthAdjust="spacingAndGlyphs" textLength="104" x="481.5" y="25.457">TimeMeasurement</text><line style="stroke: #000000; stroke-width: 1.5;" x1="464.5" x2="602.5" y1="33.0938" y2="33.0938"/><text fill="#000000" font-family="sans-serif" font-size="11" lengthAdjust="spacingAndGlyphs" textLength="82" x="469.5" y="48.5127">code[0..1]: String</text><text fill="#000000" font-family="sans-serif" font-size="11" lengthAdjust="spacingAndGlyphs" textLength="120" x="469.5" y="62.3486">context[0..1]: ContextList</text><text fill="#000000" font-family="sans-serif" font-size="11" lengthAdjust="spacingAndGlyphs" textLength="87" x="469.5" y="76.1846">result[0..1]: Result</text><text fill="#000000" font-family="sans-serif" font-size="11" lengthAdjust="spacingAndGlyphs" textLength="89" x="469.5" y="90.0205">series: TimeSeries</text><text fill="#000000" font-family="sans-serif" font-size="11" lengthAdjust="spacingAndGlyphs" textLength="37" x="469.5" y="103.8564">ts: Date</text><text fill="#000000" font-family="sans-serif" font-size="11" lengthAdjust="spacingAndGlyphs" textLength="128" x="469.5" y="117.6924">additionalData[0..1]: Object</text><line style="stroke: #000000; stroke-width: 1.5;" x1="464.5" x2="602.5" y1="124.1094" y2="124.1094"/><!--class TimeSeries--><rect fill="#F5F5F5" filter="url(#f153x2ubafieo0)" height="68.7656" id="TimeSeries" style="stroke: #000000; stroke-width: 1.5;" width="210" x="632.5" y="237.5"/><text fill="#50237F" font-family="sans-serif" font-size="12" lengthAdjust="spacingAndGlyphs" textLength="64" x="705.5" y="254.957">TimeSeries</text><line style="stroke: #000000; stroke-width: 1.5;" x1="633.5" x2="841.5" y1="262.5938" y2="262.5938"/><text fill="#000000" font-family="sans-serif" font-size="11" lengthAdjust="spacingAndGlyphs" textLength="68" x="638.5" y="278.0127">time: [Number]</text><text fill="#000000" font-family="sans-serif" font-size="11" lengthAdjust="spacingAndGlyphs" textLength="198" x="638.5" y="291.8486">&lt;values&gt;[1..*]: [Boolean | Number | String]</text><line style="stroke: #000000; stroke-width: 1.5;" x1="633.5" x2="841.5" y1="298.2656" y2="298.2656"/><!--link Context to Limits--><path d="M513.5,327.242 C513.5,348.755 513.5,373.441 513.5,394.937 " fill="none" id="Context-Limits" style="stroke: #000000; stroke-width: 1.0;"/><text fill="#000000" font-family="sans-serif" font-size="13" lengthAdjust="spacingAndGlyphs" textLength="7" x="506.0516" y="348.845">1</text><text fill="#000000" font-family="sans-serif" font-size="13" lengthAdjust="spacingAndGlyphs" textLength="20" x="492.1563" y="383.9633">0..*</text><!--link TimeMeasurement to Context--><path d="M526.096,145.038 C523.72,168.796 521.135,194.654 518.928,216.725 " fill="none" id="TimeMeasurement-Context" style="stroke: #000000; stroke-width: 1.0;"/><polygon fill="#000000" points="527.391,132.093,522.8135,137.6649,526.1962,144.0334,530.7737,138.4615,527.391,132.093" style="stroke: #000000; stroke-width: 1.0;"/><text fill="#000000" font-family="sans-serif" font-size="13" lengthAdjust="spacingAndGlyphs" textLength="66" x="525.5" y="176.4951">ContextList</text><text fill="#000000" font-family="sans-serif" font-size="13" lengthAdjust="spacingAndGlyphs" textLength="7" x="519.28" y="153.7066">1</text><text fill="#000000" font-family="sans-serif" font-size="13" lengthAdjust="spacingAndGlyphs" textLength="22" x="496.2141" y="206.118">0..1</text><!--link MeasurementPayload to Device--><path d="M213.313,118.144 C187.495,150.018 153.534,191.946 127.711,223.826 " fill="none" id="MeasurementPayload-Device" style="stroke: #000000; stroke-width: 1.0;"/><!--link MeasurementPayload to Part--><path d="M260.929,118.144 C266.403,145.514 273.36,180.298 279.253,209.767 " fill="none" id="MeasurementPayload-Part" style="stroke: #000000; stroke-width: 1.0;"/><!--link MeasurementPayload to TimeMeasurement--><path d="M354.283,70 C390.53,70 430.42,70 463.347,70 " fill="none" id="MeasurementPayload-TimeMeasurement" style="stroke: #000000; stroke-width: 1.0;"/><polygon fill="#FFFFFF" points="341.114,70,347.114,74,353.114,70,347.114,66,341.114,70" style="stroke: #000000; stroke-width: 1.0;"/><text fill="#000000" font-family="sans-serif" font-size="13" lengthAdjust="spacingAndGlyphs" textLength="86" x="359.25" y="63.4951">Measurements</text><text fill="#000000" font-family="sans-serif" font-size="13" lengthAdjust="spacingAndGlyphs" textLength="7" x="349.116" y="66.8039">1</text><text fill="#000000" font-family="sans-serif" font-size="13" lengthAdjust="spacingAndGlyphs" textLength="20" x="435.4569" y="84.2945">1..*</text><!--link TimeMeasurement to TimeSeries--><path d="M595.815,132.093 C631.084,166.671 673.853,208.601 703.114,237.288 " fill="none" id="TimeMeasurement-TimeSeries" style="stroke: #000000; stroke-width: 1.0;"/><!--link DeviceState to Result--><!--link DeviceState to PartType--><rect fill="#FFFFFF" height="127" rx="5" ry="5" style="stroke: #FFFFFF; stroke-width: 1.0;" width="301" x="778" y="523"/><svg x="784" y="528">	<rect x=".5" y=".5" width="288" height="116.58" rx="5" ry="5" fill="#f5f5f5" stroke="#50237f"/>	<text transform="translate(-504.5 -714.76)" x="514" y="731.38092" fill="#000000" font-family="sans-serif" font-size="10px" font-weight="bold" lengthAdjust="spacingAndGlyphs" textLength="36">Symbol</text>	<text transform="translate(-504.5 -714.76)" x="556" y="731.38092" fill="#000000" font-family="sans-serif" font-size="10px" font-weight="bold" lengthAdjust="spacingAndGlyphs" textLength="28">Name</text>	<text transform="translate(-504.5 -714.76)" x="637" y="731.38092" fill="#000000" font-family="sans-serif" font-size="10px" font-weight="bold" lengthAdjust="spacingAndGlyphs" textLength="56">Description</text>	<text transform="translate(-504.5,-713.5)" x="523" y="749.38092" fill="#000000" font-family="sans-serif" font-size="10px" lengthAdjust="spacingAndGlyphs" textLength="0"/>	<text transform="translate(-504.5 -712.11)" x="556" y="743.95898" fill="#000000" font-family="sans-serif" font-size="10px" lengthAdjust="spacingAndGlyphs" textLength="24">Class</text>	<text transform="translate(-504.5 -712.11)" x="637" y="743.95898" fill="#000000" font-family="sans-serif" font-size="10px" lengthAdjust="spacingAndGlyphs" textLength="86">A complex Object</text>	<text transform="translate(-504.5,-713.5)" x="523" y="767.38092" fill="#000000" font-family="sans-serif" font-size="10px" lengthAdjust="spacingAndGlyphs" textLength="0"/>	<text transform="translate(-504.5 -712.25)" x="556" y="761.95898" fill="#000000" font-family="sans-serif" font-size="10px" lengthAdjust="spacingAndGlyphs" textLength="58">Aggregation</text>	<text transform="translate(-504.5 -712.09)" x="637" y="761.95898" fill="#000000" font-family="sans-serif" font-size="10px" lengthAdjust="spacingAndGlyphs" textLength="107">List of Objects as Array</text>	<text transform="translate(-504.5,-713.5)" x="523" y="785.38092" fill="#000000" font-family="sans-serif" font-size="10px" lengthAdjust="spacingAndGlyphs" textLength="0"/>	<text transform="translate(-504.5 -712.19)" x="556" y="779.95898" fill="#000000" font-family="sans-serif" font-size="10px" lengthAdjust="spacingAndGlyphs" textLength="59">Composition</text>	<text transform="translate(-504.5 -712.09)" x="637" y="779.95898" fill="#000000" font-family="sans-serif" font-size="10px" lengthAdjust="spacingAndGlyphs" textLength="104">List of Objects as Map</text>	<text transform="translate(-504.5,-713.5)" x="523" y="803.38092" fill="#000000" font-family="sans-serif" font-size="10px" lengthAdjust="spacingAndGlyphs" textLength="0"/>	<text transform="translate(-504.5 -712.39)" x="556" y="797.95898" fill="#000000" font-family="sans-serif" font-size="10px" lengthAdjust="spacingAndGlyphs" textLength="54">Association</text>	<text transform="translate(-504.5 -712.11)" x="637" y="797.95898" fill="#000000" font-family="sans-serif" font-size="10px" lengthAdjust="spacingAndGlyphs" textLength="126">A complex Object as child</text>	<text transform="translate(-504.5,-713.5)" x="523" y="821.38092" fill="#000000" font-family="sans-serif" font-size="10px" lengthAdjust="spacingAndGlyphs" textLength="0"/>	<text transform="translate(-504.5 -712.14)" x="556" y="815.95898" fill="#000000" font-family="sans-serif" font-size="10px" lengthAdjust="spacingAndGlyphs" textLength="69">Specialization</text>	<text transform="translate(-504.5 -712.09)" x="637" y="815.95898" fill="#000000" font-family="sans-serif" font-size="10px" lengthAdjust="spacingAndGlyphs" textLength="147">An extension of another Object</text>	<line x1="6.5" x2="282.5" y1="20.078" y2="20.078" stroke="#000"/>	<line x1="6.5" x2="282.5" y1="38.078" y2="38.078" stroke="#000"/>	<line x1="6.5" x2="282.5" y1="56.078" y2="56.078" stroke="#000"/>	<line x1="6.5" x2="282.5" y1="74.078" y2="74.078" stroke="#000"/>	<line x1="6.5" x2="282.5" y1="92.078" y2="92.078" stroke="#000"/>	<line x1="48.5" x2="48.5" y1="7.5" y2="110.08" stroke="#000"/>	<line x1="129.5" x2="129.5" y1="7.5" y2="110.08" stroke="#000"/>	<path d="m20.871 26.751h12m-11.5-3.1729h11v11h-11z" fill="none" stroke="#000" stroke-width="1px"/>	<g transform="translate(0 1.5453)" fill="none" stroke="#000">		<path d="m24.935 47.446 5.6592-5.6592" stroke-linecap="square" stroke-width="1px"/>		<rect x="20.869" y="47.512" width="4" height="3.9606" ry="0"/>		<rect x="30.774" y="39.593" width="2" height="2" ry="0"/>	</g>	<path d="m21.038 88.97 11.784-11.784" fill="none" stroke="#000" stroke-linecap="square" stroke-width="1px"/>	<g transform="translate(0 .78224)" fill="none" stroke="#000">		<path d="m25.986 93.638h6.7885v6.7885z"/>		<path d="m19.701 106.75 9.6682-9.6682" stroke-linecap="square" stroke-width="1px"/>	</g>	<g transform="translate(0 1.3665)" fill="none" stroke="#000">		<path d="m24.935 65.602 5.6592-5.6592" stroke-linecap="square" stroke-width="1px"/>		<rect x="20.869" y="65.668" width="4" height="3.9606" ry="0"/>		<rect x="30.774" y="57.795" width="2" height="2" ry="0"/>	</g></svg><!--
@startuml

skinparam class {
	BorderColor black
	FontColor #50237f
	BackgroundColor #f5f5f5
	ArrowColor black
}
hide class circle

skinparam stereotype {
	CBackgroundColor white
	EBackgroundColor white
}

skinparam legend {
	BorderColor white
	BackgroundColor white
}

class Device {
	id: String
	mode[0..1]: String
	state[0..1]: DeviceState
	additionalProperties[0..1]: Object
}

class Measurement {
	code[0..1]: String
	context[0..1]: ContextList
	result[0..1]: Result
	series: Series
	ts: Date
	additionalProperties[0..1]: Object
}

class Context {
	limits[0..1]: Limits
	namespace[0..1]: String
	type[0..1]: String
	unit[0..1]: String
	additionalProperties[0..1]: Object
}

class Limits {
	lowerError[0..1]: Float | [Float]
	lowerWarn[0..1]: Float | [Float]
	target[0..1]:  Float | [Float]
	upperError[0..1]: Float | [Float]
	upperWarn[0..1]: Float | [Float]
}

class Series {
	time[0..1]: [Number]
	<values>[1..*]: [Boolean | Number | String]
}

class Part {
	code[0..1]: String
	id[0..1]: String
	type[0..1]: PartType
	typeId[0..1]: String
	result[0..1]: Result
	additionalProperties[0..1]: Object
}

enum DeviceState {
	OK
	INFO
	WARN
	ERROR
	UNKNOWN
}

enum Result {
	OK
	NOK
	UNKNOWN
}

enum PartType {
	SINGLE
	BATCH
}

Measurement "1" *- - "0..1" Context : ContextList
Context "1" - - "0..*" Limits


sprite $aggregation jar:archimate/aggregation
sprite $composition jar:archimate/composition
sprite $specialisation jar:archimate/specialisation
sprite $association jar:archimate/association
sprite $object      jar:archimate/object

legend right
<img:legend.svg>
endlegend


class MeasurementPayload {
	content-spec : String
	device : Device
	measurements : TimeMeasurement
	part[0..1] : Part
}

class TimeMeasurement {
	code[0..1]: String
	context[0..1]: ContextList
	result[0..1]: Result
	series: TimeSeries
	ts: Date
	additionalData[0..1]: Object
}

class TimeSeries {
	time: [Number]
	<values>[1..*]: [Boolean | Number | String]
}

hide Measurement
hide Series

TimeMeasurement "1" *- - "0..1" Context : ContextList

MeasurementPayload - - Device
MeasurementPayload - - Part
MeasurementPayload "1" o-right- "1..*" TimeMeasurement : Measurements

Series <|- - TimeSeries

TimeMeasurement - - TimeSeries

@enduml

PlantUML version 1.2018.01(Sun Jan 28 19:08:22 CET 2018)
(EPL source distribution)
Java Runtime: Java(TM) SE Runtime Environment
JVM: Java HotSpot(TM) 64-Bit Server VM
Java Version: 10.0.1+10
Operating System: Windows 10
OS Version: 10.0
Default Encoding: Cp1252
Language: en
Country: US
--></g></svg>