<?xml version="1.0" encoding="UTF-8" standalone="no"?><svg xmlns="http://www.w3.org/2000/svg" xmlns:xlink="http://www.w3.org/1999/xlink" contentScriptType="application/ecmascript" contentStyleType="text/css" height="539px" preserveAspectRatio="none" style="width:645px;height:539px;" version="1.1" viewBox="0 0 645 539" width="645px" zoomAndPan="magnify"><defs><filter height="300%" id="fdkgrimzkak0i" width="300%" x="-1" y="-1"><feGaussianBlur result="blurOut" stdDeviation="2.0"/><feColorMatrix in="blurOut" result="blurOut2" type="matrix" values="0 0 0 0 0 0 0 0 0 0 0 0 0 0 0 0 0 0 .4 0"/><feOffset dx="4.0" dy="4.0" in="blurOut2" result="blurOut3"/><feBlend in="SourceGraphic" in2="blurOut3" mode="normal"/></filter></defs><g><!--class Device--><rect fill="#F5F5F5" filter="url(#fdkgrimzkak0i)" height="96.4375" id="Device" style="stroke: #000000; stroke-width: 1.5;" width="140" x="150.5" y="252"/><text fill="#50237F" font-family="sans-serif" font-size="12" lengthAdjust="spacingAndGlyphs" textLength="37" x="202" y="269.457">Device</text><line style="stroke: #000000; stroke-width: 1.5;" x1="151.5" x2="289.5" y1="277.0938" y2="277.0938"/><text fill="#000000" font-family="sans-serif" font-size="11" lengthAdjust="spacingAndGlyphs" textLength="42" x="156.5" y="292.5127">id: String</text><text fill="#000000" font-family="sans-serif" font-size="11" lengthAdjust="spacingAndGlyphs" textLength="84" x="156.5" y="306.3486">mode[0..1]: String</text><text fill="#000000" font-family="sans-serif" font-size="11" lengthAdjust="spacingAndGlyphs" textLength="112" x="156.5" y="320.1846">state[0..1]: DeviceState</text><text fill="#000000" font-family="sans-serif" font-size="11" lengthAdjust="spacingAndGlyphs" textLength="128" x="156.5" y="334.0205">additionalData[0..1]: Object</text><line style="stroke: #000000; stroke-width: 1.5;" x1="151.5" x2="289.5" y1="340.4375" y2="340.4375"/><!--class DeviceState--><rect fill="#F5F5F5" filter="url(#fdkgrimzkak0i)" height="117.1797" id="DeviceState" style="stroke: #000000; stroke-width: 1.5;" width="97" x="404" y="15"/><ellipse cx="419" cy="31" fill="#FFFFFF" rx="11" ry="11" style="stroke: #000000; stroke-width: 1.0;"/><path d="M417.8594,31.7969 L417.8594,34.2969 L422.1875,34.2969 L422.1875,33.375 Q422.1875,32.7656 422.4297,32.5 Q422.6719,32.2344 423.0469,32.2344 Q423.4219,32.2344 423.6563,32.5 Q423.8906,32.7656 423.8906,33.375 L423.8906,36 L415.8906,36 Q415.2656,36 415.0078,35.7656 Q414.75,35.5313 414.75,35.1406 Q414.75,34.7656 415.0156,34.5313 Q415.2813,34.2969 415.8906,34.2969 L416.1563,34.2969 L416.1563,27.6406 L415.8906,27.6406 Q415.2656,27.6406 415.0078,27.4063 Q414.75,27.1719 414.75,26.7813 Q414.75,26.4063 415.0078,26.1719 Q415.2656,25.9375 415.8906,25.9375 L423.5156,25.9375 L423.5156,28.5313 Q423.5156,29.1406 423.2891,29.3984 Q423.0625,29.6563 422.6719,29.6563 Q422.2969,29.6563 422.0625,29.3984 Q421.8281,29.1406 421.8281,28.5313 L421.8281,27.6406 L417.8594,27.6406 L417.8594,30.0938 L419.3438,30.0938 Q419.3438,29.4375 419.4688,29.25 Q419.7344,28.8438 420.2031,28.8438 Q420.5781,28.8438 420.8125,29.1016 Q421.0469,29.3594 421.0469,29.9688 L421.0469,31.9375 Q421.0469,32.4844 420.9219,32.6719 Q420.6563,33.0625 420.2031,33.0625 Q419.7344,33.0625 419.4688,32.6563 Q419.3438,32.4688 419.3438,31.7969 L417.8594,31.7969 Z "/><text fill="#50237F" font-family="sans-serif" font-size="12" lengthAdjust="spacingAndGlyphs" textLength="65" x="433" y="35.9102">DeviceState</text><line style="stroke: #000000; stroke-width: 1.5;" x1="405" x2="500" y1="47" y2="47"/><text fill="#000000" font-family="sans-serif" font-size="11" lengthAdjust="spacingAndGlyphs" textLength="15" x="410" y="62.4189">OK</text><text fill="#000000" font-family="sans-serif" font-size="11" lengthAdjust="spacingAndGlyphs" textLength="23" x="410" y="76.2549">INFO</text><text fill="#000000" font-family="sans-serif" font-size="11" lengthAdjust="spacingAndGlyphs" textLength="32" x="410" y="90.0908">WARN</text><text fill="#000000" font-family="sans-serif" font-size="11" lengthAdjust="spacingAndGlyphs" textLength="35" x="410" y="103.9268">ERROR</text><text fill="#000000" font-family="sans-serif" font-size="11" lengthAdjust="spacingAndGlyphs" textLength="53" x="410" y="117.7627">UNKNOWN</text><line style="stroke: #000000; stroke-width: 1.5;" x1="405" x2="500" y1="124.1797" y2="124.1797"/><!--class ValueType--><rect fill="#F5F5F5" filter="url(#fdkgrimzkak0i)" height="131.0156" id="ValueType" style="stroke: #000000; stroke-width: 1.5;" width="89" x="536" y="8"/><ellipse cx="551" cy="24" fill="#FFFFFF" rx="11" ry="11" style="stroke: #000000; stroke-width: 1.0;"/><path d="M549.8594,24.7969 L549.8594,27.2969 L554.1875,27.2969 L554.1875,26.375 Q554.1875,25.7656 554.4297,25.5 Q554.6719,25.2344 555.0469,25.2344 Q555.4219,25.2344 555.6563,25.5 Q555.8906,25.7656 555.8906,26.375 L555.8906,29 L547.8906,29 Q547.2656,29 547.0078,28.7656 Q546.75,28.5313 546.75,28.1406 Q546.75,27.7656 547.0156,27.5313 Q547.2813,27.2969 547.8906,27.2969 L548.1563,27.2969 L548.1563,20.6406 L547.8906,20.6406 Q547.2656,20.6406 547.0078,20.4063 Q546.75,20.1719 546.75,19.7813 Q546.75,19.4063 547.0078,19.1719 Q547.2656,18.9375 547.8906,18.9375 L555.5156,18.9375 L555.5156,21.5313 Q555.5156,22.1406 555.2891,22.3984 Q555.0625,22.6563 554.6719,22.6563 Q554.2969,22.6563 554.0625,22.3984 Q553.8281,22.1406 553.8281,21.5313 L553.8281,20.6406 L549.8594,20.6406 L549.8594,23.0938 L551.3438,23.0938 Q551.3438,22.4375 551.4688,22.25 Q551.7344,21.8438 552.2031,21.8438 Q552.5781,21.8438 552.8125,22.1016 Q553.0469,22.3594 553.0469,22.9688 L553.0469,24.9375 Q553.0469,25.4844 552.9219,25.6719 Q552.6563,26.0625 552.2031,26.0625 Q551.7344,26.0625 551.4688,25.6563 Q551.3438,25.4688 551.3438,24.7969 L549.8594,24.7969 Z "/><text fill="#50237F" font-family="sans-serif" font-size="12" lengthAdjust="spacingAndGlyphs" textLength="57" x="565" y="28.9102">ValueType</text><line style="stroke: #000000; stroke-width: 1.5;" x1="537" x2="624" y1="40" y2="40"/><text fill="#000000" font-family="sans-serif" font-size="11" lengthAdjust="spacingAndGlyphs" textLength="40" x="542" y="55.4189">BASE64</text><text fill="#000000" font-family="sans-serif" font-size="11" lengthAdjust="spacingAndGlyphs" textLength="50" x="542" y="69.2549">BOOLEAN</text><text fill="#000000" font-family="sans-serif" font-size="11" lengthAdjust="spacingAndGlyphs" textLength="42" x="542" y="83.0908">NUMBER</text><text fill="#000000" font-family="sans-serif" font-size="11" lengthAdjust="spacingAndGlyphs" textLength="34" x="542" y="96.9268">OTHER</text><text fill="#000000" font-family="sans-serif" font-size="11" lengthAdjust="spacingAndGlyphs" textLength="19" x="542" y="110.7627">REF</text><text fill="#000000" font-family="sans-serif" font-size="11" lengthAdjust="spacingAndGlyphs" textLength="37" x="542" y="124.5986">STRING</text><line style="stroke: #000000; stroke-width: 1.5;" x1="537" x2="624" y1="131.0156" y2="131.0156"/><!--class MessagePayload--><rect fill="#F5F5F5" filter="url(#fdkgrimzkak0i)" height="82.6016" id="MessagePayload" style="stroke: #000000; stroke-width: 1.5;" width="121" x="248" y="32"/><text fill="#50237F" font-family="sans-serif" font-size="12" lengthAdjust="spacingAndGlyphs" textLength="95" x="261" y="49.457">MessagePayload</text><line style="stroke: #000000; stroke-width: 1.5;" x1="249" x2="368" y1="57.0938" y2="57.0938"/><text fill="#000000" font-family="sans-serif" font-size="11" lengthAdjust="spacingAndGlyphs" textLength="101" x="254" y="72.5127">content-spec : String</text><text fill="#000000" font-family="sans-serif" font-size="11" lengthAdjust="spacingAndGlyphs" textLength="74" x="254" y="86.3486">device : Device</text><text fill="#000000" font-family="sans-serif" font-size="11" lengthAdjust="spacingAndGlyphs" textLength="109" x="254" y="100.1846">messages : Messages</text><line style="stroke: #000000; stroke-width: 1.5;" x1="249" x2="368" y1="106.6016" y2="106.6016"/><!--class Message--><rect fill="#F5F5F5" filter="url(#fdkgrimzkak0i)" height="165.6172" id="Message" style="stroke: #000000; stroke-width: 1.5;" width="140" x="325.5" y="217"/><text fill="#50237F" font-family="sans-serif" font-size="12" lengthAdjust="spacingAndGlyphs" textLength="51" x="370" y="234.457">Message</text><line style="stroke: #000000; stroke-width: 1.5;" x1="326.5" x2="464.5" y1="242.0938" y2="242.0938"/><text fill="#000000" font-family="sans-serif" font-size="11" lengthAdjust="spacingAndGlyphs" textLength="61" x="331.5" y="257.5127">code : String</text><text fill="#000000" font-family="sans-serif" font-size="11" lengthAdjust="spacingAndGlyphs" textLength="114" x="331.5" y="271.3486">description[0..1] : String</text><text fill="#000000" font-family="sans-serif" font-size="11" lengthAdjust="spacingAndGlyphs" textLength="78" x="331.5" y="285.1846">hint[0..1] : String</text><text fill="#000000" font-family="sans-serif" font-size="11" lengthAdjust="spacingAndGlyphs" textLength="87" x="331.5" y="299.0205">origin[0..1] : String</text><text fill="#000000" font-family="sans-serif" font-size="11" lengthAdjust="spacingAndGlyphs" textLength="112" x="331.5" y="312.8564">severity[0..1] : Severity</text><text fill="#000000" font-family="sans-serif" font-size="11" lengthAdjust="spacingAndGlyphs" textLength="77" x="331.5" y="326.6924">title[0..1] : String</text><text fill="#000000" font-family="sans-serif" font-size="11" lengthAdjust="spacingAndGlyphs" textLength="40" x="331.5" y="340.5283">ts : Date</text><text fill="#000000" font-family="sans-serif" font-size="11" lengthAdjust="spacingAndGlyphs" textLength="78" x="331.5" y="354.3643">type[0..1] : Type</text><text fill="#000000" font-family="sans-serif" font-size="11" lengthAdjust="spacingAndGlyphs" textLength="128" x="331.5" y="368.2002">additionalData[0..1]: Object</text><line style="stroke: #000000; stroke-width: 1.5;" x1="326.5" x2="464.5" y1="374.6172" y2="374.6172"/><!--class Type--><rect fill="#F5F5F5" filter="url(#fdkgrimzkak0i)" height="75.6719" id="Type" style="stroke: #000000; stroke-width: 1.5;" width="97" x="6" y="35.5"/><ellipse cx="38.55" cy="51.5" fill="#FFFFFF" rx="11" ry="11" style="stroke: #000000; stroke-width: 1.0;"/><path d="M37.4094,52.2969 L37.4094,54.7969 L41.7375,54.7969 L41.7375,53.875 Q41.7375,53.2656 41.9797,53 Q42.2219,52.7344 42.5969,52.7344 Q42.9719,52.7344 43.2063,53 Q43.4406,53.2656 43.4406,53.875 L43.4406,56.5 L35.4406,56.5 Q34.8156,56.5 34.5578,56.2656 Q34.3,56.0313 34.3,55.6406 Q34.3,55.2656 34.5656,55.0313 Q34.8313,54.7969 35.4406,54.7969 L35.7063,54.7969 L35.7063,48.1406 L35.4406,48.1406 Q34.8156,48.1406 34.5578,47.9063 Q34.3,47.6719 34.3,47.2813 Q34.3,46.9063 34.5578,46.6719 Q34.8156,46.4375 35.4406,46.4375 L43.0656,46.4375 L43.0656,49.0313 Q43.0656,49.6406 42.8391,49.8984 Q42.6125,50.1563 42.2219,50.1563 Q41.8469,50.1563 41.6125,49.8984 Q41.3781,49.6406 41.3781,49.0313 L41.3781,48.1406 L37.4094,48.1406 L37.4094,50.5938 L38.8938,50.5938 Q38.8938,49.9375 39.0188,49.75 Q39.2844,49.3438 39.7531,49.3438 Q40.1281,49.3438 40.3625,49.6016 Q40.5969,49.8594 40.5969,50.4688 L40.5969,52.4375 Q40.5969,52.9844 40.4719,53.1719 Q40.2063,53.5625 39.7531,53.5625 Q39.2844,53.5625 39.0188,53.1563 Q38.8938,52.9688 38.8938,52.2969 L37.4094,52.2969 Z "/><text fill="#50237F" font-family="sans-serif" font-size="12" lengthAdjust="spacingAndGlyphs" textLength="26" x="56.45" y="56.4102">Type</text><line style="stroke: #000000; stroke-width: 1.5;" x1="7" x2="102" y1="67.5" y2="67.5"/><text fill="#000000" font-family="sans-serif" font-size="11" lengthAdjust="spacingAndGlyphs" textLength="36" x="12" y="82.9189">DEVICE</text><text fill="#000000" font-family="sans-serif" font-size="11" lengthAdjust="spacingAndGlyphs" textLength="85" x="12" y="96.7549">TECHNICAL_INFO</text><line style="stroke: #000000; stroke-width: 1.5;" x1="7" x2="102" y1="103.1719" y2="103.1719"/><!--class Severity--><rect fill="#F5F5F5" filter="url(#fdkgrimzkak0i)" height="103.3438" id="Severity" style="stroke: #000000; stroke-width: 1.5;" width="74" x="138.5" y="22"/><ellipse cx="153.5" cy="38" fill="#FFFFFF" rx="11" ry="11" style="stroke: #000000; stroke-width: 1.0;"/><path d="M152.3594,38.7969 L152.3594,41.2969 L156.6875,41.2969 L156.6875,40.375 Q156.6875,39.7656 156.9297,39.5 Q157.1719,39.2344 157.5469,39.2344 Q157.9219,39.2344 158.1563,39.5 Q158.3906,39.7656 158.3906,40.375 L158.3906,43 L150.3906,43 Q149.7656,43 149.5078,42.7656 Q149.25,42.5313 149.25,42.1406 Q149.25,41.7656 149.5156,41.5313 Q149.7813,41.2969 150.3906,41.2969 L150.6563,41.2969 L150.6563,34.6406 L150.3906,34.6406 Q149.7656,34.6406 149.5078,34.4063 Q149.25,34.1719 149.25,33.7813 Q149.25,33.4063 149.5078,33.1719 Q149.7656,32.9375 150.3906,32.9375 L158.0156,32.9375 L158.0156,35.5313 Q158.0156,36.1406 157.7891,36.3984 Q157.5625,36.6563 157.1719,36.6563 Q156.7969,36.6563 156.5625,36.3984 Q156.3281,36.1406 156.3281,35.5313 L156.3281,34.6406 L152.3594,34.6406 L152.3594,37.0938 L153.8438,37.0938 Q153.8438,36.4375 153.9688,36.25 Q154.2344,35.8438 154.7031,35.8438 Q155.0781,35.8438 155.3125,36.1016 Q155.5469,36.3594 155.5469,36.9688 L155.5469,38.9375 Q155.5469,39.4844 155.4219,39.6719 Q155.1563,40.0625 154.7031,40.0625 Q154.2344,40.0625 153.9688,39.6563 Q153.8438,39.4688 153.8438,38.7969 L152.3594,38.7969 Z "/><text fill="#50237F" font-family="sans-serif" font-size="12" lengthAdjust="spacingAndGlyphs" textLength="42" x="167.5" y="42.9102">Severity</text><line style="stroke: #000000; stroke-width: 1.5;" x1="139.5" x2="211.5" y1="54" y2="54"/><text fill="#000000" font-family="sans-serif" font-size="11" lengthAdjust="spacingAndGlyphs" textLength="24" x="144.5" y="69.4189">HIGH</text><text fill="#000000" font-family="sans-serif" font-size="11" lengthAdjust="spacingAndGlyphs" textLength="38" x="144.5" y="83.2549">MEDIUM</text><text fill="#000000" font-family="sans-serif" font-size="11" lengthAdjust="spacingAndGlyphs" textLength="24" x="144.5" y="97.0908">LOW</text><text fill="#000000" font-family="sans-serif" font-size="11" lengthAdjust="spacingAndGlyphs" textLength="53" x="144.5" y="110.9268">UNKNOWN</text><line style="stroke: #000000; stroke-width: 1.5;" x1="139.5" x2="211.5" y1="117.3438" y2="117.3438"/><!--link MessagePayload to Device--><path d="M292.564,115.155 C277.507,153.568 254.925,211.178 239.062,251.647 " fill="none" id="MessagePayload-Device" style="stroke: #000000; stroke-width: 1.0;"/><!--link MessagePayload to Message--><path d="M328.966,127.312 C339.298,153.972 352.065,186.918 363.645,216.799 " fill="none" id="MessagePayload-Message" style="stroke: #000000; stroke-width: 1.0;"/><polygon fill="#FFFFFF" points="324.255,115.155,322.6932,122.1949,328.5909,126.3443,330.1527,119.3043,324.255,115.155" style="stroke: #000000; stroke-width: 1.0;"/><text fill="#000000" font-family="sans-serif" font-size="13" lengthAdjust="spacingAndGlyphs" textLength="60" x="352.5" y="183.4951">Messages</text><text fill="#000000" font-family="sans-serif" font-size="13" lengthAdjust="spacingAndGlyphs" textLength="7" x="319.055" y="135.9983">1</text><text fill="#000000" font-family="sans-serif" font-size="13" lengthAdjust="spacingAndGlyphs" textLength="20" x="339.9173" y="206.2042">1..*</text><!--link Type to Severity--><rect fill="#FFFFFF" height="127" rx="5" ry="5" style="stroke: #FFFFFF; stroke-width: 1.0;" width="301" x="333" y="401"/><svg x="339" y="406">	<rect x=".5" y=".5" width="288" height="116.58" rx="5" ry="5" fill="#f5f5f5" stroke="#50237f"/>	<text transform="translate(-504.5 -714.76)" x="514" y="731.38092" fill="#000000" font-family="sans-serif" font-size="10px" font-weight="bold" lengthAdjust="spacingAndGlyphs" textLength="36">Symbol</text>	<text transform="translate(-504.5 -714.76)" x="556" y="731.38092" fill="#000000" font-family="sans-serif" font-size="10px" font-weight="bold" lengthAdjust="spacingAndGlyphs" textLength="28">Name</text>	<text transform="translate(-504.5 -714.76)" x="637" y="731.38092" fill="#000000" font-family="sans-serif" font-size="10px" font-weight="bold" lengthAdjust="spacingAndGlyphs" textLength="56">Description</text>	<text transform="translate(-504.5,-713.5)" x="523" y="749.38092" fill="#000000" font-family="sans-serif" font-size="10px" lengthAdjust="spacingAndGlyphs" textLength="0"/>	<text transform="translate(-504.5 -712.11)" x="556" y="743.95898" fill="#000000" font-family="sans-serif" font-size="10px" lengthAdjust="spacingAndGlyphs" textLength="24">Class</text>	<text transform="translate(-504.5 -712.11)" x="637" y="743.95898" fill="#000000" font-family="sans-serif" font-size="10px" lengthAdjust="spacingAndGlyphs" textLength="86">A complex Object</text>	<text transform="translate(-504.5,-713.5)" x="523" y="767.38092" fill="#000000" font-family="sans-serif" font-size="10px" lengthAdjust="spacingAndGlyphs" textLength="0"/>	<text transform="translate(-504.5 -712.25)" x="556" y="761.95898" fill="#000000" font-family="sans-serif" font-size="10px" lengthAdjust="spacingAndGlyphs" textLength="58">Aggregation</text>	<text transform="translate(-504.5 -712.09)" x="637" y="761.95898" fill="#000000" font-family="sans-serif" font-size="10px" lengthAdjust="spacingAndGlyphs" textLength="107">List of Objects as Array</text>	<text transform="translate(-504.5,-713.5)" x="523" y="785.38092" fill="#000000" font-family="sans-serif" font-size="10px" lengthAdjust="spacingAndGlyphs" textLength="0"/>	<text transform="translate(-504.5 -712.19)" x="556" y="779.95898" fill="#000000" font-family="sans-serif" font-size="10px" lengthAdjust="spacingAndGlyphs" textLength="59">Composition</text>	<text transform="translate(-504.5 -712.09)" x="637" y="779.95898" fill="#000000" font-family="sans-serif" font-size="10px" lengthAdjust="spacingAndGlyphs" textLength="104">List of Objects as Map</text>	<text transform="translate(-504.5,-713.5)" x="523" y="803.38092" fill="#000000" font-family="sans-serif" font-size="10px" lengthAdjust="spacingAndGlyphs" textLength="0"/>	<text transform="translate(-504.5 -712.39)" x="556" y="797.95898" fill="#000000" font-family="sans-serif" font-size="10px" lengthAdjust="spacingAndGlyphs" textLength="54">Association</text>	<text transform="translate(-504.5 -712.11)" x="637" y="797.95898" fill="#000000" font-family="sans-serif" font-size="10px" lengthAdjust="spacingAndGlyphs" textLength="126">A complex Object as child</text>	<text transform="translate(-504.5,-713.5)" x="523" y="821.38092" fill="#000000" font-family="sans-serif" font-size="10px" lengthAdjust="spacingAndGlyphs" textLength="0"/>	<text transform="translate(-504.5 -712.14)" x="556" y="815.95898" fill="#000000" font-family="sans-serif" font-size="10px" lengthAdjust="spacingAndGlyphs" textLength="69">Specialization</text>	<text transform="translate(-504.5 -712.09)" x="637" y="815.95898" fill="#000000" font-family="sans-serif" font-size="10px" lengthAdjust="spacingAndGlyphs" textLength="147">An extension of another Object</text>	<line x1="6.5" x2="282.5" y1="20.078" y2="20.078" stroke="#000"/>	<line x1="6.5" x2="282.5" y1="38.078" y2="38.078" stroke="#000"/>	<line x1="6.5" x2="282.5" y1="56.078" y2="56.078" stroke="#000"/>	<line x1="6.5" x2="282.5" y1="74.078" y2="74.078" stroke="#000"/>	<line x1="6.5" x2="282.5" y1="92.078" y2="92.078" stroke="#000"/>	<line x1="48.5" x2="48.5" y1="7.5" y2="110.08" stroke="#000"/>	<line x1="129.5" x2="129.5" y1="7.5" y2="110.08" stroke="#000"/>	<path d="m20.871 26.751h12m-11.5-3.1729h11v11h-11z" fill="none" stroke="#000" stroke-width="1px"/>	<g transform="translate(0 1.5453)" fill="none" stroke="#000">		<path d="m24.935 47.446 5.6592-5.6592" stroke-linecap="square" stroke-width="1px"/>		<rect x="20.869" y="47.512" width="4" height="3.9606" ry="0"/>		<rect x="30.774" y="39.593" width="2" height="2" ry="0"/>	</g>	<path d="m21.038 88.97 11.784-11.784" fill="none" stroke="#000" stroke-linecap="square" stroke-width="1px"/>	<g transform="translate(0 .78224)" fill="none" stroke="#000">		<path d="m25.986 93.638h6.7885v6.7885z"/>		<path d="m19.701 106.75 9.6682-9.6682" stroke-linecap="square" stroke-width="1px"/>	</g>	<g transform="translate(0 1.3665)" fill="none" stroke="#000">		<path d="m24.935 65.602 5.6592-5.6592" stroke-linecap="square" stroke-width="1px"/>		<rect x="20.869" y="65.668" width="4" height="3.9606" ry="0"/>		<rect x="30.774" y="57.795" width="2" height="2" ry="0"/>	</g></svg><!--
@startuml

skinparam class {
	BorderColor black
	FontColor #50237f
	BackgroundColor #f5f5f5
	ArrowColor black
}
hide class circle

skinparam stereotype {
	CBackgroundColor white
	EBackgroundColor white
}

skinparam legend {
	BorderColor white
	BackgroundColor white
}

class Device {
	id: String
	mode[0..1]: String
	state[0..1]: DeviceState
	additionalData[0..1]: Object
}

class Measurement {
	code[0..1]: String
	context[0..1]: ContextList
	result[0..1]: Result
	series: Series
	ts: Date
	additionalData[0..1]: Object
}

class Context {
	limits[0..1]: Limits
	namespace[0..1]: String
	type[0..1]: ValueType
	unit[0..1]: String
	additionalData[0..1]: Object
}

class Limits {
	lowerError[0..1]: Float | [Float]
	lowerWarn[0..1]: Float | [Float]
	target[0..1]:  Float | [Float]
	upperError[0..1]: Float | [Float]
	upperWarn[0..1]: Float | [Float]
}

class Series {
	time[0..1]: [Number]
	<values>[1..*]: [Boolean | Number | String]
}

class Part {
	code[0..1]: String
	id[0..1]: String
	type[0..1]: PartType
	typeId[0..1]: String
	result[0..1]: Result
	additionalData[0..1]: Object
}

enum DeviceState {
	OK
	INFO
	WARN
	ERROR
	UNKNOWN
}

enum Result {
	OK
	NOK
	UNKNOWN
}

enum PartType {
	SINGLE
	BATCH
}

enum ValueType {
	BASE64
	BOOLEAN
	NUMBER
	OTHER
	REF
	STRING
}

Measurement "1" *- - "0..1" Context : ContextList
Context "1" - - "0..*" Limits


sprite $aggregation jar:archimate/aggregation
sprite $composition jar:archimate/composition
sprite $specialisation jar:archimate/specialisation
sprite $association jar:archimate/association
sprite $object      jar:archimate/object

legend right
<img:legend.svg>
endlegend


class MessagePayload {
	content-spec : String
	device : Device
	messages : Messages
}

class Message {
	code : String
	description[0..1] : String
	hint[0..1] : String
	origin[0..1] : String
	severity[0..1] : Severity
	title[0..1] : String
	ts : Date
	type[0..1] : Type
	additionalData[0..1]: Object
}

enum Type {
	DEVICE
	TECHNICAL_INFO
}

enum Severity {
	HIGH
	MEDIUM
	LOW
	UNKNOWN
}

MessagePayload - - Device
MessagePayload "1" o- - "1..*" Message : Messages

hide Context
hide Limits
hide Measurement
hide Part
hide PartType
hide Result
hide Series

Context "1" -left- "0..*" Limits

@enduml

PlantUML version 1.2018.01(Sun Jan 28 19:08:22 CET 2018)
(EPL source distribution)
Java Runtime: Java(TM) SE Runtime Environment
JVM: Java HotSpot(TM) 64-Bit Server VM
Java Version: 10.0.1+10
Operating System: Windows 10
OS Version: 10.0
Default Encoding: Cp1252
Language: en
Country: US
--></g></svg>