<?xml version="1.0" encoding="UTF-8" standalone="no"?><svg xmlns="http://www.w3.org/2000/svg" xmlns:xlink="http://www.w3.org/1999/xlink" contentScriptType="application/ecmascript" contentStyleType="text/css" height="566px" preserveAspectRatio="none" style="width:872px;height:566px;" version="1.1" viewBox="0 0 872 566" width="872px" zoomAndPan="magnify"><defs><filter height="300%" id="fetg6qpzcvyga" width="300%" x="-1" y="-1"><feGaussianBlur result="blurOut" stdDeviation="2.0"/><feColorMatrix in="blurOut" result="blurOut2" type="matrix" values="0 0 0 0 0 0 0 0 0 0 0 0 0 0 0 0 0 0 .4 0"/><feOffset dx="4.0" dy="4.0" in="blurOut2" result="blurOut3"/><feBlend in="SourceGraphic" in2="blurOut3" mode="normal"/></filter></defs><g><!--class Device--><rect fill="#F5F5F5" filter="url(#fetg6qpzcvyga)" height="96.4375" id="Device" style="stroke: #000000; stroke-width: 1.5;" width="140" x="501.5" y="265.5"/><text fill="#50237F" font-family="sans-serif" font-size="12" lengthAdjust="spacingAndGlyphs" textLength="37" x="553" y="282.957">Device</text><line style="stroke: #000000; stroke-width: 1.5;" x1="502.5" x2="640.5" y1="290.5938" y2="290.5938"/><text fill="#000000" font-family="sans-serif" font-size="11" lengthAdjust="spacingAndGlyphs" textLength="42" x="507.5" y="306.0127">id: String</text><text fill="#000000" font-family="sans-serif" font-size="11" lengthAdjust="spacingAndGlyphs" textLength="84" x="507.5" y="319.8486">mode[0..1]: String</text><text fill="#000000" font-family="sans-serif" font-size="11" lengthAdjust="spacingAndGlyphs" textLength="112" x="507.5" y="333.6846">state[0..1]: DeviceState</text><text fill="#000000" font-family="sans-serif" font-size="11" lengthAdjust="spacingAndGlyphs" textLength="128" x="507.5" y="347.5205">additionalData[0..1]: Object</text><line style="stroke: #000000; stroke-width: 1.5;" x1="502.5" x2="640.5" y1="353.9375" y2="353.9375"/><!--class DeviceState--><rect fill="#F5F5F5" filter="url(#fetg6qpzcvyga)" height="117.1797" id="DeviceState" style="stroke: #000000; stroke-width: 1.5;" width="97" x="755" y="15"/><ellipse cx="770" cy="31" fill="#FFFFFF" rx="11" ry="11" style="stroke: #000000; stroke-width: 1.0;"/><path d="M768.8594,31.7969 L768.8594,34.2969 L773.1875,34.2969 L773.1875,33.375 Q773.1875,32.7656 773.4297,32.5 Q773.6719,32.2344 774.0469,32.2344 Q774.4219,32.2344 774.6563,32.5 Q774.8906,32.7656 774.8906,33.375 L774.8906,36 L766.8906,36 Q766.2656,36 766.0078,35.7656 Q765.75,35.5313 765.75,35.1406 Q765.75,34.7656 766.0156,34.5313 Q766.2813,34.2969 766.8906,34.2969 L767.1563,34.2969 L767.1563,27.6406 L766.8906,27.6406 Q766.2656,27.6406 766.0078,27.4063 Q765.75,27.1719 765.75,26.7813 Q765.75,26.4063 766.0078,26.1719 Q766.2656,25.9375 766.8906,25.9375 L774.5156,25.9375 L774.5156,28.5313 Q774.5156,29.1406 774.2891,29.3984 Q774.0625,29.6563 773.6719,29.6563 Q773.2969,29.6563 773.0625,29.3984 Q772.8281,29.1406 772.8281,28.5313 L772.8281,27.6406 L768.8594,27.6406 L768.8594,30.0938 L770.3438,30.0938 Q770.3438,29.4375 770.4688,29.25 Q770.7344,28.8438 771.2031,28.8438 Q771.5781,28.8438 771.8125,29.1016 Q772.0469,29.3594 772.0469,29.9688 L772.0469,31.9375 Q772.0469,32.4844 771.9219,32.6719 Q771.6563,33.0625 771.2031,33.0625 Q770.7344,33.0625 770.4688,32.6563 Q770.3438,32.4688 770.3438,31.7969 L768.8594,31.7969 Z "/><text fill="#50237F" font-family="sans-serif" font-size="12" lengthAdjust="spacingAndGlyphs" textLength="65" x="784" y="35.9102">DeviceState</text><line style="stroke: #000000; stroke-width: 1.5;" x1="756" x2="851" y1="47" y2="47"/><text fill="#000000" font-family="sans-serif" font-size="11" lengthAdjust="spacingAndGlyphs" textLength="15" x="761" y="62.4189">OK</text><text fill="#000000" font-family="sans-serif" font-size="11" lengthAdjust="spacingAndGlyphs" textLength="23" x="761" y="76.2549">INFO</text><text fill="#000000" font-family="sans-serif" font-size="11" lengthAdjust="spacingAndGlyphs" textLength="32" x="761" y="90.0908">WARN</text><text fill="#000000" font-family="sans-serif" font-size="11" lengthAdjust="spacingAndGlyphs" textLength="35" x="761" y="103.9268">ERROR</text><text fill="#000000" font-family="sans-serif" font-size="11" lengthAdjust="spacingAndGlyphs" textLength="53" x="761" y="117.7627">UNKNOWN</text><line style="stroke: #000000; stroke-width: 1.5;" x1="756" x2="851" y1="124.1797" y2="124.1797"/><!--class ValueType--><rect fill="#F5F5F5" filter="url(#fetg6qpzcvyga)" height="131.0156" id="ValueType" style="stroke: #000000; stroke-width: 1.5;" width="89" x="6" y="8"/><ellipse cx="21" cy="24" fill="#FFFFFF" rx="11" ry="11" style="stroke: #000000; stroke-width: 1.0;"/><path d="M19.8594,24.7969 L19.8594,27.2969 L24.1875,27.2969 L24.1875,26.375 Q24.1875,25.7656 24.4297,25.5 Q24.6719,25.2344 25.0469,25.2344 Q25.4219,25.2344 25.6563,25.5 Q25.8906,25.7656 25.8906,26.375 L25.8906,29 L17.8906,29 Q17.2656,29 17.0078,28.7656 Q16.75,28.5313 16.75,28.1406 Q16.75,27.7656 17.0156,27.5313 Q17.2813,27.2969 17.8906,27.2969 L18.1563,27.2969 L18.1563,20.6406 L17.8906,20.6406 Q17.2656,20.6406 17.0078,20.4063 Q16.75,20.1719 16.75,19.7813 Q16.75,19.4063 17.0078,19.1719 Q17.2656,18.9375 17.8906,18.9375 L25.5156,18.9375 L25.5156,21.5313 Q25.5156,22.1406 25.2891,22.3984 Q25.0625,22.6563 24.6719,22.6563 Q24.2969,22.6563 24.0625,22.3984 Q23.8281,22.1406 23.8281,21.5313 L23.8281,20.6406 L19.8594,20.6406 L19.8594,23.0938 L21.3438,23.0938 Q21.3438,22.4375 21.4688,22.25 Q21.7344,21.8438 22.2031,21.8438 Q22.5781,21.8438 22.8125,22.1016 Q23.0469,22.3594 23.0469,22.9688 L23.0469,24.9375 Q23.0469,25.4844 22.9219,25.6719 Q22.6563,26.0625 22.2031,26.0625 Q21.7344,26.0625 21.4688,25.6563 Q21.3438,25.4688 21.3438,24.7969 L19.8594,24.7969 Z "/><text fill="#50237F" font-family="sans-serif" font-size="12" lengthAdjust="spacingAndGlyphs" textLength="57" x="35" y="28.9102">ValueType</text><line style="stroke: #000000; stroke-width: 1.5;" x1="7" x2="94" y1="40" y2="40"/><text fill="#000000" font-family="sans-serif" font-size="11" lengthAdjust="spacingAndGlyphs" textLength="40" x="12" y="55.4189">BASE64</text><text fill="#000000" font-family="sans-serif" font-size="11" lengthAdjust="spacingAndGlyphs" textLength="50" x="12" y="69.2549">BOOLEAN</text><text fill="#000000" font-family="sans-serif" font-size="11" lengthAdjust="spacingAndGlyphs" textLength="42" x="12" y="83.0908">NUMBER</text><text fill="#000000" font-family="sans-serif" font-size="11" lengthAdjust="spacingAndGlyphs" textLength="34" x="12" y="96.9268">OTHER</text><text fill="#000000" font-family="sans-serif" font-size="11" lengthAdjust="spacingAndGlyphs" textLength="19" x="12" y="110.7627">REF</text><text fill="#000000" font-family="sans-serif" font-size="11" lengthAdjust="spacingAndGlyphs" textLength="37" x="12" y="124.5986">STRING</text><line style="stroke: #000000; stroke-width: 1.5;" x1="7" x2="94" y1="131.0156" y2="131.0156"/><!--class MessagePayload--><rect fill="#F5F5F5" filter="url(#fetg6qpzcvyga)" height="82.6016" id="MessagePayload" style="stroke: #000000; stroke-width: 1.5;" width="121" x="599" y="32"/><text fill="#50237F" font-family="sans-serif" font-size="12" lengthAdjust="spacingAndGlyphs" textLength="95" x="612" y="49.457">MessagePayload</text><line style="stroke: #000000; stroke-width: 1.5;" x1="600" x2="719" y1="57.0938" y2="57.0938"/><text fill="#000000" font-family="sans-serif" font-size="11" lengthAdjust="spacingAndGlyphs" textLength="101" x="605" y="72.5127">content-spec : String</text><text fill="#000000" font-family="sans-serif" font-size="11" lengthAdjust="spacingAndGlyphs" textLength="74" x="605" y="86.3486">device : Device</text><text fill="#000000" font-family="sans-serif" font-size="11" lengthAdjust="spacingAndGlyphs" textLength="109" x="605" y="100.1846">messages : Messages</text><line style="stroke: #000000; stroke-width: 1.5;" x1="600" x2="719" y1="106.6016" y2="106.6016"/><!--class Message--><rect fill="#F5F5F5" filter="url(#fetg6qpzcvyga)" height="193.2891" id="Message" style="stroke: #000000; stroke-width: 1.5;" width="140" x="676.5" y="217"/><text fill="#50237F" font-family="sans-serif" font-size="12" lengthAdjust="spacingAndGlyphs" textLength="51" x="721" y="234.457">Message</text><line style="stroke: #000000; stroke-width: 1.5;" x1="677.5" x2="815.5" y1="242.0938" y2="242.0938"/><text fill="#000000" font-family="sans-serif" font-size="11" lengthAdjust="spacingAndGlyphs" textLength="61" x="682.5" y="257.5127">code : String</text><text fill="#000000" font-family="sans-serif" font-size="11" lengthAdjust="spacingAndGlyphs" textLength="114" x="682.5" y="271.3486">description[0..1] : String</text><text fill="#000000" font-family="sans-serif" font-size="11" lengthAdjust="spacingAndGlyphs" textLength="78" x="682.5" y="285.1846">hint[0..1] : String</text><text fill="#000000" font-family="sans-serif" font-size="11" lengthAdjust="spacingAndGlyphs" textLength="87" x="682.5" y="299.0205">origin[0..1] : String</text><text fill="#000000" font-family="sans-serif" font-size="11" lengthAdjust="spacingAndGlyphs" textLength="112" x="682.5" y="312.8564">severity[0..1] : Severity</text><text fill="#000000" font-family="sans-serif" font-size="11" lengthAdjust="spacingAndGlyphs" textLength="102" x="682.5" y="326.6924">source[0..1] : Source</text><text fill="#000000" font-family="sans-serif" font-size="11" lengthAdjust="spacingAndGlyphs" textLength="82" x="682.5" y="340.5283">state[0..1] : State</text><text fill="#000000" font-family="sans-serif" font-size="11" lengthAdjust="spacingAndGlyphs" textLength="77" x="682.5" y="354.3643">title[0..1] : String</text><text fill="#000000" font-family="sans-serif" font-size="11" lengthAdjust="spacingAndGlyphs" textLength="40" x="682.5" y="368.2002">ts : Date</text><text fill="#000000" font-family="sans-serif" font-size="11" lengthAdjust="spacingAndGlyphs" textLength="78" x="682.5" y="382.0361">type[0..1] : Type</text><text fill="#000000" font-family="sans-serif" font-size="11" lengthAdjust="spacingAndGlyphs" textLength="128" x="682.5" y="395.8721">additionalData[0..1]: Object</text><line style="stroke: #000000; stroke-width: 1.5;" x1="677.5" x2="815.5" y1="402.2891" y2="402.2891"/><!--class Severity--><rect fill="#F5F5F5" filter="url(#fetg6qpzcvyga)" height="103.3438" id="Severity" style="stroke: #000000; stroke-width: 1.5;" width="74" x="130.5" y="22"/><ellipse cx="145.5" cy="38" fill="#FFFFFF" rx="11" ry="11" style="stroke: #000000; stroke-width: 1.0;"/><path d="M144.3594,38.7969 L144.3594,41.2969 L148.6875,41.2969 L148.6875,40.375 Q148.6875,39.7656 148.9297,39.5 Q149.1719,39.2344 149.5469,39.2344 Q149.9219,39.2344 150.1563,39.5 Q150.3906,39.7656 150.3906,40.375 L150.3906,43 L142.3906,43 Q141.7656,43 141.5078,42.7656 Q141.25,42.5313 141.25,42.1406 Q141.25,41.7656 141.5156,41.5313 Q141.7813,41.2969 142.3906,41.2969 L142.6563,41.2969 L142.6563,34.6406 L142.3906,34.6406 Q141.7656,34.6406 141.5078,34.4063 Q141.25,34.1719 141.25,33.7813 Q141.25,33.4063 141.5078,33.1719 Q141.7656,32.9375 142.3906,32.9375 L150.0156,32.9375 L150.0156,35.5313 Q150.0156,36.1406 149.7891,36.3984 Q149.5625,36.6563 149.1719,36.6563 Q148.7969,36.6563 148.5625,36.3984 Q148.3281,36.1406 148.3281,35.5313 L148.3281,34.6406 L144.3594,34.6406 L144.3594,37.0938 L145.8438,37.0938 Q145.8438,36.4375 145.9688,36.25 Q146.2344,35.8438 146.7031,35.8438 Q147.0781,35.8438 147.3125,36.1016 Q147.5469,36.3594 147.5469,36.9688 L147.5469,38.9375 Q147.5469,39.4844 147.4219,39.6719 Q147.1563,40.0625 146.7031,40.0625 Q146.2344,40.0625 145.9688,39.6563 Q145.8438,39.4688 145.8438,38.7969 L144.3594,38.7969 Z "/><text fill="#50237F" font-family="sans-serif" font-size="12" lengthAdjust="spacingAndGlyphs" textLength="42" x="159.5" y="42.9102">Severity</text><line style="stroke: #000000; stroke-width: 1.5;" x1="131.5" x2="203.5" y1="54" y2="54"/><text fill="#000000" font-family="sans-serif" font-size="11" lengthAdjust="spacingAndGlyphs" textLength="24" x="136.5" y="69.4189">HIGH</text><text fill="#000000" font-family="sans-serif" font-size="11" lengthAdjust="spacingAndGlyphs" textLength="38" x="136.5" y="83.2549">MEDIUM</text><text fill="#000000" font-family="sans-serif" font-size="11" lengthAdjust="spacingAndGlyphs" textLength="24" x="136.5" y="97.0908">LOW</text><text fill="#000000" font-family="sans-serif" font-size="11" lengthAdjust="spacingAndGlyphs" textLength="53" x="136.5" y="110.9268">UNKNOWN</text><line style="stroke: #000000; stroke-width: 1.5;" x1="131.5" x2="203.5" y1="117.3438" y2="117.3438"/><!--class State--><rect fill="#F5F5F5" filter="url(#fetg6qpzcvyga)" height="75.6719" id="State" style="stroke: #000000; stroke-width: 1.5;" width="60" x="239.5" y="35.5"/><ellipse cx="254.5" cy="51.5" fill="#FFFFFF" rx="11" ry="11" style="stroke: #000000; stroke-width: 1.0;"/><path d="M253.3594,52.2969 L253.3594,54.7969 L257.6875,54.7969 L257.6875,53.875 Q257.6875,53.2656 257.9297,53 Q258.1719,52.7344 258.5469,52.7344 Q258.9219,52.7344 259.1563,53 Q259.3906,53.2656 259.3906,53.875 L259.3906,56.5 L251.3906,56.5 Q250.7656,56.5 250.5078,56.2656 Q250.25,56.0313 250.25,55.6406 Q250.25,55.2656 250.5156,55.0313 Q250.7813,54.7969 251.3906,54.7969 L251.6563,54.7969 L251.6563,48.1406 L251.3906,48.1406 Q250.7656,48.1406 250.5078,47.9063 Q250.25,47.6719 250.25,47.2813 Q250.25,46.9063 250.5078,46.6719 Q250.7656,46.4375 251.3906,46.4375 L259.0156,46.4375 L259.0156,49.0313 Q259.0156,49.6406 258.7891,49.8984 Q258.5625,50.1563 258.1719,50.1563 Q257.7969,50.1563 257.5625,49.8984 Q257.3281,49.6406 257.3281,49.0313 L257.3281,48.1406 L253.3594,48.1406 L253.3594,50.5938 L254.8438,50.5938 Q254.8438,49.9375 254.9688,49.75 Q255.2344,49.3438 255.7031,49.3438 Q256.0781,49.3438 256.3125,49.6016 Q256.5469,49.8594 256.5469,50.4688 L256.5469,52.4375 Q256.5469,52.9844 256.4219,53.1719 Q256.1563,53.5625 255.7031,53.5625 Q255.2344,53.5625 254.9688,53.1563 Q254.8438,52.9688 254.8438,52.2969 L253.3594,52.2969 Z "/><text fill="#50237F" font-family="sans-serif" font-size="12" lengthAdjust="spacingAndGlyphs" textLength="28" x="268.5" y="56.4102">State</text><line style="stroke: #000000; stroke-width: 1.5;" x1="240.5" x2="298.5" y1="67.5" y2="67.5"/><text fill="#000000" font-family="sans-serif" font-size="11" lengthAdjust="spacingAndGlyphs" textLength="23" x="245.5" y="82.9189">NEW</text><text fill="#000000" font-family="sans-serif" font-size="11" lengthAdjust="spacingAndGlyphs" textLength="33" x="245.5" y="96.7549">ENDED</text><line style="stroke: #000000; stroke-width: 1.5;" x1="240.5" x2="298.5" y1="103.1719" y2="103.1719"/><!--class Source--><rect fill="#F5F5F5" filter="url(#fetg6qpzcvyga)" height="75.6719" id="Source" style="stroke: #000000; stroke-width: 1.5;" width="97" x="335" y="35.5"/><ellipse cx="361.7" cy="51.5" fill="#FFFFFF" rx="11" ry="11" style="stroke: #000000; stroke-width: 1.0;"/><path d="M360.5594,52.2969 L360.5594,54.7969 L364.8875,54.7969 L364.8875,53.875 Q364.8875,53.2656 365.1297,53 Q365.3719,52.7344 365.7469,52.7344 Q366.1219,52.7344 366.3563,53 Q366.5906,53.2656 366.5906,53.875 L366.5906,56.5 L358.5906,56.5 Q357.9656,56.5 357.7078,56.2656 Q357.45,56.0313 357.45,55.6406 Q357.45,55.2656 357.7156,55.0313 Q357.9813,54.7969 358.5906,54.7969 L358.8563,54.7969 L358.8563,48.1406 L358.5906,48.1406 Q357.9656,48.1406 357.7078,47.9063 Q357.45,47.6719 357.45,47.2813 Q357.45,46.9063 357.7078,46.6719 Q357.9656,46.4375 358.5906,46.4375 L366.2156,46.4375 L366.2156,49.0313 Q366.2156,49.6406 365.9891,49.8984 Q365.7625,50.1563 365.3719,50.1563 Q364.9969,50.1563 364.7625,49.8984 Q364.5281,49.6406 364.5281,49.0313 L364.5281,48.1406 L360.5594,48.1406 L360.5594,50.5938 L362.0438,50.5938 Q362.0438,49.9375 362.1688,49.75 Q362.4344,49.3438 362.9031,49.3438 Q363.2781,49.3438 363.5125,49.6016 Q363.7469,49.8594 363.7469,50.4688 L363.7469,52.4375 Q363.7469,52.9844 363.6219,53.1719 Q363.3563,53.5625 362.9031,53.5625 Q362.4344,53.5625 362.1688,53.1563 Q362.0438,52.9688 362.0438,52.2969 L360.5594,52.2969 Z "/><text fill="#50237F" font-family="sans-serif" font-size="12" lengthAdjust="spacingAndGlyphs" textLength="39" x="378.3" y="56.4102">Source</text><line style="stroke: #000000; stroke-width: 1.5;" x1="336" x2="431" y1="67.5" y2="67.5"/><text fill="#000000" font-family="sans-serif" font-size="11" lengthAdjust="spacingAndGlyphs" textLength="36" x="341" y="82.9189">DEVICE</text><text fill="#000000" font-family="sans-serif" font-size="11" lengthAdjust="spacingAndGlyphs" textLength="85" x="341" y="96.7549">TECHNICAL_INFO</text><line style="stroke: #000000; stroke-width: 1.5;" x1="336" x2="431" y1="103.1719" y2="103.1719"/><!--class Type--><rect fill="#F5F5F5" filter="url(#fetg6qpzcvyga)" height="103.3438" id="Type" style="stroke: #000000; stroke-width: 1.5;" width="97" x="467" y="22"/><ellipse cx="499.55" cy="38" fill="#FFFFFF" rx="11" ry="11" style="stroke: #000000; stroke-width: 1.0;"/><path d="M498.4094,38.7969 L498.4094,41.2969 L502.7375,41.2969 L502.7375,40.375 Q502.7375,39.7656 502.9797,39.5 Q503.2219,39.2344 503.5969,39.2344 Q503.9719,39.2344 504.2063,39.5 Q504.4406,39.7656 504.4406,40.375 L504.4406,43 L496.4406,43 Q495.8156,43 495.5578,42.7656 Q495.3,42.5313 495.3,42.1406 Q495.3,41.7656 495.5656,41.5313 Q495.8313,41.2969 496.4406,41.2969 L496.7063,41.2969 L496.7063,34.6406 L496.4406,34.6406 Q495.8156,34.6406 495.5578,34.4063 Q495.3,34.1719 495.3,33.7813 Q495.3,33.4063 495.5578,33.1719 Q495.8156,32.9375 496.4406,32.9375 L504.0656,32.9375 L504.0656,35.5313 Q504.0656,36.1406 503.8391,36.3984 Q503.6125,36.6563 503.2219,36.6563 Q502.8469,36.6563 502.6125,36.3984 Q502.3781,36.1406 502.3781,35.5313 L502.3781,34.6406 L498.4094,34.6406 L498.4094,37.0938 L499.8938,37.0938 Q499.8938,36.4375 500.0188,36.25 Q500.2844,35.8438 500.7531,35.8438 Q501.1281,35.8438 501.3625,36.1016 Q501.5969,36.3594 501.5969,36.9688 L501.5969,38.9375 Q501.5969,39.4844 501.4719,39.6719 Q501.2063,40.0625 500.7531,40.0625 Q500.2844,40.0625 500.0188,39.6563 Q499.8938,39.4688 499.8938,38.7969 L498.4094,38.7969 Z "/><text fill="#50237F" font-family="sans-serif" font-size="12" lengthAdjust="spacingAndGlyphs" textLength="26" x="517.45" y="42.9102">Type</text><line style="stroke: #000000; stroke-width: 1.5;" x1="468" x2="563" y1="54" y2="54"/><text fill="#000000" font-family="sans-serif" font-size="11" lengthAdjust="spacingAndGlyphs" textLength="85" x="473" y="69.4189">TECHNICAL_INFO</text><text fill="#000000" font-family="sans-serif" font-size="11" lengthAdjust="spacingAndGlyphs" textLength="49" x="473" y="83.2549">WARNING</text><text fill="#000000" font-family="sans-serif" font-size="11" lengthAdjust="spacingAndGlyphs" textLength="35" x="473" y="97.0908">ERROR</text><text fill="#000000" font-family="sans-serif" font-size="11" lengthAdjust="spacingAndGlyphs" textLength="53" x="473" y="110.9268">UNKNOWN</text><line style="stroke: #000000; stroke-width: 1.5;" x1="468" x2="563" y1="117.3438" y2="117.3438"/><!--link MessagePayload to Device--><path d="M644.472,115.143 C629.058,156.831 605.105,221.615 588.883,265.487 " fill="none" id="MessagePayload-Device" style="stroke: #000000; stroke-width: 1.0;"/><!--link MessagePayload to Message--><path d="M678.878,127.512 C688.492,153.813 700.405,186.401 711.541,216.864 " fill="none" id="MessagePayload-Message" style="stroke: #000000; stroke-width: 1.0;"/><polygon fill="#FFFFFF" points="674.357,115.143,672.6599,122.1515,678.4765,126.4137,680.1737,119.4052,674.357,115.143" style="stroke: #000000; stroke-width: 1.0;"/><text fill="#000000" font-family="sans-serif" font-size="13" lengthAdjust="spacingAndGlyphs" textLength="60" x="700.5" y="183.4951">Messages</text><text fill="#000000" font-family="sans-serif" font-size="13" lengthAdjust="spacingAndGlyphs" textLength="7" x="669.0251" y="135.9845">1</text><text fill="#000000" font-family="sans-serif" font-size="13" lengthAdjust="spacingAndGlyphs" textLength="20" x="687.9583" y="206.0234">1..*</text><!--link ValueType to Severity--><!--link Severity to State--><!--link Source to Type--><rect fill="#FFFFFF" height="127" rx="5" ry="5" style="stroke: #FFFFFF; stroke-width: 1.0;" width="301" x="560" y="428"/><svg x="566" y="433">	<rect x=".5" y=".5" width="288" height="116.58" rx="5" ry="5" fill="#f5f5f5" stroke="#50237f"/>	<text transform="translate(-504.5 -714.76)" x="514" y="731.38092" fill="#000000" font-family="sans-serif" font-size="10px" font-weight="bold" lengthAdjust="spacingAndGlyphs" textLength="36">Symbol</text>	<text transform="translate(-504.5 -714.76)" x="556" y="731.38092" fill="#000000" font-family="sans-serif" font-size="10px" font-weight="bold" lengthAdjust="spacingAndGlyphs" textLength="28">Name</text>	<text transform="translate(-504.5 -714.76)" x="637" y="731.38092" fill="#000000" font-family="sans-serif" font-size="10px" font-weight="bold" lengthAdjust="spacingAndGlyphs" textLength="56">Description</text>	<text transform="translate(-504.5,-713.5)" x="523" y="749.38092" fill="#000000" font-family="sans-serif" font-size="10px" lengthAdjust="spacingAndGlyphs" textLength="0"/>	<text transform="translate(-504.5 -712.11)" x="556" y="743.95898" fill="#000000" font-family="sans-serif" font-size="10px" lengthAdjust="spacingAndGlyphs" textLength="24">Class</text>	<text transform="translate(-504.5 -712.11)" x="637" y="743.95898" fill="#000000" font-family="sans-serif" font-size="10px" lengthAdjust="spacingAndGlyphs" textLength="86">A complex Object</text>	<text transform="translate(-504.5,-713.5)" x="523" y="767.38092" fill="#000000" font-family="sans-serif" font-size="10px" lengthAdjust="spacingAndGlyphs" textLength="0"/>	<text transform="translate(-504.5 -712.25)" x="556" y="761.95898" fill="#000000" font-family="sans-serif" font-size="10px" lengthAdjust="spacingAndGlyphs" textLength="58">Aggregation</text>	<text transform="translate(-504.5 -712.09)" x="637" y="761.95898" fill="#000000" font-family="sans-serif" font-size="10px" lengthAdjust="spacingAndGlyphs" textLength="107">List of Objects as Array</text>	<text transform="translate(-504.5,-713.5)" x="523" y="785.38092" fill="#000000" font-family="sans-serif" font-size="10px" lengthAdjust="spacingAndGlyphs" textLength="0"/>	<text transform="translate(-504.5 -712.19)" x="556" y="779.95898" fill="#000000" font-family="sans-serif" font-size="10px" lengthAdjust="spacingAndGlyphs" textLength="59">Composition</text>	<text transform="translate(-504.5 -712.09)" x="637" y="779.95898" fill="#000000" font-family="sans-serif" font-size="10px" lengthAdjust="spacingAndGlyphs" textLength="104">List of Objects as Map</text>	<text transform="translate(-504.5,-713.5)" x="523" y="803.38092" fill="#000000" font-family="sans-serif" font-size="10px" lengthAdjust="spacingAndGlyphs" textLength="0"/>	<text transform="translate(-504.5 -712.39)" x="556" y="797.95898" fill="#000000" font-family="sans-serif" font-size="10px" lengthAdjust="spacingAndGlyphs" textLength="54">Association</text>	<text transform="translate(-504.5 -712.11)" x="637" y="797.95898" fill="#000000" font-family="sans-serif" font-size="10px" lengthAdjust="spacingAndGlyphs" textLength="126">A complex Object as child</text>	<text transform="translate(-504.5,-713.5)" x="523" y="821.38092" fill="#000000" font-family="sans-serif" font-size="10px" lengthAdjust="spacingAndGlyphs" textLength="0"/>	<text transform="translate(-504.5 -712.14)" x="556" y="815.95898" fill="#000000" font-family="sans-serif" font-size="10px" lengthAdjust="spacingAndGlyphs" textLength="69">Specialization</text>	<text transform="translate(-504.5 -712.09)" x="637" y="815.95898" fill="#000000" font-family="sans-serif" font-size="10px" lengthAdjust="spacingAndGlyphs" textLength="147">An extension of another Object</text>	<line x1="6.5" x2="282.5" y1="20.078" y2="20.078" stroke="#000"/>	<line x1="6.5" x2="282.5" y1="38.078" y2="38.078" stroke="#000"/>	<line x1="6.5" x2="282.5" y1="56.078" y2="56.078" stroke="#000"/>	<line x1="6.5" x2="282.5" y1="74.078" y2="74.078" stroke="#000"/>	<line x1="6.5" x2="282.5" y1="92.078" y2="92.078" stroke="#000"/>	<line x1="48.5" x2="48.5" y1="7.5" y2="110.08" stroke="#000"/>	<line x1="129.5" x2="129.5" y1="7.5" y2="110.08" stroke="#000"/>	<path d="m20.871 26.751h12m-11.5-3.1729h11v11h-11z" fill="none" stroke="#000" stroke-width="1px"/>	<g transform="translate(0 1.5453)" fill="none" stroke="#000">		<path d="m24.935 47.446 5.6592-5.6592" stroke-linecap="square" stroke-width="1px"/>		<rect x="20.869" y="47.512" width="4" height="3.9606" ry="0"/>		<rect x="30.774" y="39.593" width="2" height="2" ry="0"/>	</g>	<path d="m21.038 88.97 11.784-11.784" fill="none" stroke="#000" stroke-linecap="square" stroke-width="1px"/>	<g transform="translate(0 .78224)" fill="none" stroke="#000">		<path d="m25.986 93.638h6.7885v6.7885z"/>		<path d="m19.701 106.75 9.6682-9.6682" stroke-linecap="square" stroke-width="1px"/>	</g>	<g transform="translate(0 1.3665)" fill="none" stroke="#000">		<path d="m24.935 65.602 5.6592-5.6592" stroke-linecap="square" stroke-width="1px"/>		<rect x="20.869" y="65.668" width="4" height="3.9606" ry="0"/>		<rect x="30.774" y="57.795" width="2" height="2" ry="0"/>	</g></svg><!--
@startuml

skinparam class {
	BorderColor black
	FontColor #50237f
	BackgroundColor #f5f5f5
	ArrowColor black
}
hide class circle

skinparam stereotype {
	CBackgroundColor white
	EBackgroundColor white
}

skinparam legend {
	BorderColor white
	BackgroundColor white
}

class Device {
	id: String
	mode[0..1]: String
	state[0..1]: DeviceState
	additionalData[0..1]: Object
}

class Measurement {
	code[0..1]: String
	context[0..1]: ContextList
	result[0..1]: Result
	series: Series
	ts: Date
	additionalData[0..1]: Object
}

class Context {
	limits[0..1]: Limits
	namespace[0..1]: String
	type[0..1]: ValueType
	unit[0..1]: String
	additionalData[0..1]: Object
}

class Limits {
	lowerError[0..1]: Float | [Float]
	lowerWarn[0..1]: Float | [Float]
	target[0..1]:  Float | [Float]
	upperError[0..1]: Float | [Float]
	upperWarn[0..1]: Float | [Float]
}

class Series {
	time[0..1]: [Number]
	<values>[1..*]: [Boolean | Number | String]
}

class Part {
	code[0..1]: String
	id[0..1]: String
	type[0..1]: PartType
	typeId[0..1]: String
	result[0..1]: Result
	additionalData[0..1]: Object
}

enum DeviceState {
	OK
	INFO
	WARN
	ERROR
	UNKNOWN
}

enum Result {
	OK
	NOK
	UNKNOWN
}

enum PartType {
	SINGLE
	BATCH
}

enum ValueType {
	BASE64
	BOOLEAN
	NUMBER
	OTHER
	REF
	STRING
}

Measurement "1" *- - "0..1" Context : ContextList
Context "1" - - "0..*" Limits


sprite $aggregation jar:archimate/aggregation
sprite $composition jar:archimate/composition
sprite $specialisation jar:archimate/specialisation
sprite $association jar:archimate/association
sprite $object      jar:archimate/object

legend right
<img:legend.svg>
endlegend


class MessagePayload {
	content-spec : String
	device : Device
	messages : Messages
}

class Message {
	code : String
	description[0..1] : String
	hint[0..1] : String
	origin[0..1] : String
	severity[0..1] : Severity
	source[0..1] : Source
	state[0..1] : State
	title[0..1] : String
	ts : Date
	type[0..1] : Type
	additionalData[0..1]: Object
}

enum Severity {
	HIGH
	MEDIUM
	LOW
	UNKNOWN
}

enum State {
	NEW
	ENDED
}

enum Source {
	DEVICE
	TECHNICAL_INFO
}

enum Type {
	TECHNICAL_INFO
	WARNING
	ERROR
	UNKNOWN
}

MessagePayload - - Device
MessagePayload "1" o- - "1..*" Message : Messages

hide Context
hide Limits
hide Measurement
hide Part
hide PartType
hide Result
hide Series

Context "1" -left- "0..*" Limits

@enduml

PlantUML version 1.2018.01(Sun Jan 28 19:08:22 CET 2018)
(EPL source distribution)
Java Runtime: Java(TM) SE Runtime Environment
JVM: Java HotSpot(TM) 64-Bit Server VM
Java Version: 10.0.1+10
Operating System: Windows 10
OS Version: 10.0
Default Encoding: Cp1252
Language: en
Country: US
--></g></svg>