<?xml version="1.0" encoding="UTF-8" standalone="no"?><svg xmlns="http://www.w3.org/2000/svg" xmlns:xlink="http://www.w3.org/1999/xlink" contentScriptType="application/ecmascript" contentStyleType="text/css" height="372px" preserveAspectRatio="none" style="width:596px;height:372px;" version="1.1" viewBox="0 0 596 372" width="596px" zoomAndPan="magnify"><defs><filter height="300%" id="f1g37sq2ndqul2" width="300%" x="-1" y="-1"><feGaussianBlur result="blurOut" stdDeviation="2.0"/><feColorMatrix in="blurOut" result="blurOut2" type="matrix" values="0 0 0 0 0 0 0 0 0 0 0 0 0 0 0 0 0 0 .4 0"/><feOffset dx="4.0" dy="4.0" in="blurOut2" result="blurOut3"/><feBlend in="SourceGraphic" in2="blurOut3" mode="normal"/></filter></defs><g><!--class Device--><rect fill="#F5F5F5" filter="url(#f1g37sq2ndqul2)" height="89.5078" id="Device" style="stroke: #000000; stroke-width: 1.5;" width="124" x="6" y="237.5"/><ellipse cx="45.75" cy="253.5" fill="#FFFFFF" rx="11" ry="11" style="stroke: #000000; stroke-width: 1.0;"/><path d="M48.5156,249.375 Q48.6719,249.1563 48.8594,249.0469 Q49.0469,248.9375 49.2656,248.9375 Q49.6406,248.9375 49.875,249.1953 Q50.1094,249.4531 50.1094,250.0625 L50.1094,251.5156 Q50.1094,252.125 49.875,252.3906 Q49.6406,252.6563 49.2656,252.6563 Q48.9219,252.6563 48.7188,252.4531 Q48.5156,252.2656 48.4063,251.75 Q48.3594,251.3906 48.1719,251.2031 Q47.8438,250.8281 47.2344,250.6094 Q46.625,250.3906 46,250.3906 Q45.2344,250.3906 44.6016,250.7188 Q43.9688,251.0469 43.4766,251.7969 Q42.9844,252.5469 42.9844,253.5781 L42.9844,254.6719 Q42.9844,255.9063 43.875,256.7266 Q44.7656,257.5469 46.3594,257.5469 Q47.2969,257.5469 47.9531,257.2969 Q48.3438,257.1406 48.7656,256.7031 Q49.0313,256.4375 49.1797,256.3594 Q49.3281,256.2813 49.5313,256.2813 Q49.8594,256.2813 50.1172,256.5391 Q50.375,256.7969 50.375,257.1406 Q50.375,257.4844 50.0313,257.8906 Q49.5313,258.4688 48.7344,258.7969 Q47.6563,259.25 46.3594,259.25 Q44.8438,259.25 43.6406,258.625 Q42.6563,258.125 41.9688,257.0547 Q41.2813,255.9844 41.2813,254.7031 L41.2813,253.5469 Q41.2813,252.2188 41.8984,251.0703 Q42.5156,249.9219 43.6094,249.3047 Q44.7031,248.6875 45.9375,248.6875 Q46.6719,248.6875 47.3203,248.8516 Q47.9688,249.0156 48.5156,249.375 Z "/><text fill="#50237F" font-family="sans-serif" font-size="12" lengthAdjust="spacingAndGlyphs" textLength="37" x="65.25" y="258.4102">Device</text><line style="stroke: #000000; stroke-width: 1.5;" x1="7" x2="129" y1="269.5" y2="269.5"/><text fill="#000000" font-family="sans-serif" font-size="11" lengthAdjust="spacingAndGlyphs" textLength="42" x="12" y="284.9189">id: String</text><text fill="#000000" font-family="sans-serif" font-size="11" lengthAdjust="spacingAndGlyphs" textLength="84" x="12" y="298.7549">mode[0..1]: String</text><text fill="#000000" font-family="sans-serif" font-size="11" lengthAdjust="spacingAndGlyphs" textLength="112" x="12" y="312.5908">state[0..1]: DeviceState</text><line style="stroke: #000000; stroke-width: 1.5;" x1="7" x2="129" y1="319.0078" y2="319.0078"/><!--class DeviceState--><rect fill="#F5F5F5" filter="url(#f1g37sq2ndqul2)" height="117.1797" id="DeviceState" style="stroke: #000000; stroke-width: 1.5;" width="97" x="246.5" y="8"/><ellipse cx="261.5" cy="24" fill="#FFFFFF" rx="11" ry="11" style="stroke: #000000; stroke-width: 1.0;"/><path d="M260.3594,24.7969 L260.3594,27.2969 L264.6875,27.2969 L264.6875,26.375 Q264.6875,25.7656 264.9297,25.5 Q265.1719,25.2344 265.5469,25.2344 Q265.9219,25.2344 266.1563,25.5 Q266.3906,25.7656 266.3906,26.375 L266.3906,29 L258.3906,29 Q257.7656,29 257.5078,28.7656 Q257.25,28.5313 257.25,28.1406 Q257.25,27.7656 257.5156,27.5313 Q257.7813,27.2969 258.3906,27.2969 L258.6563,27.2969 L258.6563,20.6406 L258.3906,20.6406 Q257.7656,20.6406 257.5078,20.4063 Q257.25,20.1719 257.25,19.7813 Q257.25,19.4063 257.5078,19.1719 Q257.7656,18.9375 258.3906,18.9375 L266.0156,18.9375 L266.0156,21.5313 Q266.0156,22.1406 265.7891,22.3984 Q265.5625,22.6563 265.1719,22.6563 Q264.7969,22.6563 264.5625,22.3984 Q264.3281,22.1406 264.3281,21.5313 L264.3281,20.6406 L260.3594,20.6406 L260.3594,23.0938 L261.8438,23.0938 Q261.8438,22.4375 261.9688,22.25 Q262.2344,21.8438 262.7031,21.8438 Q263.0781,21.8438 263.3125,22.1016 Q263.5469,22.3594 263.5469,22.9688 L263.5469,24.9375 Q263.5469,25.4844 263.4219,25.6719 Q263.1563,26.0625 262.7031,26.0625 Q262.2344,26.0625 261.9688,25.6563 Q261.8438,25.4688 261.8438,24.7969 L260.3594,24.7969 Z "/><text fill="#50237F" font-family="sans-serif" font-size="12" lengthAdjust="spacingAndGlyphs" textLength="65" x="275.5" y="28.9102">DeviceState</text><line style="stroke: #000000; stroke-width: 1.5;" x1="247.5" x2="342.5" y1="40" y2="40"/><text fill="#000000" font-family="sans-serif" font-size="11" lengthAdjust="spacingAndGlyphs" textLength="15" x="252.5" y="55.4189">OK</text><text fill="#000000" font-family="sans-serif" font-size="11" lengthAdjust="spacingAndGlyphs" textLength="23" x="252.5" y="69.2549">INFO</text><text fill="#000000" font-family="sans-serif" font-size="11" lengthAdjust="spacingAndGlyphs" textLength="32" x="252.5" y="83.0908">WARN</text><text fill="#000000" font-family="sans-serif" font-size="11" lengthAdjust="spacingAndGlyphs" textLength="35" x="252.5" y="96.9268">ERROR</text><text fill="#000000" font-family="sans-serif" font-size="11" lengthAdjust="spacingAndGlyphs" textLength="53" x="252.5" y="110.7627">UNKNOWN</text><line style="stroke: #000000; stroke-width: 1.5;" x1="247.5" x2="342.5" y1="117.1797" y2="117.1797"/><!--class MessagePayload--><rect fill="#F5F5F5" filter="url(#f1g37sq2ndqul2)" height="89.5078" id="MessagePayload" style="stroke: #000000; stroke-width: 1.5;" width="127" x="84.5" y="21.5"/><ellipse cx="99.5" cy="37.5" fill="#FFFFFF" rx="11" ry="11" style="stroke: #000000; stroke-width: 1.0;"/><path d="M102.2656,33.375 Q102.4219,33.1563 102.6094,33.0469 Q102.7969,32.9375 103.0156,32.9375 Q103.3906,32.9375 103.625,33.1953 Q103.8594,33.4531 103.8594,34.0625 L103.8594,35.5156 Q103.8594,36.125 103.625,36.3906 Q103.3906,36.6563 103.0156,36.6563 Q102.6719,36.6563 102.4688,36.4531 Q102.2656,36.2656 102.1563,35.75 Q102.1094,35.3906 101.9219,35.2031 Q101.5938,34.8281 100.9844,34.6094 Q100.375,34.3906 99.75,34.3906 Q98.9844,34.3906 98.3516,34.7188 Q97.7188,35.0469 97.2266,35.7969 Q96.7344,36.5469 96.7344,37.5781 L96.7344,38.6719 Q96.7344,39.9063 97.625,40.7266 Q98.5156,41.5469 100.1094,41.5469 Q101.0469,41.5469 101.7031,41.2969 Q102.0938,41.1406 102.5156,40.7031 Q102.7813,40.4375 102.9297,40.3594 Q103.0781,40.2813 103.2813,40.2813 Q103.6094,40.2813 103.8672,40.5391 Q104.125,40.7969 104.125,41.1406 Q104.125,41.4844 103.7813,41.8906 Q103.2813,42.4688 102.4844,42.7969 Q101.4063,43.25 100.1094,43.25 Q98.5938,43.25 97.3906,42.625 Q96.4063,42.125 95.7188,41.0547 Q95.0313,39.9844 95.0313,38.7031 L95.0313,37.5469 Q95.0313,36.2188 95.6484,35.0703 Q96.2656,33.9219 97.3594,33.3047 Q98.4531,32.6875 99.6875,32.6875 Q100.4219,32.6875 101.0703,32.8516 Q101.7188,33.0156 102.2656,33.375 Z "/><text fill="#50237F" font-family="sans-serif" font-size="12" lengthAdjust="spacingAndGlyphs" textLength="95" x="113.5" y="42.4102">MessagePayload</text><line style="stroke: #000000; stroke-width: 1.5;" x1="85.5" x2="210.5" y1="53.5" y2="53.5"/><text fill="#000000" font-family="sans-serif" font-size="11" lengthAdjust="spacingAndGlyphs" textLength="101" x="90.5" y="68.9189">content-spec : String</text><text fill="#000000" font-family="sans-serif" font-size="11" lengthAdjust="spacingAndGlyphs" textLength="74" x="90.5" y="82.7549">device : Device</text><text fill="#000000" font-family="sans-serif" font-size="11" lengthAdjust="spacingAndGlyphs" textLength="109" x="90.5" y="96.5908">messages : Messages</text><line style="stroke: #000000; stroke-width: 1.5;" x1="85.5" x2="210.5" y1="103.0078" y2="103.0078"/><!--class Message--><rect fill="#F5F5F5" filter="url(#f1g37sq2ndqul2)" height="158.6875" id="Message" style="stroke: #000000; stroke-width: 1.5;" width="126" x="165" y="203"/><ellipse cx="199.35" cy="219" fill="#FFFFFF" rx="11" ry="11" style="stroke: #000000; stroke-width: 1.0;"/><path d="M202.1156,214.875 Q202.2719,214.6563 202.4594,214.5469 Q202.6469,214.4375 202.8656,214.4375 Q203.2406,214.4375 203.475,214.6953 Q203.7094,214.9531 203.7094,215.5625 L203.7094,217.0156 Q203.7094,217.625 203.475,217.8906 Q203.2406,218.1563 202.8656,218.1563 Q202.5219,218.1563 202.3188,217.9531 Q202.1156,217.7656 202.0063,217.25 Q201.9594,216.8906 201.7719,216.7031 Q201.4438,216.3281 200.8344,216.1094 Q200.225,215.8906 199.6,215.8906 Q198.8344,215.8906 198.2016,216.2188 Q197.5688,216.5469 197.0766,217.2969 Q196.5844,218.0469 196.5844,219.0781 L196.5844,220.1719 Q196.5844,221.4063 197.475,222.2266 Q198.3656,223.0469 199.9594,223.0469 Q200.8969,223.0469 201.5531,222.7969 Q201.9438,222.6406 202.3656,222.2031 Q202.6313,221.9375 202.7797,221.8594 Q202.9281,221.7813 203.1313,221.7813 Q203.4594,221.7813 203.7172,222.0391 Q203.975,222.2969 203.975,222.6406 Q203.975,222.9844 203.6313,223.3906 Q203.1313,223.9688 202.3344,224.2969 Q201.2563,224.75 199.9594,224.75 Q198.4438,224.75 197.2406,224.125 Q196.2563,223.625 195.5688,222.5547 Q194.8813,221.4844 194.8813,220.2031 L194.8813,219.0469 Q194.8813,217.7188 195.4984,216.5703 Q196.1156,215.4219 197.2094,214.8047 Q198.3031,214.1875 199.5375,214.1875 Q200.2719,214.1875 200.9203,214.3516 Q201.5688,214.5156 202.1156,214.875 Z "/><text fill="#50237F" font-family="sans-serif" font-size="12" lengthAdjust="spacingAndGlyphs" textLength="51" x="217.65" y="223.9102">Message</text><line style="stroke: #000000; stroke-width: 1.5;" x1="166" x2="290" y1="235" y2="235"/><text fill="#000000" font-family="sans-serif" font-size="11" lengthAdjust="spacingAndGlyphs" textLength="61" x="171" y="250.4189">code : String</text><text fill="#000000" font-family="sans-serif" font-size="11" lengthAdjust="spacingAndGlyphs" textLength="114" x="171" y="264.2549">description[0..1] : String</text><text fill="#000000" font-family="sans-serif" font-size="11" lengthAdjust="spacingAndGlyphs" textLength="78" x="171" y="278.0908">hint[0..1] : String</text><text fill="#000000" font-family="sans-serif" font-size="11" lengthAdjust="spacingAndGlyphs" textLength="87" x="171" y="291.9268">origin[0..1] : String</text><text fill="#000000" font-family="sans-serif" font-size="11" lengthAdjust="spacingAndGlyphs" textLength="112" x="171" y="305.7627">severity[0..1] : Severity</text><text fill="#000000" font-family="sans-serif" font-size="11" lengthAdjust="spacingAndGlyphs" textLength="77" x="171" y="319.5986">title[0..1] : String</text><text fill="#000000" font-family="sans-serif" font-size="11" lengthAdjust="spacingAndGlyphs" textLength="40" x="171" y="333.4346">ts : Date</text><text fill="#000000" font-family="sans-serif" font-size="11" lengthAdjust="spacingAndGlyphs" textLength="78" x="171" y="347.2705">type[0..1] : Type</text><line style="stroke: #000000; stroke-width: 1.5;" x1="166" x2="290" y1="353.6875" y2="353.6875"/><!--class Type--><rect fill="#F5F5F5" filter="url(#f1g37sq2ndqul2)" height="75.6719" id="Type" style="stroke: #000000; stroke-width: 1.5;" width="97" x="378.5" y="28.5"/><ellipse cx="411.05" cy="44.5" fill="#FFFFFF" rx="11" ry="11" style="stroke: #000000; stroke-width: 1.0;"/><path d="M409.9094,45.2969 L409.9094,47.7969 L414.2375,47.7969 L414.2375,46.875 Q414.2375,46.2656 414.4797,46 Q414.7219,45.7344 415.0969,45.7344 Q415.4719,45.7344 415.7063,46 Q415.9406,46.2656 415.9406,46.875 L415.9406,49.5 L407.9406,49.5 Q407.3156,49.5 407.0578,49.2656 Q406.8,49.0313 406.8,48.6406 Q406.8,48.2656 407.0656,48.0313 Q407.3313,47.7969 407.9406,47.7969 L408.2063,47.7969 L408.2063,41.1406 L407.9406,41.1406 Q407.3156,41.1406 407.0578,40.9063 Q406.8,40.6719 406.8,40.2813 Q406.8,39.9063 407.0578,39.6719 Q407.3156,39.4375 407.9406,39.4375 L415.5656,39.4375 L415.5656,42.0313 Q415.5656,42.6406 415.3391,42.8984 Q415.1125,43.1563 414.7219,43.1563 Q414.3469,43.1563 414.1125,42.8984 Q413.8781,42.6406 413.8781,42.0313 L413.8781,41.1406 L409.9094,41.1406 L409.9094,43.5938 L411.3938,43.5938 Q411.3938,42.9375 411.5188,42.75 Q411.7844,42.3438 412.2531,42.3438 Q412.6281,42.3438 412.8625,42.6016 Q413.0969,42.8594 413.0969,43.4688 L413.0969,45.4375 Q413.0969,45.9844 412.9719,46.1719 Q412.7063,46.5625 412.2531,46.5625 Q411.7844,46.5625 411.5188,46.1563 Q411.3938,45.9688 411.3938,45.2969 L409.9094,45.2969 Z "/><text fill="#50237F" font-family="sans-serif" font-size="12" lengthAdjust="spacingAndGlyphs" textLength="26" x="428.95" y="49.4102">Type</text><line style="stroke: #000000; stroke-width: 1.5;" x1="379.5" x2="474.5" y1="60.5" y2="60.5"/><text fill="#000000" font-family="sans-serif" font-size="11" lengthAdjust="spacingAndGlyphs" textLength="36" x="384.5" y="75.9189">DEVICE</text><text fill="#000000" font-family="sans-serif" font-size="11" lengthAdjust="spacingAndGlyphs" textLength="85" x="384.5" y="89.7549">TECHNICAL_INFO</text><line style="stroke: #000000; stroke-width: 1.5;" x1="379.5" x2="474.5" y1="96.1719" y2="96.1719"/><!--class Severity--><rect fill="#F5F5F5" filter="url(#f1g37sq2ndqul2)" height="103.3438" id="Severity" style="stroke: #000000; stroke-width: 1.5;" width="74" x="511" y="15"/><ellipse cx="526" cy="31" fill="#FFFFFF" rx="11" ry="11" style="stroke: #000000; stroke-width: 1.0;"/><path d="M524.8594,31.7969 L524.8594,34.2969 L529.1875,34.2969 L529.1875,33.375 Q529.1875,32.7656 529.4297,32.5 Q529.6719,32.2344 530.0469,32.2344 Q530.4219,32.2344 530.6563,32.5 Q530.8906,32.7656 530.8906,33.375 L530.8906,36 L522.8906,36 Q522.2656,36 522.0078,35.7656 Q521.75,35.5313 521.75,35.1406 Q521.75,34.7656 522.0156,34.5313 Q522.2813,34.2969 522.8906,34.2969 L523.1563,34.2969 L523.1563,27.6406 L522.8906,27.6406 Q522.2656,27.6406 522.0078,27.4063 Q521.75,27.1719 521.75,26.7813 Q521.75,26.4063 522.0078,26.1719 Q522.2656,25.9375 522.8906,25.9375 L530.5156,25.9375 L530.5156,28.5313 Q530.5156,29.1406 530.2891,29.3984 Q530.0625,29.6563 529.6719,29.6563 Q529.2969,29.6563 529.0625,29.3984 Q528.8281,29.1406 528.8281,28.5313 L528.8281,27.6406 L524.8594,27.6406 L524.8594,30.0938 L526.3438,30.0938 Q526.3438,29.4375 526.4688,29.25 Q526.7344,28.8438 527.2031,28.8438 Q527.5781,28.8438 527.8125,29.1016 Q528.0469,29.3594 528.0469,29.9688 L528.0469,31.9375 Q528.0469,32.4844 527.9219,32.6719 Q527.6563,33.0625 527.2031,33.0625 Q526.7344,33.0625 526.4688,32.6563 Q526.3438,32.4688 526.3438,31.7969 L524.8594,31.7969 Z "/><text fill="#50237F" font-family="sans-serif" font-size="12" lengthAdjust="spacingAndGlyphs" textLength="42" x="540" y="35.9102">Severity</text><line style="stroke: #000000; stroke-width: 1.5;" x1="512" x2="584" y1="47" y2="47"/><text fill="#000000" font-family="sans-serif" font-size="11" lengthAdjust="spacingAndGlyphs" textLength="24" x="517" y="62.4189">HIGH</text><text fill="#000000" font-family="sans-serif" font-size="11" lengthAdjust="spacingAndGlyphs" textLength="38" x="517" y="76.2549">MEDIUM</text><text fill="#000000" font-family="sans-serif" font-size="11" lengthAdjust="spacingAndGlyphs" textLength="24" x="517" y="90.0908">LOW</text><text fill="#000000" font-family="sans-serif" font-size="11" lengthAdjust="spacingAndGlyphs" textLength="53" x="517" y="103.9268">UNKNOWN</text><line style="stroke: #000000; stroke-width: 1.5;" x1="512" x2="584" y1="110.3438" y2="110.3438"/><!--link MessagePayload to Device--><path d="M131.521,111.581 C117.753,148.41 98.2195,200.663 84.4577,237.476 " fill="none" id="MessagePayload-Device" style="stroke: #000000; stroke-width: 1.0;"/><!--link MessagePayload to Message--><path d="M169.039,123.779 C178.078,147.959 188.798,176.635 198.602,202.861 " fill="none" id="MessagePayload-Message" style="stroke: #000000; stroke-width: 1.0;"/><polygon fill="#FFFFFF" points="164.479,111.581,162.8336,118.6019,168.6815,122.8211,170.3269,115.8002,164.479,111.581" style="stroke: #000000; stroke-width: 1.0;"/><text fill="#000000" font-family="sans-serif" font-size="13" lengthAdjust="spacingAndGlyphs" textLength="60" x="187" y="169.4951">Messages</text><text fill="#000000" font-family="sans-serif" font-size="13" lengthAdjust="spacingAndGlyphs" textLength="7" x="159.3042" y="132.6">1</text><text fill="#000000" font-family="sans-serif" font-size="13" lengthAdjust="spacingAndGlyphs" textLength="20" x="174.8469" y="192.0347">1..*</text><!--
@startuml

skinparam class {
	BorderColor black
	FontColor #50237f
	BackgroundColor #f5f5f5
	ArrowColor black
}
skinparam stereotype{
	CBackgroundColor white
	EBackgroundColor white
}

class Device {
	id: String
	mode[0..1]: String
	state[0..1]: DeviceState
}

class Measurement {
	code[0..1]: String
	context[0..1]: ContextList
	result[0..1]: Result
	series: Series
	ts: Date
}

class Context {
	accuracy[0..1]: Float | [Float]
	limits[0..1]: Limits
	offset[0..1]: Float | [Float]
	type[0..1]: String
	unit[0..1]: String
}

class Limits {
	lowerError[0..1]: Float | [Float]
	lowerWarn[0..1]: Float | [Float]
	target[0..1]:  Float | [Float]
	upperError[0..1]: Float | [Float]
	upperWarn[0..1]: Float | [Float]
}

class Series {
	time: [Integer]
	<values>[1..*]: [Float]
}

class Part {
	code[0..1]: String
	id[0..1]: String
	type[0..1]: PartType
	typeId[0..1]: String
	result[0..1]: Result
}

enum DeviceState {
	OK
	INFO
	WARN
	ERROR
	UNKNOWN
}

enum Result {
	OK
	NOK
	UNKNOWN
}

enum PartType {
	SINGLE
	BATCH
}

Measurement "1" *- - "0..1" Context : ContextList
Context "1" *- - "0..*" Limits


skinparam class {
	BorderColor black
	FontColor #50237f
	BackgroundColor #f5f5f5
	ArrowColor black
}
skinparam stereotype{
	CBackgroundColor white
	EBackgroundColor white
}

class MessagePayload {
	content-spec : String
	device : Device
	messages : Messages
}

class Message {
	code : String
	description[0..1] : String
	hint[0..1] : String
	origin[0..1] : String
	severity[0..1] : Severity
	title[0..1] : String
	ts : Date
	type[0..1] : Type
}

enum Type {
	DEVICE
	TECHNICAL_INFO
}

enum Severity {
	HIGH
	MEDIUM
	LOW
	UNKNOWN
}

MessagePayload - - Device
MessagePayload "1" o- - "1..*" Message : Messages

hide Context
hide Limits
hide Measurement
hide Part
hide PartType
hide Result
hide Series

@enduml

PlantUML version 1.2018.01(Sun Jan 28 19:08:22 CET 2018)
(EPL source distribution)
Java Runtime: Java(TM) SE Runtime Environment
JVM: Java HotSpot(TM) 64-Bit Server VM
Java Version: 9.0.4+11
Operating System: Windows 10
OS Version: 10.0
Default Encoding: Cp1252
Language: en
Country: US
--></g></svg>