<?xml version="1.0" encoding="UTF-8" standalone="no"?><svg xmlns="http://www.w3.org/2000/svg" xmlns:xlink="http://www.w3.org/1999/xlink" contentScriptType="application/ecmascript" contentStyleType="text/css" height="525px" preserveAspectRatio="none" style="width:638px;height:525px;" version="1.1" viewBox="0 0 638 525" width="638px" zoomAndPan="magnify"><defs><filter height="300%" id="f13giwxrfomr5x" width="300%" x="-1" y="-1"><feGaussianBlur result="blurOut" stdDeviation="2.0"/><feColorMatrix in="blurOut" result="blurOut2" type="matrix" values="0 0 0 0 0 0 0 0 0 0 0 0 0 0 0 0 0 0 .4 0"/><feOffset dx="4.0" dy="4.0" in="blurOut2" result="blurOut3"/><feBlend in="SourceGraphic" in2="blurOut3" mode="normal"/></filter></defs><g><!--class Device--><rect fill="#F5F5F5" filter="url(#f13giwxrfomr5x)" height="96.4375" id="Device" style="stroke: #000000; stroke-width: 1.5;" width="167" x="6" y="238"/><text fill="#50237F" font-family="sans-serif" font-size="12" lengthAdjust="spacingAndGlyphs" textLength="37" x="71" y="255.457">Device</text><line style="stroke: #000000; stroke-width: 1.5;" x1="7" x2="172" y1="263.0938" y2="263.0938"/><text fill="#000000" font-family="sans-serif" font-size="11" lengthAdjust="spacingAndGlyphs" textLength="42" x="12" y="278.5127">id: String</text><text fill="#000000" font-family="sans-serif" font-size="11" lengthAdjust="spacingAndGlyphs" textLength="84" x="12" y="292.3486">mode[0..1]: String</text><text fill="#000000" font-family="sans-serif" font-size="11" lengthAdjust="spacingAndGlyphs" textLength="112" x="12" y="306.1846">state[0..1]: DeviceState</text><text fill="#000000" font-family="sans-serif" font-size="11" lengthAdjust="spacingAndGlyphs" textLength="155" x="12" y="320.0205">additionalProperties[0..1]: Object</text><line style="stroke: #000000; stroke-width: 1.5;" x1="7" x2="172" y1="326.4375" y2="326.4375"/><!--class DeviceState--><rect fill="#F5F5F5" filter="url(#f13giwxrfomr5x)" height="117.1797" id="DeviceState" style="stroke: #000000; stroke-width: 1.5;" width="97" x="279" y="8"/><ellipse cx="294" cy="24" fill="#FFFFFF" rx="11" ry="11" style="stroke: #000000; stroke-width: 1.0;"/><path d="M292.8594,24.7969 L292.8594,27.2969 L297.1875,27.2969 L297.1875,26.375 Q297.1875,25.7656 297.4297,25.5 Q297.6719,25.2344 298.0469,25.2344 Q298.4219,25.2344 298.6563,25.5 Q298.8906,25.7656 298.8906,26.375 L298.8906,29 L290.8906,29 Q290.2656,29 290.0078,28.7656 Q289.75,28.5313 289.75,28.1406 Q289.75,27.7656 290.0156,27.5313 Q290.2813,27.2969 290.8906,27.2969 L291.1563,27.2969 L291.1563,20.6406 L290.8906,20.6406 Q290.2656,20.6406 290.0078,20.4063 Q289.75,20.1719 289.75,19.7813 Q289.75,19.4063 290.0078,19.1719 Q290.2656,18.9375 290.8906,18.9375 L298.5156,18.9375 L298.5156,21.5313 Q298.5156,22.1406 298.2891,22.3984 Q298.0625,22.6563 297.6719,22.6563 Q297.2969,22.6563 297.0625,22.3984 Q296.8281,22.1406 296.8281,21.5313 L296.8281,20.6406 L292.8594,20.6406 L292.8594,23.0938 L294.3438,23.0938 Q294.3438,22.4375 294.4688,22.25 Q294.7344,21.8438 295.2031,21.8438 Q295.5781,21.8438 295.8125,22.1016 Q296.0469,22.3594 296.0469,22.9688 L296.0469,24.9375 Q296.0469,25.4844 295.9219,25.6719 Q295.6563,26.0625 295.2031,26.0625 Q294.7344,26.0625 294.4688,25.6563 Q294.3438,25.4688 294.3438,24.7969 L292.8594,24.7969 Z "/><text fill="#50237F" font-family="sans-serif" font-size="12" lengthAdjust="spacingAndGlyphs" textLength="65" x="308" y="28.9102">DeviceState</text><line style="stroke: #000000; stroke-width: 1.5;" x1="280" x2="375" y1="40" y2="40"/><text fill="#000000" font-family="sans-serif" font-size="11" lengthAdjust="spacingAndGlyphs" textLength="15" x="285" y="55.4189">OK</text><text fill="#000000" font-family="sans-serif" font-size="11" lengthAdjust="spacingAndGlyphs" textLength="23" x="285" y="69.2549">INFO</text><text fill="#000000" font-family="sans-serif" font-size="11" lengthAdjust="spacingAndGlyphs" textLength="32" x="285" y="83.0908">WARN</text><text fill="#000000" font-family="sans-serif" font-size="11" lengthAdjust="spacingAndGlyphs" textLength="35" x="285" y="96.9268">ERROR</text><text fill="#000000" font-family="sans-serif" font-size="11" lengthAdjust="spacingAndGlyphs" textLength="53" x="285" y="110.7627">UNKNOWN</text><line style="stroke: #000000; stroke-width: 1.5;" x1="280" x2="375" y1="117.1797" y2="117.1797"/><!--class MessagePayload--><rect fill="#F5F5F5" filter="url(#f13giwxrfomr5x)" height="82.6016" id="MessagePayload" style="stroke: #000000; stroke-width: 1.5;" width="121" x="123" y="25"/><text fill="#50237F" font-family="sans-serif" font-size="12" lengthAdjust="spacingAndGlyphs" textLength="95" x="136" y="42.457">MessagePayload</text><line style="stroke: #000000; stroke-width: 1.5;" x1="124" x2="243" y1="50.0938" y2="50.0938"/><text fill="#000000" font-family="sans-serif" font-size="11" lengthAdjust="spacingAndGlyphs" textLength="101" x="129" y="65.5127">content-spec : String</text><text fill="#000000" font-family="sans-serif" font-size="11" lengthAdjust="spacingAndGlyphs" textLength="74" x="129" y="79.3486">device : Device</text><text fill="#000000" font-family="sans-serif" font-size="11" lengthAdjust="spacingAndGlyphs" textLength="109" x="129" y="93.1846">messages : Messages</text><line style="stroke: #000000; stroke-width: 1.5;" x1="124" x2="243" y1="99.6016" y2="99.6016"/><!--class Message--><rect fill="#F5F5F5" filter="url(#f13giwxrfomr5x)" height="165.6172" id="Message" style="stroke: #000000; stroke-width: 1.5;" width="140" x="208.5" y="203"/><text fill="#50237F" font-family="sans-serif" font-size="12" lengthAdjust="spacingAndGlyphs" textLength="51" x="253" y="220.457">Message</text><line style="stroke: #000000; stroke-width: 1.5;" x1="209.5" x2="347.5" y1="228.0938" y2="228.0938"/><text fill="#000000" font-family="sans-serif" font-size="11" lengthAdjust="spacingAndGlyphs" textLength="61" x="214.5" y="243.5127">code : String</text><text fill="#000000" font-family="sans-serif" font-size="11" lengthAdjust="spacingAndGlyphs" textLength="114" x="214.5" y="257.3486">description[0..1] : String</text><text fill="#000000" font-family="sans-serif" font-size="11" lengthAdjust="spacingAndGlyphs" textLength="78" x="214.5" y="271.1846">hint[0..1] : String</text><text fill="#000000" font-family="sans-serif" font-size="11" lengthAdjust="spacingAndGlyphs" textLength="87" x="214.5" y="285.0205">origin[0..1] : String</text><text fill="#000000" font-family="sans-serif" font-size="11" lengthAdjust="spacingAndGlyphs" textLength="112" x="214.5" y="298.8564">severity[0..1] : Severity</text><text fill="#000000" font-family="sans-serif" font-size="11" lengthAdjust="spacingAndGlyphs" textLength="77" x="214.5" y="312.6924">title[0..1] : String</text><text fill="#000000" font-family="sans-serif" font-size="11" lengthAdjust="spacingAndGlyphs" textLength="40" x="214.5" y="326.5283">ts : Date</text><text fill="#000000" font-family="sans-serif" font-size="11" lengthAdjust="spacingAndGlyphs" textLength="78" x="214.5" y="340.3643">type[0..1] : Type</text><text fill="#000000" font-family="sans-serif" font-size="11" lengthAdjust="spacingAndGlyphs" textLength="128" x="214.5" y="354.2002">additionalData[0..1]: Object</text><line style="stroke: #000000; stroke-width: 1.5;" x1="209.5" x2="347.5" y1="360.6172" y2="360.6172"/><!--class Type--><rect fill="#F5F5F5" filter="url(#f13giwxrfomr5x)" height="75.6719" id="Type" style="stroke: #000000; stroke-width: 1.5;" width="97" x="411" y="28.5"/><ellipse cx="443.55" cy="44.5" fill="#FFFFFF" rx="11" ry="11" style="stroke: #000000; stroke-width: 1.0;"/><path d="M442.4094,45.2969 L442.4094,47.7969 L446.7375,47.7969 L446.7375,46.875 Q446.7375,46.2656 446.9797,46 Q447.2219,45.7344 447.5969,45.7344 Q447.9719,45.7344 448.2063,46 Q448.4406,46.2656 448.4406,46.875 L448.4406,49.5 L440.4406,49.5 Q439.8156,49.5 439.5578,49.2656 Q439.3,49.0313 439.3,48.6406 Q439.3,48.2656 439.5656,48.0313 Q439.8313,47.7969 440.4406,47.7969 L440.7063,47.7969 L440.7063,41.1406 L440.4406,41.1406 Q439.8156,41.1406 439.5578,40.9063 Q439.3,40.6719 439.3,40.2813 Q439.3,39.9063 439.5578,39.6719 Q439.8156,39.4375 440.4406,39.4375 L448.0656,39.4375 L448.0656,42.0313 Q448.0656,42.6406 447.8391,42.8984 Q447.6125,43.1563 447.2219,43.1563 Q446.8469,43.1563 446.6125,42.8984 Q446.3781,42.6406 446.3781,42.0313 L446.3781,41.1406 L442.4094,41.1406 L442.4094,43.5938 L443.8938,43.5938 Q443.8938,42.9375 444.0188,42.75 Q444.2844,42.3438 444.7531,42.3438 Q445.1281,42.3438 445.3625,42.6016 Q445.5969,42.8594 445.5969,43.4688 L445.5969,45.4375 Q445.5969,45.9844 445.4719,46.1719 Q445.2063,46.5625 444.7531,46.5625 Q444.2844,46.5625 444.0188,46.1563 Q443.8938,45.9688 443.8938,45.2969 L442.4094,45.2969 Z "/><text fill="#50237F" font-family="sans-serif" font-size="12" lengthAdjust="spacingAndGlyphs" textLength="26" x="461.45" y="49.4102">Type</text><line style="stroke: #000000; stroke-width: 1.5;" x1="412" x2="507" y1="60.5" y2="60.5"/><text fill="#000000" font-family="sans-serif" font-size="11" lengthAdjust="spacingAndGlyphs" textLength="36" x="417" y="75.9189">DEVICE</text><text fill="#000000" font-family="sans-serif" font-size="11" lengthAdjust="spacingAndGlyphs" textLength="85" x="417" y="89.7549">TECHNICAL_INFO</text><line style="stroke: #000000; stroke-width: 1.5;" x1="412" x2="507" y1="96.1719" y2="96.1719"/><!--class Severity--><rect fill="#F5F5F5" filter="url(#f13giwxrfomr5x)" height="103.3438" id="Severity" style="stroke: #000000; stroke-width: 1.5;" width="74" x="543.5" y="15"/><ellipse cx="558.5" cy="31" fill="#FFFFFF" rx="11" ry="11" style="stroke: #000000; stroke-width: 1.0;"/><path d="M557.3594,31.7969 L557.3594,34.2969 L561.6875,34.2969 L561.6875,33.375 Q561.6875,32.7656 561.9297,32.5 Q562.1719,32.2344 562.5469,32.2344 Q562.9219,32.2344 563.1563,32.5 Q563.3906,32.7656 563.3906,33.375 L563.3906,36 L555.3906,36 Q554.7656,36 554.5078,35.7656 Q554.25,35.5313 554.25,35.1406 Q554.25,34.7656 554.5156,34.5313 Q554.7813,34.2969 555.3906,34.2969 L555.6563,34.2969 L555.6563,27.6406 L555.3906,27.6406 Q554.7656,27.6406 554.5078,27.4063 Q554.25,27.1719 554.25,26.7813 Q554.25,26.4063 554.5078,26.1719 Q554.7656,25.9375 555.3906,25.9375 L563.0156,25.9375 L563.0156,28.5313 Q563.0156,29.1406 562.7891,29.3984 Q562.5625,29.6563 562.1719,29.6563 Q561.7969,29.6563 561.5625,29.3984 Q561.3281,29.1406 561.3281,28.5313 L561.3281,27.6406 L557.3594,27.6406 L557.3594,30.0938 L558.8438,30.0938 Q558.8438,29.4375 558.9688,29.25 Q559.2344,28.8438 559.7031,28.8438 Q560.0781,28.8438 560.3125,29.1016 Q560.5469,29.3594 560.5469,29.9688 L560.5469,31.9375 Q560.5469,32.4844 560.4219,32.6719 Q560.1563,33.0625 559.7031,33.0625 Q559.2344,33.0625 558.9688,32.6563 Q558.8438,32.4688 558.8438,31.7969 L557.3594,31.7969 Z "/><text fill="#50237F" font-family="sans-serif" font-size="12" lengthAdjust="spacingAndGlyphs" textLength="42" x="572.5" y="35.9102">Severity</text><line style="stroke: #000000; stroke-width: 1.5;" x1="544.5" x2="616.5" y1="47" y2="47"/><text fill="#000000" font-family="sans-serif" font-size="11" lengthAdjust="spacingAndGlyphs" textLength="24" x="549.5" y="62.4189">HIGH</text><text fill="#000000" font-family="sans-serif" font-size="11" lengthAdjust="spacingAndGlyphs" textLength="38" x="549.5" y="76.2549">MEDIUM</text><text fill="#000000" font-family="sans-serif" font-size="11" lengthAdjust="spacingAndGlyphs" textLength="24" x="549.5" y="90.0908">LOW</text><text fill="#000000" font-family="sans-serif" font-size="11" lengthAdjust="spacingAndGlyphs" textLength="53" x="549.5" y="103.9268">UNKNOWN</text><line style="stroke: #000000; stroke-width: 1.5;" x1="544.5" x2="616.5" y1="110.3438" y2="110.3438"/><!--link MessagePayload to Device--><path d="M165.93,108.155 C150.041,144.918 126.645,199.054 109.928,237.734 " fill="none" id="MessagePayload-Device" style="stroke: #000000; stroke-width: 1.0;"/><!--link MessagePayload to Message--><path d="M206.519,120.201 C217.325,144.941 230.457,175.008 242.532,202.651 " fill="none" id="MessagePayload-Message" style="stroke: #000000; stroke-width: 1.0;"/><polygon fill="#FFFFFF" points="201.257,108.155,199.9928,115.2544,206.0598,119.1519,207.3241,112.0525,201.257,108.155" style="stroke: #000000; stroke-width: 1.0;"/><text fill="#000000" font-family="sans-serif" font-size="13" lengthAdjust="spacingAndGlyphs" textLength="60" x="229.5" y="169.4951">Messages</text><text fill="#000000" font-family="sans-serif" font-size="13" lengthAdjust="spacingAndGlyphs" textLength="7" x="196.351" y="128.9983">1</text><text fill="#000000" font-family="sans-serif" font-size="13" lengthAdjust="spacingAndGlyphs" textLength="20" x="218.438" y="192.043">1..*</text><rect fill="#FFFFFF" height="127" rx="5" ry="5" style="stroke: #FFFFFF; stroke-width: 1.0;" width="301" x="326" y="387"/><svg x="332" y="392">	<rect x=".5" y=".5" width="288" height="116.58" rx="5" ry="5" fill="#f5f5f5" stroke="#50237f"/>	<text transform="translate(-504.5 -714.76)" x="514" y="731.38092" fill="#000000" font-family="sans-serif" font-size="10px" font-weight="bold" lengthAdjust="spacingAndGlyphs" textLength="36">Symbol</text>	<text transform="translate(-504.5 -714.76)" x="556" y="731.38092" fill="#000000" font-family="sans-serif" font-size="10px" font-weight="bold" lengthAdjust="spacingAndGlyphs" textLength="28">Name</text>	<text transform="translate(-504.5 -714.76)" x="637" y="731.38092" fill="#000000" font-family="sans-serif" font-size="10px" font-weight="bold" lengthAdjust="spacingAndGlyphs" textLength="56">Description</text>	<text transform="translate(-504.5,-713.5)" x="523" y="749.38092" fill="#000000" font-family="sans-serif" font-size="10px" lengthAdjust="spacingAndGlyphs" textLength="0"/>	<text transform="translate(-504.5 -712.11)" x="556" y="743.95898" fill="#000000" font-family="sans-serif" font-size="10px" lengthAdjust="spacingAndGlyphs" textLength="24">Class</text>	<text transform="translate(-504.5 -712.11)" x="637" y="743.95898" fill="#000000" font-family="sans-serif" font-size="10px" lengthAdjust="spacingAndGlyphs" textLength="86">A complex Object</text>	<text transform="translate(-504.5,-713.5)" x="523" y="767.38092" fill="#000000" font-family="sans-serif" font-size="10px" lengthAdjust="spacingAndGlyphs" textLength="0"/>	<text transform="translate(-504.5 -712.25)" x="556" y="761.95898" fill="#000000" font-family="sans-serif" font-size="10px" lengthAdjust="spacingAndGlyphs" textLength="58">Aggregation</text>	<text transform="translate(-504.5 -712.09)" x="637" y="761.95898" fill="#000000" font-family="sans-serif" font-size="10px" lengthAdjust="spacingAndGlyphs" textLength="107">List of Objects as Array</text>	<text transform="translate(-504.5,-713.5)" x="523" y="785.38092" fill="#000000" font-family="sans-serif" font-size="10px" lengthAdjust="spacingAndGlyphs" textLength="0"/>	<text transform="translate(-504.5 -712.19)" x="556" y="779.95898" fill="#000000" font-family="sans-serif" font-size="10px" lengthAdjust="spacingAndGlyphs" textLength="59">Composition</text>	<text transform="translate(-504.5 -712.09)" x="637" y="779.95898" fill="#000000" font-family="sans-serif" font-size="10px" lengthAdjust="spacingAndGlyphs" textLength="104">List of Objects as Map</text>	<text transform="translate(-504.5,-713.5)" x="523" y="803.38092" fill="#000000" font-family="sans-serif" font-size="10px" lengthAdjust="spacingAndGlyphs" textLength="0"/>	<text transform="translate(-504.5 -712.39)" x="556" y="797.95898" fill="#000000" font-family="sans-serif" font-size="10px" lengthAdjust="spacingAndGlyphs" textLength="54">Association</text>	<text transform="translate(-504.5 -712.11)" x="637" y="797.95898" fill="#000000" font-family="sans-serif" font-size="10px" lengthAdjust="spacingAndGlyphs" textLength="126">A complex Object as child</text>	<text transform="translate(-504.5,-713.5)" x="523" y="821.38092" fill="#000000" font-family="sans-serif" font-size="10px" lengthAdjust="spacingAndGlyphs" textLength="0"/>	<text transform="translate(-504.5 -712.14)" x="556" y="815.95898" fill="#000000" font-family="sans-serif" font-size="10px" lengthAdjust="spacingAndGlyphs" textLength="69">Specialization</text>	<text transform="translate(-504.5 -712.09)" x="637" y="815.95898" fill="#000000" font-family="sans-serif" font-size="10px" lengthAdjust="spacingAndGlyphs" textLength="147">An extension of another Object</text>	<line x1="6.5" x2="282.5" y1="20.078" y2="20.078" stroke="#000"/>	<line x1="6.5" x2="282.5" y1="38.078" y2="38.078" stroke="#000"/>	<line x1="6.5" x2="282.5" y1="56.078" y2="56.078" stroke="#000"/>	<line x1="6.5" x2="282.5" y1="74.078" y2="74.078" stroke="#000"/>	<line x1="6.5" x2="282.5" y1="92.078" y2="92.078" stroke="#000"/>	<line x1="48.5" x2="48.5" y1="7.5" y2="110.08" stroke="#000"/>	<line x1="129.5" x2="129.5" y1="7.5" y2="110.08" stroke="#000"/>	<path d="m20.871 26.751h12m-11.5-3.1729h11v11h-11z" fill="none" stroke="#000" stroke-width="1px"/>	<g transform="translate(0 1.5453)" fill="none" stroke="#000">		<path d="m24.935 47.446 5.6592-5.6592" stroke-linecap="square" stroke-width="1px"/>		<rect x="20.869" y="47.512" width="4" height="3.9606" ry="0"/>		<rect x="30.774" y="39.593" width="2" height="2" ry="0"/>	</g>	<path d="m21.038 88.97 11.784-11.784" fill="none" stroke="#000" stroke-linecap="square" stroke-width="1px"/>	<g transform="translate(0 .78224)" fill="none" stroke="#000">		<path d="m25.986 93.638h6.7885v6.7885z"/>		<path d="m19.701 106.75 9.6682-9.6682" stroke-linecap="square" stroke-width="1px"/>	</g>	<g transform="translate(0 1.3665)" fill="none" stroke="#000">		<path d="m24.935 65.602 5.6592-5.6592" stroke-linecap="square" stroke-width="1px"/>		<rect x="20.869" y="65.668" width="4" height="3.9606" ry="0"/>		<rect x="30.774" y="57.795" width="2" height="2" ry="0"/>	</g></svg><!--
@startuml

skinparam class {
	BorderColor black
	FontColor #50237f
	BackgroundColor #f5f5f5
	ArrowColor black
}
hide class circle

skinparam stereotype {
	CBackgroundColor white
	EBackgroundColor white
}

skinparam legend {
	BorderColor white
	BackgroundColor white
}

class Device {
	id: String
	mode[0..1]: String
	state[0..1]: DeviceState
	additionalProperties[0..1]: Object
}

class Measurement {
	code[0..1]: String
	context[0..1]: ContextList
	result[0..1]: Result
	series: Series
	ts: Date
	additionalProperties[0..1]: Object
}

class Context {
	limits[0..1]: Limits
	namespace[0..1]: String
	type[0..1]: String
	unit[0..1]: String
	additionalProperties[0..1]: Object
}

class Limits {
	lowerError[0..1]: Float | [Float]
	lowerWarn[0..1]: Float | [Float]
	target[0..1]:  Float | [Float]
	upperError[0..1]: Float | [Float]
	upperWarn[0..1]: Float | [Float]
}

class Series {
	time[0..1]: [Number]
	<values>[1..*]: [Boolean | Number | String]
}

class Part {
	code[0..1]: String
	id[0..1]: String
	type[0..1]: PartType
	typeId[0..1]: String
	result[0..1]: Result
	additionalProperties[0..1]: Object
}

enum DeviceState {
	OK
	INFO
	WARN
	ERROR
	UNKNOWN
}

enum Result {
	OK
	NOK
	UNKNOWN
}

enum PartType {
	SINGLE
	BATCH
}

Measurement "1" *- - "0..1" Context : ContextList
Context "1" - - "0..*" Limits


sprite $aggregation jar:archimate/aggregation
sprite $composition jar:archimate/composition
sprite $specialisation jar:archimate/specialisation
sprite $association jar:archimate/association
sprite $object      jar:archimate/object

legend right
<img:legend.svg>
endlegend


class MessagePayload {
	content-spec : String
	device : Device
	messages : Messages
}

class Message {
	code : String
	description[0..1] : String
	hint[0..1] : String
	origin[0..1] : String
	severity[0..1] : Severity
	title[0..1] : String
	ts : Date
	type[0..1] : Type
	additionalData[0..1]: Object
}

enum Type {
	DEVICE
	TECHNICAL_INFO
}

enum Severity {
	HIGH
	MEDIUM
	LOW
	UNKNOWN
}

MessagePayload - - Device
MessagePayload "1" o- - "1..*" Message : Messages

hide Context
hide Limits
hide Measurement
hide Part
hide PartType
hide Result
hide Series

Context "1" -left- "0..*" Limits

@enduml

PlantUML version 1.2018.01(Sun Jan 28 19:08:22 CET 2018)
(EPL source distribution)
Java Runtime: Java(TM) SE Runtime Environment
JVM: Java HotSpot(TM) 64-Bit Server VM
Java Version: 10.0.1+10
Operating System: Windows 10
OS Version: 10.0
Default Encoding: Cp1252
Language: en
Country: US
--></g></svg>