<?xml version="1.0" encoding="UTF-8" standalone="no"?><svg xmlns="http://www.w3.org/2000/svg" xmlns:xlink="http://www.w3.org/1999/xlink" contentScriptType="application/ecmascript" contentStyleType="text/css" height="884px" preserveAspectRatio="none" style="width:1318px;height:884px;" version="1.1" viewBox="0 0 1318 884" width="1318px" zoomAndPan="magnify"><defs><filter height="300%" id="f2spncnz1nlpr" width="300%" x="-1" y="-1"><feGaussianBlur result="blurOut" stdDeviation="2.0"/><feColorMatrix in="blurOut" result="blurOut2" type="matrix" values="0 0 0 0 0 0 0 0 0 0 0 0 0 0 0 0 0 0 .4 0"/><feOffset dx="4.0" dy="4.0" in="blurOut2" result="blurOut3"/><feBlend in="SourceGraphic" in2="blurOut3" mode="normal"/></filter></defs><g><!--class Device--><rect fill="#F5F5F5" filter="url(#f2spncnz1nlpr)" height="96.4375" id="Device" style="stroke: #000000; stroke-width: 1.5;" width="167" x="130" y="238"/><text fill="#50237F" font-family="sans-serif" font-size="12" lengthAdjust="spacingAndGlyphs" textLength="37" x="195" y="255.457">Device</text><line style="stroke: #000000; stroke-width: 1.5;" x1="131" x2="296" y1="263.0938" y2="263.0938"/><text fill="#000000" font-family="sans-serif" font-size="11" lengthAdjust="spacingAndGlyphs" textLength="42" x="136" y="278.5127">id: String</text><text fill="#000000" font-family="sans-serif" font-size="11" lengthAdjust="spacingAndGlyphs" textLength="84" x="136" y="292.3486">mode[0..1]: String</text><text fill="#000000" font-family="sans-serif" font-size="11" lengthAdjust="spacingAndGlyphs" textLength="112" x="136" y="306.1846">state[0..1]: DeviceState</text><text fill="#000000" font-family="sans-serif" font-size="11" lengthAdjust="spacingAndGlyphs" textLength="155" x="136" y="320.0205">additionalProperties[0..1]: Object</text><line style="stroke: #000000; stroke-width: 1.5;" x1="131" x2="296" y1="326.4375" y2="326.4375"/><!--class Context--><rect fill="#F5F5F5" filter="url(#f2spncnz1nlpr)" height="110.2734" id="Context" style="stroke: #000000; stroke-width: 1.5;" width="167" x="640" y="447"/><text fill="#50237F" font-family="sans-serif" font-size="12" lengthAdjust="spacingAndGlyphs" textLength="41" x="703" y="464.457">Context</text><line style="stroke: #000000; stroke-width: 1.5;" x1="641" x2="806" y1="472.0938" y2="472.0938"/><text fill="#000000" font-family="sans-serif" font-size="11" lengthAdjust="spacingAndGlyphs" textLength="80" x="646" y="487.5127">limits[0..1]: Limits</text><text fill="#000000" font-family="sans-serif" font-size="11" lengthAdjust="spacingAndGlyphs" textLength="114" x="646" y="501.3486">namespace[0..1]: String</text><text fill="#000000" font-family="sans-serif" font-size="11" lengthAdjust="spacingAndGlyphs" textLength="79" x="646" y="515.1846">type[0..1]: String</text><text fill="#000000" font-family="sans-serif" font-size="11" lengthAdjust="spacingAndGlyphs" textLength="75" x="646" y="529.0205">unit[0..1]: String</text><text fill="#000000" font-family="sans-serif" font-size="11" lengthAdjust="spacingAndGlyphs" textLength="155" x="646" y="542.8564">additionalProperties[0..1]: Object</text><line style="stroke: #000000; stroke-width: 1.5;" x1="641" x2="806" y1="549.2734" y2="549.2734"/><!--class Limits--><rect fill="#F5F5F5" filter="url(#f2spncnz1nlpr)" height="110.2734" id="Limits" style="stroke: #000000; stroke-width: 1.5;" width="156" x="645.5" y="618"/><text fill="#50237F" font-family="sans-serif" font-size="12" lengthAdjust="spacingAndGlyphs" textLength="34" x="706.5" y="635.457">Limits</text><line style="stroke: #000000; stroke-width: 1.5;" x1="646.5" x2="800.5" y1="643.0938" y2="643.0938"/><text fill="#000000" font-family="sans-serif" font-size="11" lengthAdjust="spacingAndGlyphs" textLength="142" x="651.5" y="658.5127">lowerError[0..1]: Float | [Float]</text><text fill="#000000" font-family="sans-serif" font-size="11" lengthAdjust="spacingAndGlyphs" textLength="144" x="651.5" y="672.3486">lowerWarn[0..1]: Float | [Float]</text><text fill="#000000" font-family="sans-serif" font-size="11" lengthAdjust="spacingAndGlyphs" textLength="121" x="651.5" y="686.1846">target[0..1]:  Float | [Float]</text><text fill="#000000" font-family="sans-serif" font-size="11" lengthAdjust="spacingAndGlyphs" textLength="142" x="651.5" y="700.0205">upperError[0..1]: Float | [Float]</text><text fill="#000000" font-family="sans-serif" font-size="11" lengthAdjust="spacingAndGlyphs" textLength="144" x="651.5" y="713.8564">upperWarn[0..1]: Float | [Float]</text><line style="stroke: #000000; stroke-width: 1.5;" x1="646.5" x2="800.5" y1="720.2734" y2="720.2734"/><!--class Series--><rect fill="#F5F5F5" filter="url(#f2spncnz1nlpr)" height="68.7656" id="Series" style="stroke: #000000; stroke-width: 1.5;" width="210" x="842.5" y="467.5"/><text fill="#50237F" font-family="sans-serif" font-size="12" lengthAdjust="spacingAndGlyphs" textLength="36" x="929.5" y="484.957">Series</text><line style="stroke: #000000; stroke-width: 1.5;" x1="843.5" x2="1051.5" y1="492.5938" y2="492.5938"/><text fill="#000000" font-family="sans-serif" font-size="11" lengthAdjust="spacingAndGlyphs" textLength="92" x="848.5" y="508.0127">time[0..1]: [Number]</text><text fill="#000000" font-family="sans-serif" font-size="11" lengthAdjust="spacingAndGlyphs" textLength="198" x="848.5" y="521.8486">&lt;values&gt;[1..*]: [Boolean | Number | String]</text><line style="stroke: #000000; stroke-width: 1.5;" x1="843.5" x2="1051.5" y1="528.2656" y2="528.2656"/><!--class Part--><rect fill="#F5F5F5" filter="url(#f2spncnz1nlpr)" height="124.1094" id="Part" style="stroke: #000000; stroke-width: 1.5;" width="167" x="332" y="224"/><text fill="#50237F" font-family="sans-serif" font-size="12" lengthAdjust="spacingAndGlyphs" textLength="22" x="404.5" y="241.457">Part</text><line style="stroke: #000000; stroke-width: 1.5;" x1="333" x2="498" y1="249.0938" y2="249.0938"/><text fill="#000000" font-family="sans-serif" font-size="11" lengthAdjust="spacingAndGlyphs" textLength="82" x="338" y="264.5127">code[0..1]: String</text><text fill="#000000" font-family="sans-serif" font-size="11" lengthAdjust="spacingAndGlyphs" textLength="66" x="338" y="278.3486">id[0..1]: String</text><text fill="#000000" font-family="sans-serif" font-size="11" lengthAdjust="spacingAndGlyphs" textLength="94" x="338" y="292.1846">type[0..1]: PartType</text><text fill="#000000" font-family="sans-serif" font-size="11" lengthAdjust="spacingAndGlyphs" textLength="87" x="338" y="306.0205">typeId[0..1]: String</text><text fill="#000000" font-family="sans-serif" font-size="11" lengthAdjust="spacingAndGlyphs" textLength="87" x="338" y="319.8564">result[0..1]: Result</text><text fill="#000000" font-family="sans-serif" font-size="11" lengthAdjust="spacingAndGlyphs" textLength="155" x="338" y="333.6924">additionalProperties[0..1]: Object</text><line style="stroke: #000000; stroke-width: 1.5;" x1="333" x2="498" y1="340.1094" y2="340.1094"/><!--class DeviceState--><rect fill="#F5F5F5" filter="url(#f2spncnz1nlpr)" height="117.1797" id="DeviceState" style="stroke: #000000; stroke-width: 1.5;" width="97" x="6" y="8"/><ellipse cx="21" cy="24" fill="#FFFFFF" rx="11" ry="11" style="stroke: #000000; stroke-width: 1.0;"/><path d="M19.8594,24.7969 L19.8594,27.2969 L24.1875,27.2969 L24.1875,26.375 Q24.1875,25.7656 24.4297,25.5 Q24.6719,25.2344 25.0469,25.2344 Q25.4219,25.2344 25.6563,25.5 Q25.8906,25.7656 25.8906,26.375 L25.8906,29 L17.8906,29 Q17.2656,29 17.0078,28.7656 Q16.75,28.5313 16.75,28.1406 Q16.75,27.7656 17.0156,27.5313 Q17.2813,27.2969 17.8906,27.2969 L18.1563,27.2969 L18.1563,20.6406 L17.8906,20.6406 Q17.2656,20.6406 17.0078,20.4063 Q16.75,20.1719 16.75,19.7813 Q16.75,19.4063 17.0078,19.1719 Q17.2656,18.9375 17.8906,18.9375 L25.5156,18.9375 L25.5156,21.5313 Q25.5156,22.1406 25.2891,22.3984 Q25.0625,22.6563 24.6719,22.6563 Q24.2969,22.6563 24.0625,22.3984 Q23.8281,22.1406 23.8281,21.5313 L23.8281,20.6406 L19.8594,20.6406 L19.8594,23.0938 L21.3438,23.0938 Q21.3438,22.4375 21.4688,22.25 Q21.7344,21.8438 22.2031,21.8438 Q22.5781,21.8438 22.8125,22.1016 Q23.0469,22.3594 23.0469,22.9688 L23.0469,24.9375 Q23.0469,25.4844 22.9219,25.6719 Q22.6563,26.0625 22.2031,26.0625 Q21.7344,26.0625 21.4688,25.6563 Q21.3438,25.4688 21.3438,24.7969 L19.8594,24.7969 Z "/><text fill="#50237F" font-family="sans-serif" font-size="12" lengthAdjust="spacingAndGlyphs" textLength="65" x="35" y="28.9102">DeviceState</text><line style="stroke: #000000; stroke-width: 1.5;" x1="7" x2="102" y1="40" y2="40"/><text fill="#000000" font-family="sans-serif" font-size="11" lengthAdjust="spacingAndGlyphs" textLength="15" x="12" y="55.4189">OK</text><text fill="#000000" font-family="sans-serif" font-size="11" lengthAdjust="spacingAndGlyphs" textLength="23" x="12" y="69.2549">INFO</text><text fill="#000000" font-family="sans-serif" font-size="11" lengthAdjust="spacingAndGlyphs" textLength="32" x="12" y="83.0908">WARN</text><text fill="#000000" font-family="sans-serif" font-size="11" lengthAdjust="spacingAndGlyphs" textLength="35" x="12" y="96.9268">ERROR</text><text fill="#000000" font-family="sans-serif" font-size="11" lengthAdjust="spacingAndGlyphs" textLength="53" x="12" y="110.7627">UNKNOWN</text><line style="stroke: #000000; stroke-width: 1.5;" x1="7" x2="102" y1="117.1797" y2="117.1797"/><!--class Result--><rect fill="#F5F5F5" filter="url(#f2spncnz1nlpr)" height="89.5078" id="Result" style="stroke: #000000; stroke-width: 1.5;" width="68" x="138.5" y="21.5"/><ellipse cx="153.5" cy="37.5" fill="#FFFFFF" rx="11" ry="11" style="stroke: #000000; stroke-width: 1.0;"/><path d="M152.3594,38.2969 L152.3594,40.7969 L156.6875,40.7969 L156.6875,39.875 Q156.6875,39.2656 156.9297,39 Q157.1719,38.7344 157.5469,38.7344 Q157.9219,38.7344 158.1563,39 Q158.3906,39.2656 158.3906,39.875 L158.3906,42.5 L150.3906,42.5 Q149.7656,42.5 149.5078,42.2656 Q149.25,42.0313 149.25,41.6406 Q149.25,41.2656 149.5156,41.0313 Q149.7813,40.7969 150.3906,40.7969 L150.6563,40.7969 L150.6563,34.1406 L150.3906,34.1406 Q149.7656,34.1406 149.5078,33.9063 Q149.25,33.6719 149.25,33.2813 Q149.25,32.9063 149.5078,32.6719 Q149.7656,32.4375 150.3906,32.4375 L158.0156,32.4375 L158.0156,35.0313 Q158.0156,35.6406 157.7891,35.8984 Q157.5625,36.1563 157.1719,36.1563 Q156.7969,36.1563 156.5625,35.8984 Q156.3281,35.6406 156.3281,35.0313 L156.3281,34.1406 L152.3594,34.1406 L152.3594,36.5938 L153.8438,36.5938 Q153.8438,35.9375 153.9688,35.75 Q154.2344,35.3438 154.7031,35.3438 Q155.0781,35.3438 155.3125,35.6016 Q155.5469,35.8594 155.5469,36.4688 L155.5469,38.4375 Q155.5469,38.9844 155.4219,39.1719 Q155.1563,39.5625 154.7031,39.5625 Q154.2344,39.5625 153.9688,39.1563 Q153.8438,38.9688 153.8438,38.2969 L152.3594,38.2969 Z "/><text fill="#50237F" font-family="sans-serif" font-size="12" lengthAdjust="spacingAndGlyphs" textLength="36" x="167.5" y="42.4102">Result</text><line style="stroke: #000000; stroke-width: 1.5;" x1="139.5" x2="205.5" y1="53.5" y2="53.5"/><text fill="#000000" font-family="sans-serif" font-size="11" lengthAdjust="spacingAndGlyphs" textLength="15" x="144.5" y="68.9189">OK</text><text fill="#000000" font-family="sans-serif" font-size="11" lengthAdjust="spacingAndGlyphs" textLength="22" x="144.5" y="82.7549">NOK</text><text fill="#000000" font-family="sans-serif" font-size="11" lengthAdjust="spacingAndGlyphs" textLength="53" x="144.5" y="96.5908">UNKNOWN</text><line style="stroke: #000000; stroke-width: 1.5;" x1="139.5" x2="205.5" y1="103.0078" y2="103.0078"/><!--class PartType--><rect fill="#F5F5F5" filter="url(#f2spncnz1nlpr)" height="75.6719" id="PartType" style="stroke: #000000; stroke-width: 1.5;" width="80" x="14.5" y="248"/><ellipse cx="29.5" cy="264" fill="#FFFFFF" rx="11" ry="11" style="stroke: #000000; stroke-width: 1.0;"/><path d="M28.3594,264.7969 L28.3594,267.2969 L32.6875,267.2969 L32.6875,266.375 Q32.6875,265.7656 32.9297,265.5 Q33.1719,265.2344 33.5469,265.2344 Q33.9219,265.2344 34.1563,265.5 Q34.3906,265.7656 34.3906,266.375 L34.3906,269 L26.3906,269 Q25.7656,269 25.5078,268.7656 Q25.25,268.5313 25.25,268.1406 Q25.25,267.7656 25.5156,267.5313 Q25.7813,267.2969 26.3906,267.2969 L26.6563,267.2969 L26.6563,260.6406 L26.3906,260.6406 Q25.7656,260.6406 25.5078,260.4063 Q25.25,260.1719 25.25,259.7813 Q25.25,259.4063 25.5078,259.1719 Q25.7656,258.9375 26.3906,258.9375 L34.0156,258.9375 L34.0156,261.5313 Q34.0156,262.1406 33.7891,262.3984 Q33.5625,262.6563 33.1719,262.6563 Q32.7969,262.6563 32.5625,262.3984 Q32.3281,262.1406 32.3281,261.5313 L32.3281,260.6406 L28.3594,260.6406 L28.3594,263.0938 L29.8438,263.0938 Q29.8438,262.4375 29.9688,262.25 Q30.2344,261.8438 30.7031,261.8438 Q31.0781,261.8438 31.3125,262.1016 Q31.5469,262.3594 31.5469,262.9688 L31.5469,264.9375 Q31.5469,265.4844 31.4219,265.6719 Q31.1563,266.0625 30.7031,266.0625 Q30.2344,266.0625 29.9688,265.6563 Q29.8438,265.4688 29.8438,264.7969 L28.3594,264.7969 Z "/><text fill="#50237F" font-family="sans-serif" font-size="12" lengthAdjust="spacingAndGlyphs" textLength="48" x="43.5" y="268.9102">PartType</text><line style="stroke: #000000; stroke-width: 1.5;" x1="15.5" x2="93.5" y1="280" y2="280"/><text fill="#000000" font-family="sans-serif" font-size="11" lengthAdjust="spacingAndGlyphs" textLength="36" x="20.5" y="295.4189">SINGLE</text><text fill="#000000" font-family="sans-serif" font-size="11" lengthAdjust="spacingAndGlyphs" textLength="35" x="20.5" y="309.2549">BATCH</text><line style="stroke: #000000; stroke-width: 1.5;" x1="15.5" x2="93.5" y1="315.6719" y2="315.6719"/><!--class ProcessPayload--><rect fill="#F5F5F5" filter="url(#f2spncnz1nlpr)" height="110.2734" id="ProcessPayload" style="stroke: #000000; stroke-width: 1.5;" width="194" x="375.5" y="11.5"/><text fill="#50237F" font-family="sans-serif" font-size="12" lengthAdjust="spacingAndGlyphs" textLength="90" x="427.5" y="28.957">ProcessPayload</text><line style="stroke: #000000; stroke-width: 1.5;" x1="376.5" x2="568.5" y1="36.5938" y2="36.5938"/><text fill="#000000" font-family="sans-serif" font-size="11" lengthAdjust="spacingAndGlyphs" textLength="98" x="381.5" y="52.0127">content-spec: String</text><text fill="#000000" font-family="sans-serif" font-size="11" lengthAdjust="spacingAndGlyphs" textLength="71" x="381.5" y="65.8486">device: Device</text><text fill="#000000" font-family="sans-serif" font-size="11" lengthAdjust="spacingAndGlyphs" textLength="182" x="381.5" y="79.6846">measurements: ProcessMeasurement</text><text fill="#000000" font-family="sans-serif" font-size="11" lengthAdjust="spacingAndGlyphs" textLength="68" x="381.5" y="93.5205">part[0..1]: Part</text><text fill="#000000" font-family="sans-serif" font-size="11" lengthAdjust="spacingAndGlyphs" textLength="86" x="381.5" y="107.3564">process: Process</text><line style="stroke: #000000; stroke-width: 1.5;" x1="376.5" x2="568.5" y1="113.7734" y2="113.7734"/><!--class Process--><rect fill="#F5F5F5" filter="url(#f2spncnz1nlpr)" height="124.1094" id="Process" style="stroke: #000000; stroke-width: 1.5;" width="140" x="534.5" y="224"/><text fill="#50237F" font-family="sans-serif" font-size="12" lengthAdjust="spacingAndGlyphs" textLength="46" x="581.5" y="241.457">Process</text><line style="stroke: #000000; stroke-width: 1.5;" x1="535.5" x2="673.5" y1="249.0938" y2="249.0938"/><text fill="#000000" font-family="sans-serif" font-size="11" lengthAdjust="spacingAndGlyphs" textLength="105" x="540.5" y="264.5127">externalId[0..1]: String</text><text fill="#000000" font-family="sans-serif" font-size="11" lengthAdjust="spacingAndGlyphs" textLength="110" x="540.5" y="278.3486">program[0..1]: Program</text><text fill="#000000" font-family="sans-serif" font-size="11" lengthAdjust="spacingAndGlyphs" textLength="87" x="540.5" y="292.1846">result[0..1]: Result</text><text fill="#000000" font-family="sans-serif" font-size="11" lengthAdjust="spacingAndGlyphs" textLength="123" x="540.5" y="306.0205">shutoffPhase[0..1]: String</text><text fill="#000000" font-family="sans-serif" font-size="11" lengthAdjust="spacingAndGlyphs" textLength="37" x="540.5" y="319.8564">ts: Date</text><text fill="#000000" font-family="sans-serif" font-size="11" lengthAdjust="spacingAndGlyphs" textLength="128" x="540.5" y="333.6924">additionalData[0..1]: Object</text><line style="stroke: #000000; stroke-width: 1.5;" x1="535.5" x2="673.5" y1="340.1094" y2="340.1094"/><!--class ProcessMeasurement--><rect fill="#F5F5F5" filter="url(#f2spncnz1nlpr)" height="165.6172" id="ProcessMeasurement" style="stroke: #000000; stroke-width: 1.5;" width="179" x="779" y="203"/><text fill="#50237F" font-family="sans-serif" font-size="12" lengthAdjust="spacingAndGlyphs" textLength="122" x="807.5" y="220.457">ProcessMeasurement</text><line style="stroke: #000000; stroke-width: 1.5;" x1="780" x2="957" y1="228.0938" y2="228.0938"/><text fill="#000000" font-family="sans-serif" font-size="11" lengthAdjust="spacingAndGlyphs" textLength="82" x="785" y="243.5127">code[0..1]: String</text><text fill="#000000" font-family="sans-serif" font-size="11" lengthAdjust="spacingAndGlyphs" textLength="120" x="785" y="257.3486">context[0..1]: ContextList</text><text fill="#000000" font-family="sans-serif" font-size="11" lengthAdjust="spacingAndGlyphs" textLength="84" x="785" y="271.1846">name[0..1]: String</text><text fill="#000000" font-family="sans-serif" font-size="11" lengthAdjust="spacingAndGlyphs" textLength="91" x="785" y="285.0205">phase[0..1] ; String</text><text fill="#000000" font-family="sans-serif" font-size="11" lengthAdjust="spacingAndGlyphs" textLength="87" x="785" y="298.8564">result[0..1]: Result</text><text fill="#000000" font-family="sans-serif" font-size="11" lengthAdjust="spacingAndGlyphs" textLength="67" x="785" y="312.6924">series: Series</text><text fill="#000000" font-family="sans-serif" font-size="11" lengthAdjust="spacingAndGlyphs" textLength="167" x="785" y="326.5283">specialValues[0..1]: SpecialValues</text><text fill="#000000" font-family="sans-serif" font-size="11" lengthAdjust="spacingAndGlyphs" textLength="37" x="785" y="340.3643">ts: Date</text><text fill="#000000" font-family="sans-serif" font-size="11" lengthAdjust="spacingAndGlyphs" textLength="128" x="785" y="354.2002">additionalData[0..1]: Object</text><line style="stroke: #000000; stroke-width: 1.5;" x1="780" x2="957" y1="360.6172" y2="360.6172"/><!--class Program--><rect fill="#F5F5F5" filter="url(#f2spncnz1nlpr)" height="96.4375" id="Program" style="stroke: #000000; stroke-width: 1.5;" width="140" x="464.5" y="454"/><text fill="#50237F" font-family="sans-serif" font-size="12" lengthAdjust="spacingAndGlyphs" textLength="48" x="510.5" y="471.457">Program</text><line style="stroke: #000000; stroke-width: 1.5;" x1="465.5" x2="603.5" y1="479.0938" y2="479.0938"/><text fill="#000000" font-family="sans-serif" font-size="11" lengthAdjust="spacingAndGlyphs" textLength="42" x="470.5" y="494.5127">id: String</text><text fill="#000000" font-family="sans-serif" font-size="11" lengthAdjust="spacingAndGlyphs" textLength="128" x="470.5" y="508.3486">lastChangeDate[0..1]: Date</text><text fill="#000000" font-family="sans-serif" font-size="11" lengthAdjust="spacingAndGlyphs" textLength="84" x="470.5" y="522.1846">name[0..1]: String</text><text fill="#000000" font-family="sans-serif" font-size="11" lengthAdjust="spacingAndGlyphs" textLength="128" x="470.5" y="536.0205">additionalData[0..1]: Object</text><line style="stroke: #000000; stroke-width: 1.5;" x1="465.5" x2="603.5" y1="542.4375" y2="542.4375"/><!--class SpecialValue--><rect fill="#F5F5F5" filter="url(#f2spncnz1nlpr)" height="82.6016" id="SpecialValue" style="stroke: #000000; stroke-width: 1.5;" width="210" x="1087.5" y="460.5"/><text fill="#50237F" font-family="sans-serif" font-size="12" lengthAdjust="spacingAndGlyphs" textLength="72" x="1156.5" y="477.957">SpecialValue</text><line style="stroke: #000000; stroke-width: 1.5;" x1="1088.5" x2="1296.5" y1="485.5938" y2="485.5938"/><text fill="#000000" font-family="sans-serif" font-size="11" lengthAdjust="spacingAndGlyphs" textLength="86" x="1093.5" y="501.0127">time[0..1]: Number</text><text fill="#000000" font-family="sans-serif" font-size="11" lengthAdjust="spacingAndGlyphs" textLength="84" x="1093.5" y="514.8486">name[0..1]: String</text><text fill="#000000" font-family="sans-serif" font-size="11" lengthAdjust="spacingAndGlyphs" textLength="198" x="1093.5" y="528.6846">value: &lt;String, Boolean | Number | String&gt;</text><line style="stroke: #000000; stroke-width: 1.5;" x1="1088.5" x2="1296.5" y1="535.1016" y2="535.1016"/><!--link Context to Limits--><path d="M723.5,557.403 C723.5,576.798 723.5,598.626 723.5,617.988 " fill="none" id="Context-Limits" style="stroke: #000000; stroke-width: 1.0;"/><text fill="#000000" font-family="sans-serif" font-size="13" lengthAdjust="spacingAndGlyphs" textLength="7" x="716.0734" y="578.6301">1</text><text fill="#000000" font-family="sans-serif" font-size="13" lengthAdjust="spacingAndGlyphs" textLength="20" x="702.1563" y="607.0211">0..*</text><!--link ProcessPayload to Device--><path d="M408.145,121.544 C365.597,157.274 310.363,203.658 269.607,237.883 " fill="none" id="ProcessPayload-Device" style="stroke: #000000; stroke-width: 1.0;"/><!--link ProcessPayload to Part--><path d="M458.337,121.544 C450.193,152.619 439.937,191.753 431.503,223.938 " fill="none" id="ProcessPayload-Part" style="stroke: #000000; stroke-width: 1.0;"/><!--link ProcessPayload to Process--><path d="M505.299,121.544 C524.158,152.619 547.909,191.753 567.442,223.938 " fill="none" id="ProcessPayload-Process" style="stroke: #000000; stroke-width: 1.0;"/><!--link ProcessPayload to ProcessMeasurement--><path d="M581.045,127.118 C643.171,161.24 720.174,203.533 778.841,235.756 " fill="none" id="ProcessPayload-ProcessMeasurement" style="stroke: #000000; stroke-width: 1.0;"/><polygon fill="#FFFFFF" points="569.626,120.846,572.9592,127.2405,580.1438,126.6232,576.8106,120.2286,569.626,120.846" style="stroke: #000000; stroke-width: 1.0;"/><text fill="#000000" font-family="sans-serif" font-size="13" lengthAdjust="spacingAndGlyphs" textLength="86" x="659.5" y="169.4951">Measurements</text><text fill="#000000" font-family="sans-serif" font-size="13" lengthAdjust="spacingAndGlyphs" textLength="7" x="577.6446" y="122.0374">1</text><text fill="#000000" font-family="sans-serif" font-size="13" lengthAdjust="spacingAndGlyphs" textLength="20" x="750.8994" y="228.6391">0..*</text><!--link Process to Program--><path d="M584.534,348.037 C573.543,381.64 560.109,422.71 549.929,453.83 " fill="none" id="Process-Program" style="stroke: #000000; stroke-width: 1.0;"/><!--link ProcessMeasurement to Series--><path d="M898.818,369.126 C911.436,403.308 925.378,441.076 935.097,467.401 " fill="none" id="ProcessMeasurement-Series" style="stroke: #000000; stroke-width: 1.0;"/><!--link ProcessMeasurement to Context--><path d="M805.547,379.91 C790.05,402.782 773.96,426.528 760.177,446.869 " fill="none" id="ProcessMeasurement-Context" style="stroke: #000000; stroke-width: 1.0;"/><polygon fill="#000000" points="812.854,369.126,806.177,371.8495,806.1229,379.0604,812.7999,376.3369,812.854,369.126" style="stroke: #000000; stroke-width: 1.0;"/><text fill="#000000" font-family="sans-serif" font-size="13" lengthAdjust="spacingAndGlyphs" textLength="66" x="792.5" y="413.4951">ContextList</text><text fill="#000000" font-family="sans-serif" font-size="13" lengthAdjust="spacingAndGlyphs" textLength="7" x="800.956" y="390.1979">1</text><text fill="#000000" font-family="sans-serif" font-size="13" lengthAdjust="spacingAndGlyphs" textLength="22" x="741.4669" y="436.2805">0..1</text><!--link ProcessMeasurement to SpecialValue--><path d="M969.427,353.662 C1022.24,388.543 1085.19,430.125 1130.74,460.206 " fill="none" id="ProcessMeasurement-SpecialValue" style="stroke: #000000; stroke-width: 1.0;"/><polygon fill="#FFFFFF" points="958.322,346.327,961.1241,352.9714,968.3351,352.9404,965.533,346.296,958.322,346.327" style="stroke: #000000; stroke-width: 1.0;"/><text fill="#000000" font-family="sans-serif" font-size="13" lengthAdjust="spacingAndGlyphs" textLength="83" x="1060.5" y="413.4951">SpecialValues</text><text fill="#000000" font-family="sans-serif" font-size="13" lengthAdjust="spacingAndGlyphs" textLength="7" x="966.0502" y="348.1859">1</text><text fill="#000000" font-family="sans-serif" font-size="13" lengthAdjust="spacingAndGlyphs" textLength="20" x="1098.8548" y="449.5161">0..*</text><!--link DeviceState to Result--><!--link DeviceState to PartType--><rect fill="#FFFFFF" height="127" rx="5" ry="5" style="stroke: #FFFFFF; stroke-width: 1.0;" width="301" x="1006" y="746"/><svg x="1012" y="751">	<rect x=".5" y=".5" width="288" height="116.58" rx="5" ry="5" fill="#f5f5f5" stroke="#50237f"/>	<text transform="translate(-504.5 -714.76)" x="514" y="731.38092" fill="#000000" font-family="sans-serif" font-size="10px" font-weight="bold" lengthAdjust="spacingAndGlyphs" textLength="36">Symbol</text>	<text transform="translate(-504.5 -714.76)" x="556" y="731.38092" fill="#000000" font-family="sans-serif" font-size="10px" font-weight="bold" lengthAdjust="spacingAndGlyphs" textLength="28">Name</text>	<text transform="translate(-504.5 -714.76)" x="637" y="731.38092" fill="#000000" font-family="sans-serif" font-size="10px" font-weight="bold" lengthAdjust="spacingAndGlyphs" textLength="56">Description</text>	<text transform="translate(-504.5,-713.5)" x="523" y="749.38092" fill="#000000" font-family="sans-serif" font-size="10px" lengthAdjust="spacingAndGlyphs" textLength="0"/>	<text transform="translate(-504.5 -712.11)" x="556" y="743.95898" fill="#000000" font-family="sans-serif" font-size="10px" lengthAdjust="spacingAndGlyphs" textLength="24">Class</text>	<text transform="translate(-504.5 -712.11)" x="637" y="743.95898" fill="#000000" font-family="sans-serif" font-size="10px" lengthAdjust="spacingAndGlyphs" textLength="86">A complex Object</text>	<text transform="translate(-504.5,-713.5)" x="523" y="767.38092" fill="#000000" font-family="sans-serif" font-size="10px" lengthAdjust="spacingAndGlyphs" textLength="0"/>	<text transform="translate(-504.5 -712.25)" x="556" y="761.95898" fill="#000000" font-family="sans-serif" font-size="10px" lengthAdjust="spacingAndGlyphs" textLength="58">Aggregation</text>	<text transform="translate(-504.5 -712.09)" x="637" y="761.95898" fill="#000000" font-family="sans-serif" font-size="10px" lengthAdjust="spacingAndGlyphs" textLength="107">List of Objects as Array</text>	<text transform="translate(-504.5,-713.5)" x="523" y="785.38092" fill="#000000" font-family="sans-serif" font-size="10px" lengthAdjust="spacingAndGlyphs" textLength="0"/>	<text transform="translate(-504.5 -712.19)" x="556" y="779.95898" fill="#000000" font-family="sans-serif" font-size="10px" lengthAdjust="spacingAndGlyphs" textLength="59">Composition</text>	<text transform="translate(-504.5 -712.09)" x="637" y="779.95898" fill="#000000" font-family="sans-serif" font-size="10px" lengthAdjust="spacingAndGlyphs" textLength="104">List of Objects as Map</text>	<text transform="translate(-504.5,-713.5)" x="523" y="803.38092" fill="#000000" font-family="sans-serif" font-size="10px" lengthAdjust="spacingAndGlyphs" textLength="0"/>	<text transform="translate(-504.5 -712.39)" x="556" y="797.95898" fill="#000000" font-family="sans-serif" font-size="10px" lengthAdjust="spacingAndGlyphs" textLength="54">Association</text>	<text transform="translate(-504.5 -712.11)" x="637" y="797.95898" fill="#000000" font-family="sans-serif" font-size="10px" lengthAdjust="spacingAndGlyphs" textLength="126">A complex Object as child</text>	<text transform="translate(-504.5,-713.5)" x="523" y="821.38092" fill="#000000" font-family="sans-serif" font-size="10px" lengthAdjust="spacingAndGlyphs" textLength="0"/>	<text transform="translate(-504.5 -712.14)" x="556" y="815.95898" fill="#000000" font-family="sans-serif" font-size="10px" lengthAdjust="spacingAndGlyphs" textLength="69">Specialization</text>	<text transform="translate(-504.5 -712.09)" x="637" y="815.95898" fill="#000000" font-family="sans-serif" font-size="10px" lengthAdjust="spacingAndGlyphs" textLength="147">An extension of another Object</text>	<line x1="6.5" x2="282.5" y1="20.078" y2="20.078" stroke="#000"/>	<line x1="6.5" x2="282.5" y1="38.078" y2="38.078" stroke="#000"/>	<line x1="6.5" x2="282.5" y1="56.078" y2="56.078" stroke="#000"/>	<line x1="6.5" x2="282.5" y1="74.078" y2="74.078" stroke="#000"/>	<line x1="6.5" x2="282.5" y1="92.078" y2="92.078" stroke="#000"/>	<line x1="48.5" x2="48.5" y1="7.5" y2="110.08" stroke="#000"/>	<line x1="129.5" x2="129.5" y1="7.5" y2="110.08" stroke="#000"/>	<path d="m20.871 26.751h12m-11.5-3.1729h11v11h-11z" fill="none" stroke="#000" stroke-width="1px"/>	<g transform="translate(0 1.5453)" fill="none" stroke="#000">		<path d="m24.935 47.446 5.6592-5.6592" stroke-linecap="square" stroke-width="1px"/>		<rect x="20.869" y="47.512" width="4" height="3.9606" ry="0"/>		<rect x="30.774" y="39.593" width="2" height="2" ry="0"/>	</g>	<path d="m21.038 88.97 11.784-11.784" fill="none" stroke="#000" stroke-linecap="square" stroke-width="1px"/>	<g transform="translate(0 .78224)" fill="none" stroke="#000">		<path d="m25.986 93.638h6.7885v6.7885z"/>		<path d="m19.701 106.75 9.6682-9.6682" stroke-linecap="square" stroke-width="1px"/>	</g>	<g transform="translate(0 1.3665)" fill="none" stroke="#000">		<path d="m24.935 65.602 5.6592-5.6592" stroke-linecap="square" stroke-width="1px"/>		<rect x="20.869" y="65.668" width="4" height="3.9606" ry="0"/>		<rect x="30.774" y="57.795" width="2" height="2" ry="0"/>	</g></svg><!--
@startuml

skinparam class {
	BorderColor black
	FontColor #50237f
	BackgroundColor #f5f5f5
	ArrowColor black
}
hide class circle

skinparam stereotype {
	CBackgroundColor white
	EBackgroundColor white
}

skinparam legend {
	BorderColor white
	BackgroundColor white
}

class Device {
	id: String
	mode[0..1]: String
	state[0..1]: DeviceState
	additionalProperties[0..1]: Object
}

class Measurement {
	code[0..1]: String
	context[0..1]: ContextList
	result[0..1]: Result
	series: Series
	ts: Date
	additionalProperties[0..1]: Object
}

class Context {
	limits[0..1]: Limits
	namespace[0..1]: String
	type[0..1]: String
	unit[0..1]: String
	additionalProperties[0..1]: Object
}

class Limits {
	lowerError[0..1]: Float | [Float]
	lowerWarn[0..1]: Float | [Float]
	target[0..1]:  Float | [Float]
	upperError[0..1]: Float | [Float]
	upperWarn[0..1]: Float | [Float]
}

class Series {
	time[0..1]: [Number]
	<values>[1..*]: [Boolean | Number | String]
}

class Part {
	code[0..1]: String
	id[0..1]: String
	type[0..1]: PartType
	typeId[0..1]: String
	result[0..1]: Result
	additionalProperties[0..1]: Object
}

enum DeviceState {
	OK
	INFO
	WARN
	ERROR
	UNKNOWN
}

enum Result {
	OK
	NOK
	UNKNOWN
}

enum PartType {
	SINGLE
	BATCH
}

Measurement "1" *- - "0..1" Context : ContextList
Context "1" - - "0..*" Limits


sprite $aggregation jar:archimate/aggregation
sprite $composition jar:archimate/composition
sprite $specialisation jar:archimate/specialisation
sprite $association jar:archimate/association
sprite $object      jar:archimate/object

legend right
<img:legend.svg>
endlegend


class ProcessPayload {
	content-spec: String
	device: Device
	measurements: ProcessMeasurement
	part[0..1]: Part
	process: Process
}

class Process {
	externalId[0..1]: String
	program[0..1]: Program
	result[0..1]: Result
	shutoffPhase[0..1]: String
	ts: Date
	additionalData[0..1]: Object
}

class ProcessMeasurement {
	code[0..1]: String
	context[0..1]: ContextList
	name[0..1]: String
	phase[0..1] ; String
	result[0..1]: Result
	series: Series
	specialValues[0..1]: SpecialValues
	ts: Date
	additionalData[0..1]: Object
}

class Program {
	id: String
	lastChangeDate[0..1]: Date
	name[0..1]: String
	additionalData[0..1]: Object
}

class SpecialValue {
	time[0..1]: Number
	name[0..1]: String
	value: <String, Boolean | Number | String>
}

hide Measurement

ProcessPayload - - Device
ProcessPayload - - Part
ProcessPayload - - Process
ProcessPayload "1" o- - "0..*" ProcessMeasurement: Measurements

Process - - Program

ProcessMeasurement - - Series
ProcessMeasurement "1" *- - "0..1" Context : ContextList

ProcessMeasurement "1" o- - "0..*" SpecialValue: SpecialValues
@enduml

PlantUML version 1.2018.01(Sun Jan 28 19:08:22 CET 2018)
(EPL source distribution)
Java Runtime: Java(TM) SE Runtime Environment
JVM: Java HotSpot(TM) 64-Bit Server VM
Java Version: 10.0.1+10
Operating System: Windows 10
OS Version: 10.0
Default Encoding: Cp1252
Language: en
Country: US
--></g></svg>