<?xml version="1.0" encoding="UTF-8" standalone="no"?><svg xmlns="http://www.w3.org/2000/svg" xmlns:xlink="http://www.w3.org/1999/xlink" contentScriptType="application/ecmascript" contentStyleType="text/css" height="884px" preserveAspectRatio="none" style="width:1372px;height:884px;" version="1.1" viewBox="0 0 1372 884" width="1372px" zoomAndPan="magnify"><defs><filter height="300%" id="fpmyswsdq6cgk" width="300%" x="-1" y="-1"><feGaussianBlur result="blurOut" stdDeviation="2.0"/><feColorMatrix in="blurOut" result="blurOut2" type="matrix" values="0 0 0 0 0 0 0 0 0 0 0 0 0 0 0 0 0 0 .4 0"/><feOffset dx="4.0" dy="4.0" in="blurOut2" result="blurOut3"/><feBlend in="SourceGraphic" in2="blurOut3" mode="normal"/></filter></defs><g><!--class Device--><rect fill="#F5F5F5" filter="url(#fpmyswsdq6cgk)" height="96.4375" id="Device" style="stroke: #000000; stroke-width: 1.5;" width="140" x="254.5" y="238"/><text fill="#50237F" font-family="sans-serif" font-size="12" lengthAdjust="spacingAndGlyphs" textLength="37" x="306" y="255.457">Device</text><line style="stroke: #000000; stroke-width: 1.5;" x1="255.5" x2="393.5" y1="263.0938" y2="263.0938"/><text fill="#000000" font-family="sans-serif" font-size="11" lengthAdjust="spacingAndGlyphs" textLength="42" x="260.5" y="278.5127">id: String</text><text fill="#000000" font-family="sans-serif" font-size="11" lengthAdjust="spacingAndGlyphs" textLength="84" x="260.5" y="292.3486">mode[0..1]: String</text><text fill="#000000" font-family="sans-serif" font-size="11" lengthAdjust="spacingAndGlyphs" textLength="112" x="260.5" y="306.1846">state[0..1]: DeviceState</text><text fill="#000000" font-family="sans-serif" font-size="11" lengthAdjust="spacingAndGlyphs" textLength="128" x="260.5" y="320.0205">additionalData[0..1]: Object</text><line style="stroke: #000000; stroke-width: 1.5;" x1="255.5" x2="393.5" y1="326.4375" y2="326.4375"/><!--class Context--><rect fill="#F5F5F5" filter="url(#fpmyswsdq6cgk)" height="110.2734" id="Context" style="stroke: #000000; stroke-width: 1.5;" width="140" x="721.5" y="447"/><text fill="#50237F" font-family="sans-serif" font-size="12" lengthAdjust="spacingAndGlyphs" textLength="41" x="771" y="464.457">Context</text><line style="stroke: #000000; stroke-width: 1.5;" x1="722.5" x2="860.5" y1="472.0938" y2="472.0938"/><text fill="#000000" font-family="sans-serif" font-size="11" lengthAdjust="spacingAndGlyphs" textLength="80" x="727.5" y="487.5127">limits[0..1]: Limits</text><text fill="#000000" font-family="sans-serif" font-size="11" lengthAdjust="spacingAndGlyphs" textLength="114" x="727.5" y="501.3486">namespace[0..1]: String</text><text fill="#000000" font-family="sans-serif" font-size="11" lengthAdjust="spacingAndGlyphs" textLength="103" x="727.5" y="515.1846">type[0..1]: ValueType</text><text fill="#000000" font-family="sans-serif" font-size="11" lengthAdjust="spacingAndGlyphs" textLength="75" x="727.5" y="529.0205">unit[0..1]: String</text><text fill="#000000" font-family="sans-serif" font-size="11" lengthAdjust="spacingAndGlyphs" textLength="128" x="727.5" y="542.8564">additionalData[0..1]: Object</text><line style="stroke: #000000; stroke-width: 1.5;" x1="722.5" x2="860.5" y1="549.2734" y2="549.2734"/><!--class Limits--><rect fill="#F5F5F5" filter="url(#fpmyswsdq6cgk)" height="110.2734" id="Limits" style="stroke: #000000; stroke-width: 1.5;" width="156" x="713.5" y="618"/><text fill="#50237F" font-family="sans-serif" font-size="12" lengthAdjust="spacingAndGlyphs" textLength="34" x="774.5" y="635.457">Limits</text><line style="stroke: #000000; stroke-width: 1.5;" x1="714.5" x2="868.5" y1="643.0938" y2="643.0938"/><text fill="#000000" font-family="sans-serif" font-size="11" lengthAdjust="spacingAndGlyphs" textLength="142" x="719.5" y="658.5127">lowerError[0..1]: Float | [Float]</text><text fill="#000000" font-family="sans-serif" font-size="11" lengthAdjust="spacingAndGlyphs" textLength="144" x="719.5" y="672.3486">lowerWarn[0..1]: Float | [Float]</text><text fill="#000000" font-family="sans-serif" font-size="11" lengthAdjust="spacingAndGlyphs" textLength="121" x="719.5" y="686.1846">target[0..1]:  Float | [Float]</text><text fill="#000000" font-family="sans-serif" font-size="11" lengthAdjust="spacingAndGlyphs" textLength="142" x="719.5" y="700.0205">upperError[0..1]: Float | [Float]</text><text fill="#000000" font-family="sans-serif" font-size="11" lengthAdjust="spacingAndGlyphs" textLength="144" x="719.5" y="713.8564">upperWarn[0..1]: Float | [Float]</text><line style="stroke: #000000; stroke-width: 1.5;" x1="714.5" x2="868.5" y1="720.2734" y2="720.2734"/><!--class Series--><rect fill="#F5F5F5" filter="url(#fpmyswsdq6cgk)" height="68.7656" id="Series" style="stroke: #000000; stroke-width: 1.5;" width="210" x="896.5" y="467.5"/><text fill="#50237F" font-family="sans-serif" font-size="12" lengthAdjust="spacingAndGlyphs" textLength="36" x="983.5" y="484.957">Series</text><line style="stroke: #000000; stroke-width: 1.5;" x1="897.5" x2="1105.5" y1="492.5938" y2="492.5938"/><text fill="#000000" font-family="sans-serif" font-size="11" lengthAdjust="spacingAndGlyphs" textLength="92" x="902.5" y="508.0127">time[0..1]: [Number]</text><text fill="#000000" font-family="sans-serif" font-size="11" lengthAdjust="spacingAndGlyphs" textLength="198" x="902.5" y="521.8486">&lt;values&gt;[1..*]: [Boolean | Number | String]</text><line style="stroke: #000000; stroke-width: 1.5;" x1="897.5" x2="1105.5" y1="528.2656" y2="528.2656"/><!--class Part--><rect fill="#F5F5F5" filter="url(#fpmyswsdq6cgk)" height="124.1094" id="Part" style="stroke: #000000; stroke-width: 1.5;" width="140" x="429.5" y="224"/><text fill="#50237F" font-family="sans-serif" font-size="12" lengthAdjust="spacingAndGlyphs" textLength="22" x="488.5" y="241.457">Part</text><line style="stroke: #000000; stroke-width: 1.5;" x1="430.5" x2="568.5" y1="249.0938" y2="249.0938"/><text fill="#000000" font-family="sans-serif" font-size="11" lengthAdjust="spacingAndGlyphs" textLength="82" x="435.5" y="264.5127">code[0..1]: String</text><text fill="#000000" font-family="sans-serif" font-size="11" lengthAdjust="spacingAndGlyphs" textLength="66" x="435.5" y="278.3486">id[0..1]: String</text><text fill="#000000" font-family="sans-serif" font-size="11" lengthAdjust="spacingAndGlyphs" textLength="94" x="435.5" y="292.1846">type[0..1]: PartType</text><text fill="#000000" font-family="sans-serif" font-size="11" lengthAdjust="spacingAndGlyphs" textLength="87" x="435.5" y="306.0205">typeId[0..1]: String</text><text fill="#000000" font-family="sans-serif" font-size="11" lengthAdjust="spacingAndGlyphs" textLength="87" x="435.5" y="319.8564">result[0..1]: Result</text><text fill="#000000" font-family="sans-serif" font-size="11" lengthAdjust="spacingAndGlyphs" textLength="128" x="435.5" y="333.6924">additionalData[0..1]: Object</text><line style="stroke: #000000; stroke-width: 1.5;" x1="430.5" x2="568.5" y1="340.1094" y2="340.1094"/><!--class DeviceState--><rect fill="#F5F5F5" filter="url(#fpmyswsdq6cgk)" height="117.1797" id="DeviceState" style="stroke: #000000; stroke-width: 1.5;" width="97" x="6" y="8"/><ellipse cx="21" cy="24" fill="#FFFFFF" rx="11" ry="11" style="stroke: #000000; stroke-width: 1.0;"/><path d="M19.8594,24.7969 L19.8594,27.2969 L24.1875,27.2969 L24.1875,26.375 Q24.1875,25.7656 24.4297,25.5 Q24.6719,25.2344 25.0469,25.2344 Q25.4219,25.2344 25.6563,25.5 Q25.8906,25.7656 25.8906,26.375 L25.8906,29 L17.8906,29 Q17.2656,29 17.0078,28.7656 Q16.75,28.5313 16.75,28.1406 Q16.75,27.7656 17.0156,27.5313 Q17.2813,27.2969 17.8906,27.2969 L18.1563,27.2969 L18.1563,20.6406 L17.8906,20.6406 Q17.2656,20.6406 17.0078,20.4063 Q16.75,20.1719 16.75,19.7813 Q16.75,19.4063 17.0078,19.1719 Q17.2656,18.9375 17.8906,18.9375 L25.5156,18.9375 L25.5156,21.5313 Q25.5156,22.1406 25.2891,22.3984 Q25.0625,22.6563 24.6719,22.6563 Q24.2969,22.6563 24.0625,22.3984 Q23.8281,22.1406 23.8281,21.5313 L23.8281,20.6406 L19.8594,20.6406 L19.8594,23.0938 L21.3438,23.0938 Q21.3438,22.4375 21.4688,22.25 Q21.7344,21.8438 22.2031,21.8438 Q22.5781,21.8438 22.8125,22.1016 Q23.0469,22.3594 23.0469,22.9688 L23.0469,24.9375 Q23.0469,25.4844 22.9219,25.6719 Q22.6563,26.0625 22.2031,26.0625 Q21.7344,26.0625 21.4688,25.6563 Q21.3438,25.4688 21.3438,24.7969 L19.8594,24.7969 Z "/><text fill="#50237F" font-family="sans-serif" font-size="12" lengthAdjust="spacingAndGlyphs" textLength="65" x="35" y="28.9102">DeviceState</text><line style="stroke: #000000; stroke-width: 1.5;" x1="7" x2="102" y1="40" y2="40"/><text fill="#000000" font-family="sans-serif" font-size="11" lengthAdjust="spacingAndGlyphs" textLength="15" x="12" y="55.4189">OK</text><text fill="#000000" font-family="sans-serif" font-size="11" lengthAdjust="spacingAndGlyphs" textLength="23" x="12" y="69.2549">INFO</text><text fill="#000000" font-family="sans-serif" font-size="11" lengthAdjust="spacingAndGlyphs" textLength="32" x="12" y="83.0908">WARN</text><text fill="#000000" font-family="sans-serif" font-size="11" lengthAdjust="spacingAndGlyphs" textLength="35" x="12" y="96.9268">ERROR</text><text fill="#000000" font-family="sans-serif" font-size="11" lengthAdjust="spacingAndGlyphs" textLength="53" x="12" y="110.7627">UNKNOWN</text><line style="stroke: #000000; stroke-width: 1.5;" x1="7" x2="102" y1="117.1797" y2="117.1797"/><!--class Result--><rect fill="#F5F5F5" filter="url(#fpmyswsdq6cgk)" height="89.5078" id="Result" style="stroke: #000000; stroke-width: 1.5;" width="68" x="138.5" y="21.5"/><ellipse cx="153.5" cy="37.5" fill="#FFFFFF" rx="11" ry="11" style="stroke: #000000; stroke-width: 1.0;"/><path d="M152.3594,38.2969 L152.3594,40.7969 L156.6875,40.7969 L156.6875,39.875 Q156.6875,39.2656 156.9297,39 Q157.1719,38.7344 157.5469,38.7344 Q157.9219,38.7344 158.1563,39 Q158.3906,39.2656 158.3906,39.875 L158.3906,42.5 L150.3906,42.5 Q149.7656,42.5 149.5078,42.2656 Q149.25,42.0313 149.25,41.6406 Q149.25,41.2656 149.5156,41.0313 Q149.7813,40.7969 150.3906,40.7969 L150.6563,40.7969 L150.6563,34.1406 L150.3906,34.1406 Q149.7656,34.1406 149.5078,33.9063 Q149.25,33.6719 149.25,33.2813 Q149.25,32.9063 149.5078,32.6719 Q149.7656,32.4375 150.3906,32.4375 L158.0156,32.4375 L158.0156,35.0313 Q158.0156,35.6406 157.7891,35.8984 Q157.5625,36.1563 157.1719,36.1563 Q156.7969,36.1563 156.5625,35.8984 Q156.3281,35.6406 156.3281,35.0313 L156.3281,34.1406 L152.3594,34.1406 L152.3594,36.5938 L153.8438,36.5938 Q153.8438,35.9375 153.9688,35.75 Q154.2344,35.3438 154.7031,35.3438 Q155.0781,35.3438 155.3125,35.6016 Q155.5469,35.8594 155.5469,36.4688 L155.5469,38.4375 Q155.5469,38.9844 155.4219,39.1719 Q155.1563,39.5625 154.7031,39.5625 Q154.2344,39.5625 153.9688,39.1563 Q153.8438,38.9688 153.8438,38.2969 L152.3594,38.2969 Z "/><text fill="#50237F" font-family="sans-serif" font-size="12" lengthAdjust="spacingAndGlyphs" textLength="36" x="167.5" y="42.4102">Result</text><line style="stroke: #000000; stroke-width: 1.5;" x1="139.5" x2="205.5" y1="53.5" y2="53.5"/><text fill="#000000" font-family="sans-serif" font-size="11" lengthAdjust="spacingAndGlyphs" textLength="15" x="144.5" y="68.9189">OK</text><text fill="#000000" font-family="sans-serif" font-size="11" lengthAdjust="spacingAndGlyphs" textLength="22" x="144.5" y="82.7549">NOK</text><text fill="#000000" font-family="sans-serif" font-size="11" lengthAdjust="spacingAndGlyphs" textLength="53" x="144.5" y="96.5908">UNKNOWN</text><line style="stroke: #000000; stroke-width: 1.5;" x1="139.5" x2="205.5" y1="103.0078" y2="103.0078"/><!--class PartType--><rect fill="#F5F5F5" filter="url(#fpmyswsdq6cgk)" height="75.6719" id="PartType" style="stroke: #000000; stroke-width: 1.5;" width="80" x="14.5" y="248"/><ellipse cx="29.5" cy="264" fill="#FFFFFF" rx="11" ry="11" style="stroke: #000000; stroke-width: 1.0;"/><path d="M28.3594,264.7969 L28.3594,267.2969 L32.6875,267.2969 L32.6875,266.375 Q32.6875,265.7656 32.9297,265.5 Q33.1719,265.2344 33.5469,265.2344 Q33.9219,265.2344 34.1563,265.5 Q34.3906,265.7656 34.3906,266.375 L34.3906,269 L26.3906,269 Q25.7656,269 25.5078,268.7656 Q25.25,268.5313 25.25,268.1406 Q25.25,267.7656 25.5156,267.5313 Q25.7813,267.2969 26.3906,267.2969 L26.6563,267.2969 L26.6563,260.6406 L26.3906,260.6406 Q25.7656,260.6406 25.5078,260.4063 Q25.25,260.1719 25.25,259.7813 Q25.25,259.4063 25.5078,259.1719 Q25.7656,258.9375 26.3906,258.9375 L34.0156,258.9375 L34.0156,261.5313 Q34.0156,262.1406 33.7891,262.3984 Q33.5625,262.6563 33.1719,262.6563 Q32.7969,262.6563 32.5625,262.3984 Q32.3281,262.1406 32.3281,261.5313 L32.3281,260.6406 L28.3594,260.6406 L28.3594,263.0938 L29.8438,263.0938 Q29.8438,262.4375 29.9688,262.25 Q30.2344,261.8438 30.7031,261.8438 Q31.0781,261.8438 31.3125,262.1016 Q31.5469,262.3594 31.5469,262.9688 L31.5469,264.9375 Q31.5469,265.4844 31.4219,265.6719 Q31.1563,266.0625 30.7031,266.0625 Q30.2344,266.0625 29.9688,265.6563 Q29.8438,265.4688 29.8438,264.7969 L28.3594,264.7969 Z "/><text fill="#50237F" font-family="sans-serif" font-size="12" lengthAdjust="spacingAndGlyphs" textLength="48" x="43.5" y="268.9102">PartType</text><line style="stroke: #000000; stroke-width: 1.5;" x1="15.5" x2="93.5" y1="280" y2="280"/><text fill="#000000" font-family="sans-serif" font-size="11" lengthAdjust="spacingAndGlyphs" textLength="36" x="20.5" y="295.4189">SINGLE</text><text fill="#000000" font-family="sans-serif" font-size="11" lengthAdjust="spacingAndGlyphs" textLength="35" x="20.5" y="309.2549">BATCH</text><line style="stroke: #000000; stroke-width: 1.5;" x1="15.5" x2="93.5" y1="315.6719" y2="315.6719"/><!--class ValueType--><rect fill="#F5F5F5" filter="url(#fpmyswsdq6cgk)" height="131.0156" id="ValueType" style="stroke: #000000; stroke-width: 1.5;" width="89" x="130" y="220.5"/><ellipse cx="145" cy="236.5" fill="#FFFFFF" rx="11" ry="11" style="stroke: #000000; stroke-width: 1.0;"/><path d="M143.8594,237.2969 L143.8594,239.7969 L148.1875,239.7969 L148.1875,238.875 Q148.1875,238.2656 148.4297,238 Q148.6719,237.7344 149.0469,237.7344 Q149.4219,237.7344 149.6563,238 Q149.8906,238.2656 149.8906,238.875 L149.8906,241.5 L141.8906,241.5 Q141.2656,241.5 141.0078,241.2656 Q140.75,241.0313 140.75,240.6406 Q140.75,240.2656 141.0156,240.0313 Q141.2813,239.7969 141.8906,239.7969 L142.1563,239.7969 L142.1563,233.1406 L141.8906,233.1406 Q141.2656,233.1406 141.0078,232.9063 Q140.75,232.6719 140.75,232.2813 Q140.75,231.9063 141.0078,231.6719 Q141.2656,231.4375 141.8906,231.4375 L149.5156,231.4375 L149.5156,234.0313 Q149.5156,234.6406 149.2891,234.8984 Q149.0625,235.1563 148.6719,235.1563 Q148.2969,235.1563 148.0625,234.8984 Q147.8281,234.6406 147.8281,234.0313 L147.8281,233.1406 L143.8594,233.1406 L143.8594,235.5938 L145.3438,235.5938 Q145.3438,234.9375 145.4688,234.75 Q145.7344,234.3438 146.2031,234.3438 Q146.5781,234.3438 146.8125,234.6016 Q147.0469,234.8594 147.0469,235.4688 L147.0469,237.4375 Q147.0469,237.9844 146.9219,238.1719 Q146.6563,238.5625 146.2031,238.5625 Q145.7344,238.5625 145.4688,238.1563 Q145.3438,237.9688 145.3438,237.2969 L143.8594,237.2969 Z "/><text fill="#50237F" font-family="sans-serif" font-size="12" lengthAdjust="spacingAndGlyphs" textLength="57" x="159" y="241.4102">ValueType</text><line style="stroke: #000000; stroke-width: 1.5;" x1="131" x2="218" y1="252.5" y2="252.5"/><text fill="#000000" font-family="sans-serif" font-size="11" lengthAdjust="spacingAndGlyphs" textLength="40" x="136" y="267.9189">BASE64</text><text fill="#000000" font-family="sans-serif" font-size="11" lengthAdjust="spacingAndGlyphs" textLength="50" x="136" y="281.7549">BOOLEAN</text><text fill="#000000" font-family="sans-serif" font-size="11" lengthAdjust="spacingAndGlyphs" textLength="42" x="136" y="295.5908">NUMBER</text><text fill="#000000" font-family="sans-serif" font-size="11" lengthAdjust="spacingAndGlyphs" textLength="34" x="136" y="309.4268">OTHER</text><text fill="#000000" font-family="sans-serif" font-size="11" lengthAdjust="spacingAndGlyphs" textLength="19" x="136" y="323.2627">REF</text><text fill="#000000" font-family="sans-serif" font-size="11" lengthAdjust="spacingAndGlyphs" textLength="37" x="136" y="337.0986">STRING</text><line style="stroke: #000000; stroke-width: 1.5;" x1="131" x2="218" y1="343.5156" y2="343.5156"/><!--class ProcessPayload--><rect fill="#F5F5F5" filter="url(#fpmyswsdq6cgk)" height="110.2734" id="ProcessPayload" style="stroke: #000000; stroke-width: 1.5;" width="194" x="456.5" y="11.5"/><text fill="#50237F" font-family="sans-serif" font-size="12" lengthAdjust="spacingAndGlyphs" textLength="90" x="508.5" y="28.957">ProcessPayload</text><line style="stroke: #000000; stroke-width: 1.5;" x1="457.5" x2="649.5" y1="36.5938" y2="36.5938"/><text fill="#000000" font-family="sans-serif" font-size="11" lengthAdjust="spacingAndGlyphs" textLength="98" x="462.5" y="52.0127">content-spec: String</text><text fill="#000000" font-family="sans-serif" font-size="11" lengthAdjust="spacingAndGlyphs" textLength="71" x="462.5" y="65.8486">device: Device</text><text fill="#000000" font-family="sans-serif" font-size="11" lengthAdjust="spacingAndGlyphs" textLength="182" x="462.5" y="79.6846">measurements: ProcessMeasurement</text><text fill="#000000" font-family="sans-serif" font-size="11" lengthAdjust="spacingAndGlyphs" textLength="68" x="462.5" y="93.5205">part[0..1]: Part</text><text fill="#000000" font-family="sans-serif" font-size="11" lengthAdjust="spacingAndGlyphs" textLength="86" x="462.5" y="107.3564">process: Process</text><line style="stroke: #000000; stroke-width: 1.5;" x1="457.5" x2="649.5" y1="113.7734" y2="113.7734"/><!--class Process--><rect fill="#F5F5F5" filter="url(#fpmyswsdq6cgk)" height="110.2734" id="Process" style="stroke: #000000; stroke-width: 1.5;" width="140" x="604.5" y="231"/><text fill="#50237F" font-family="sans-serif" font-size="12" lengthAdjust="spacingAndGlyphs" textLength="46" x="651.5" y="248.457">Process</text><line style="stroke: #000000; stroke-width: 1.5;" x1="605.5" x2="743.5" y1="256.0938" y2="256.0938"/><text fill="#000000" font-family="sans-serif" font-size="11" lengthAdjust="spacingAndGlyphs" textLength="105" x="610.5" y="271.5127">externalId[0..1]: String</text><text fill="#000000" font-family="sans-serif" font-size="11" lengthAdjust="spacingAndGlyphs" textLength="110" x="610.5" y="285.3486">program[0..1]: Program</text><text fill="#000000" font-family="sans-serif" font-size="11" lengthAdjust="spacingAndGlyphs" textLength="87" x="610.5" y="299.1846">result[0..1]: Result</text><text fill="#000000" font-family="sans-serif" font-size="11" lengthAdjust="spacingAndGlyphs" textLength="37" x="610.5" y="313.0205">ts: Date</text><text fill="#000000" font-family="sans-serif" font-size="11" lengthAdjust="spacingAndGlyphs" textLength="128" x="610.5" y="326.8564">additionalData[0..1]: Object</text><line style="stroke: #000000; stroke-width: 1.5;" x1="605.5" x2="743.5" y1="333.2734" y2="333.2734"/><!--class ProcessMeasurement--><rect fill="#F5F5F5" filter="url(#fpmyswsdq6cgk)" height="165.6172" id="ProcessMeasurement" style="stroke: #000000; stroke-width: 1.5;" width="179" x="837" y="203"/><text fill="#50237F" font-family="sans-serif" font-size="12" lengthAdjust="spacingAndGlyphs" textLength="122" x="865.5" y="220.457">ProcessMeasurement</text><line style="stroke: #000000; stroke-width: 1.5;" x1="838" x2="1015" y1="228.0938" y2="228.0938"/><text fill="#000000" font-family="sans-serif" font-size="11" lengthAdjust="spacingAndGlyphs" textLength="82" x="843" y="243.5127">code[0..1]: String</text><text fill="#000000" font-family="sans-serif" font-size="11" lengthAdjust="spacingAndGlyphs" textLength="120" x="843" y="257.3486">context[0..1]: ContextList</text><text fill="#000000" font-family="sans-serif" font-size="11" lengthAdjust="spacingAndGlyphs" textLength="84" x="843" y="271.1846">name[0..1]: String</text><text fill="#000000" font-family="sans-serif" font-size="11" lengthAdjust="spacingAndGlyphs" textLength="91" x="843" y="285.0205">phase[0..1] ; String</text><text fill="#000000" font-family="sans-serif" font-size="11" lengthAdjust="spacingAndGlyphs" textLength="87" x="843" y="298.8564">result[0..1]: Result</text><text fill="#000000" font-family="sans-serif" font-size="11" lengthAdjust="spacingAndGlyphs" textLength="67" x="843" y="312.6924">series: Series</text><text fill="#000000" font-family="sans-serif" font-size="11" lengthAdjust="spacingAndGlyphs" textLength="167" x="843" y="326.5283">specialValues[0..1]: SpecialValues</text><text fill="#000000" font-family="sans-serif" font-size="11" lengthAdjust="spacingAndGlyphs" textLength="37" x="843" y="340.3643">ts: Date</text><text fill="#000000" font-family="sans-serif" font-size="11" lengthAdjust="spacingAndGlyphs" textLength="128" x="843" y="354.2002">additionalData[0..1]: Object</text><line style="stroke: #000000; stroke-width: 1.5;" x1="838" x2="1015" y1="360.6172" y2="360.6172"/><!--class Program--><rect fill="#F5F5F5" filter="url(#fpmyswsdq6cgk)" height="96.4375" id="Program" style="stroke: #000000; stroke-width: 1.5;" width="140" x="546.5" y="454"/><text fill="#50237F" font-family="sans-serif" font-size="12" lengthAdjust="spacingAndGlyphs" textLength="48" x="592.5" y="471.457">Program</text><line style="stroke: #000000; stroke-width: 1.5;" x1="547.5" x2="685.5" y1="479.0938" y2="479.0938"/><text fill="#000000" font-family="sans-serif" font-size="11" lengthAdjust="spacingAndGlyphs" textLength="42" x="552.5" y="494.5127">id: String</text><text fill="#000000" font-family="sans-serif" font-size="11" lengthAdjust="spacingAndGlyphs" textLength="128" x="552.5" y="508.3486">lastChangeDate[0..1]: Date</text><text fill="#000000" font-family="sans-serif" font-size="11" lengthAdjust="spacingAndGlyphs" textLength="84" x="552.5" y="522.1846">name[0..1]: String</text><text fill="#000000" font-family="sans-serif" font-size="11" lengthAdjust="spacingAndGlyphs" textLength="128" x="552.5" y="536.0205">additionalData[0..1]: Object</text><line style="stroke: #000000; stroke-width: 1.5;" x1="547.5" x2="685.5" y1="542.4375" y2="542.4375"/><!--class SpecialValue--><rect fill="#F5F5F5" filter="url(#fpmyswsdq6cgk)" height="82.6016" id="SpecialValue" style="stroke: #000000; stroke-width: 1.5;" width="210" x="1141.5" y="460.5"/><text fill="#50237F" font-family="sans-serif" font-size="12" lengthAdjust="spacingAndGlyphs" textLength="72" x="1210.5" y="477.957">SpecialValue</text><line style="stroke: #000000; stroke-width: 1.5;" x1="1142.5" x2="1350.5" y1="485.5938" y2="485.5938"/><text fill="#000000" font-family="sans-serif" font-size="11" lengthAdjust="spacingAndGlyphs" textLength="86" x="1147.5" y="501.0127">time[0..1]: Number</text><text fill="#000000" font-family="sans-serif" font-size="11" lengthAdjust="spacingAndGlyphs" textLength="84" x="1147.5" y="514.8486">name[0..1]: String</text><text fill="#000000" font-family="sans-serif" font-size="11" lengthAdjust="spacingAndGlyphs" textLength="198" x="1147.5" y="528.6846">value: &lt;String, Boolean | Number | String&gt;</text><line style="stroke: #000000; stroke-width: 1.5;" x1="1142.5" x2="1350.5" y1="535.1016" y2="535.1016"/><!--link Context to Limits--><path d="M791.5,557.403 C791.5,576.798 791.5,598.626 791.5,617.988 " fill="none" id="Context-Limits" style="stroke: #000000; stroke-width: 1.0;"/><text fill="#000000" font-family="sans-serif" font-size="13" lengthAdjust="spacingAndGlyphs" textLength="7" x="784.0734" y="578.6301">1</text><text fill="#000000" font-family="sans-serif" font-size="13" lengthAdjust="spacingAndGlyphs" textLength="20" x="770.1563" y="607.0211">0..*</text><!--link ProcessPayload to Device--><path d="M496.599,121.544 C458.979,157.274 410.143,203.658 374.108,237.883 " fill="none" id="ProcessPayload-Device" style="stroke: #000000; stroke-width: 1.0;"/><!--link ProcessPayload to Part--><path d="M540.082,121.544 C532.367,152.619 522.651,191.753 514.66,223.938 " fill="none" id="ProcessPayload-Part" style="stroke: #000000; stroke-width: 1.0;"/><!--link ProcessPayload to Process--><path d="M583.566,121.544 C602.113,154.884 625.821,197.499 644.379,230.858 " fill="none" id="ProcessPayload-Process" style="stroke: #000000; stroke-width: 1.0;"/><!--link ProcessPayload to ProcessMeasurement--><path d="M657.642,128.226 C714.004,161.091 782.922,201.278 836.87,232.736 " fill="none" id="ProcessPayload-ProcessMeasurement" style="stroke: #000000; stroke-width: 1.0;"/><polygon fill="#FFFFFF" points="646.181,121.544,649.3495,128.0217,656.5476,127.5883,653.3791,121.1106,646.181,121.544" style="stroke: #000000; stroke-width: 1.0;"/><text fill="#000000" font-family="sans-serif" font-size="13" lengthAdjust="spacingAndGlyphs" textLength="86" x="729.5" y="169.4951">Measurements</text><text fill="#000000" font-family="sans-serif" font-size="13" lengthAdjust="spacingAndGlyphs" textLength="7" x="650.6073" y="143.1216">1</text><text fill="#000000" font-family="sans-serif" font-size="13" lengthAdjust="spacingAndGlyphs" textLength="20" x="808.9307" y="225.3784">0..*</text><!--link Process to Program--><path d="M659.864,341.001 C650.434,375.795 638.293,420.59 629.257,453.929 " fill="none" id="Process-Program" style="stroke: #000000; stroke-width: 1.0;"/><!--link ProcessMeasurement to Series--><path d="M955.282,369.126 C967.262,403.308 980.498,441.076 989.725,467.401 " fill="none" id="ProcessMeasurement-Series" style="stroke: #000000; stroke-width: 1.0;"/><!--link ProcessMeasurement to Context--><path d="M867.693,380.22 C853.325,402.997 838.422,426.62 825.648,446.869 " fill="none" id="ProcessMeasurement-Context" style="stroke: #000000; stroke-width: 1.0;"/><polygon fill="#000000" points="874.692,369.126,868.1075,372.0662,868.289,379.275,874.8735,376.3348,874.692,369.126" style="stroke: #000000; stroke-width: 1.0;"/><text fill="#000000" font-family="sans-serif" font-size="13" lengthAdjust="spacingAndGlyphs" textLength="66" x="855.5" y="413.4951">ContextList</text><text fill="#000000" font-family="sans-serif" font-size="13" lengthAdjust="spacingAndGlyphs" textLength="7" x="863.1118" y="390.1979">1</text><text fill="#000000" font-family="sans-serif" font-size="13" lengthAdjust="spacingAndGlyphs" textLength="22" x="806.6138" y="436.2805">0..1</text><!--link ProcessMeasurement to SpecialValue--><path d="M1027.02,354.226 C1079.13,389.074 1141.06,430.485 1185.82,460.421 " fill="none" id="ProcessMeasurement-SpecialValue" style="stroke: #000000; stroke-width: 1.0;"/><polygon fill="#FFFFFF" points="1016.06,346.895,1018.8229,353.5558,1026.034,353.5672,1023.2711,346.9064,1016.06,346.895" style="stroke: #000000; stroke-width: 1.0;"/><text fill="#000000" font-family="sans-serif" font-size="13" lengthAdjust="spacingAndGlyphs" textLength="83" x="1115.5" y="413.4951">SpecialValues</text><text fill="#000000" font-family="sans-serif" font-size="13" lengthAdjust="spacingAndGlyphs" textLength="7" x="1024.0573" y="348.9673">1</text><text fill="#000000" font-family="sans-serif" font-size="13" lengthAdjust="spacingAndGlyphs" textLength="20" x="1154.1136" y="449.7667">0..*</text><!--link DeviceState to Result--><!--link DeviceState to PartType--><!--link PartType to ValueType--><rect fill="#FFFFFF" height="127" rx="5" ry="5" style="stroke: #FFFFFF; stroke-width: 1.0;" width="301" x="1060" y="746"/><svg x="1066" y="751">	<rect x=".5" y=".5" width="288" height="116.58" rx="5" ry="5" fill="#f5f5f5" stroke="#50237f"/>	<text transform="translate(-504.5 -714.76)" x="514" y="731.38092" fill="#000000" font-family="sans-serif" font-size="10px" font-weight="bold" lengthAdjust="spacingAndGlyphs" textLength="36">Symbol</text>	<text transform="translate(-504.5 -714.76)" x="556" y="731.38092" fill="#000000" font-family="sans-serif" font-size="10px" font-weight="bold" lengthAdjust="spacingAndGlyphs" textLength="28">Name</text>	<text transform="translate(-504.5 -714.76)" x="637" y="731.38092" fill="#000000" font-family="sans-serif" font-size="10px" font-weight="bold" lengthAdjust="spacingAndGlyphs" textLength="56">Description</text>	<text transform="translate(-504.5,-713.5)" x="523" y="749.38092" fill="#000000" font-family="sans-serif" font-size="10px" lengthAdjust="spacingAndGlyphs" textLength="0"/>	<text transform="translate(-504.5 -712.11)" x="556" y="743.95898" fill="#000000" font-family="sans-serif" font-size="10px" lengthAdjust="spacingAndGlyphs" textLength="24">Class</text>	<text transform="translate(-504.5 -712.11)" x="637" y="743.95898" fill="#000000" font-family="sans-serif" font-size="10px" lengthAdjust="spacingAndGlyphs" textLength="86">A complex Object</text>	<text transform="translate(-504.5,-713.5)" x="523" y="767.38092" fill="#000000" font-family="sans-serif" font-size="10px" lengthAdjust="spacingAndGlyphs" textLength="0"/>	<text transform="translate(-504.5 -712.25)" x="556" y="761.95898" fill="#000000" font-family="sans-serif" font-size="10px" lengthAdjust="spacingAndGlyphs" textLength="58">Aggregation</text>	<text transform="translate(-504.5 -712.09)" x="637" y="761.95898" fill="#000000" font-family="sans-serif" font-size="10px" lengthAdjust="spacingAndGlyphs" textLength="107">List of Objects as Array</text>	<text transform="translate(-504.5,-713.5)" x="523" y="785.38092" fill="#000000" font-family="sans-serif" font-size="10px" lengthAdjust="spacingAndGlyphs" textLength="0"/>	<text transform="translate(-504.5 -712.19)" x="556" y="779.95898" fill="#000000" font-family="sans-serif" font-size="10px" lengthAdjust="spacingAndGlyphs" textLength="59">Composition</text>	<text transform="translate(-504.5 -712.09)" x="637" y="779.95898" fill="#000000" font-family="sans-serif" font-size="10px" lengthAdjust="spacingAndGlyphs" textLength="104">List of Objects as Map</text>	<text transform="translate(-504.5,-713.5)" x="523" y="803.38092" fill="#000000" font-family="sans-serif" font-size="10px" lengthAdjust="spacingAndGlyphs" textLength="0"/>	<text transform="translate(-504.5 -712.39)" x="556" y="797.95898" fill="#000000" font-family="sans-serif" font-size="10px" lengthAdjust="spacingAndGlyphs" textLength="54">Association</text>	<text transform="translate(-504.5 -712.11)" x="637" y="797.95898" fill="#000000" font-family="sans-serif" font-size="10px" lengthAdjust="spacingAndGlyphs" textLength="126">A complex Object as child</text>	<text transform="translate(-504.5,-713.5)" x="523" y="821.38092" fill="#000000" font-family="sans-serif" font-size="10px" lengthAdjust="spacingAndGlyphs" textLength="0"/>	<text transform="translate(-504.5 -712.14)" x="556" y="815.95898" fill="#000000" font-family="sans-serif" font-size="10px" lengthAdjust="spacingAndGlyphs" textLength="69">Specialization</text>	<text transform="translate(-504.5 -712.09)" x="637" y="815.95898" fill="#000000" font-family="sans-serif" font-size="10px" lengthAdjust="spacingAndGlyphs" textLength="147">An extension of another Object</text>	<line x1="6.5" x2="282.5" y1="20.078" y2="20.078" stroke="#000"/>	<line x1="6.5" x2="282.5" y1="38.078" y2="38.078" stroke="#000"/>	<line x1="6.5" x2="282.5" y1="56.078" y2="56.078" stroke="#000"/>	<line x1="6.5" x2="282.5" y1="74.078" y2="74.078" stroke="#000"/>	<line x1="6.5" x2="282.5" y1="92.078" y2="92.078" stroke="#000"/>	<line x1="48.5" x2="48.5" y1="7.5" y2="110.08" stroke="#000"/>	<line x1="129.5" x2="129.5" y1="7.5" y2="110.08" stroke="#000"/>	<path d="m20.871 26.751h12m-11.5-3.1729h11v11h-11z" fill="none" stroke="#000" stroke-width="1px"/>	<g transform="translate(0 1.5453)" fill="none" stroke="#000">		<path d="m24.935 47.446 5.6592-5.6592" stroke-linecap="square" stroke-width="1px"/>		<rect x="20.869" y="47.512" width="4" height="3.9606" ry="0"/>		<rect x="30.774" y="39.593" width="2" height="2" ry="0"/>	</g>	<path d="m21.038 88.97 11.784-11.784" fill="none" stroke="#000" stroke-linecap="square" stroke-width="1px"/>	<g transform="translate(0 .78224)" fill="none" stroke="#000">		<path d="m25.986 93.638h6.7885v6.7885z"/>		<path d="m19.701 106.75 9.6682-9.6682" stroke-linecap="square" stroke-width="1px"/>	</g>	<g transform="translate(0 1.3665)" fill="none" stroke="#000">		<path d="m24.935 65.602 5.6592-5.6592" stroke-linecap="square" stroke-width="1px"/>		<rect x="20.869" y="65.668" width="4" height="3.9606" ry="0"/>		<rect x="30.774" y="57.795" width="2" height="2" ry="0"/>	</g></svg><!--
@startuml

skinparam class {
	BorderColor black
	FontColor #50237f
	BackgroundColor #f5f5f5
	ArrowColor black
}
hide class circle

skinparam stereotype {
	CBackgroundColor white
	EBackgroundColor white
}

skinparam legend {
	BorderColor white
	BackgroundColor white
}

class Device {
	id: String
	mode[0..1]: String
	state[0..1]: DeviceState
	additionalData[0..1]: Object
}

class Measurement {
	code[0..1]: String
	context[0..1]: ContextList
	result[0..1]: Result
	series: Series
	ts: Date
	additionalData[0..1]: Object
}

class Context {
	limits[0..1]: Limits
	namespace[0..1]: String
	type[0..1]: ValueType
	unit[0..1]: String
	additionalData[0..1]: Object
}

class Limits {
	lowerError[0..1]: Float | [Float]
	lowerWarn[0..1]: Float | [Float]
	target[0..1]:  Float | [Float]
	upperError[0..1]: Float | [Float]
	upperWarn[0..1]: Float | [Float]
}

class Series {
	time[0..1]: [Number]
	<values>[1..*]: [Boolean | Number | String]
}

class Part {
	code[0..1]: String
	id[0..1]: String
	type[0..1]: PartType
	typeId[0..1]: String
	result[0..1]: Result
	additionalData[0..1]: Object
}

enum DeviceState {
	OK
	INFO
	WARN
	ERROR
	UNKNOWN
}

enum Result {
	OK
	NOK
	UNKNOWN
}

enum PartType {
	SINGLE
	BATCH
}

enum ValueType {
	BASE64
	BOOLEAN
	NUMBER
	OTHER
	REF
	STRING
}

Measurement "1" *- - "0..1" Context : ContextList
Context "1" - - "0..*" Limits


sprite $aggregation jar:archimate/aggregation
sprite $composition jar:archimate/composition
sprite $specialisation jar:archimate/specialisation
sprite $association jar:archimate/association
sprite $object      jar:archimate/object

legend right
<img:legend.svg>
endlegend


class ProcessPayload {
	content-spec: String
	device: Device
	measurements: ProcessMeasurement
	part[0..1]: Part
	process: Process
}

class Process {
	externalId[0..1]: String
	program[0..1]: Program
	result[0..1]: Result
	ts: Date
	additionalData[0..1]: Object
}

class ProcessMeasurement {
	code[0..1]: String
	context[0..1]: ContextList
	name[0..1]: String
	phase[0..1] ; String
	result[0..1]: Result
	series: Series
	specialValues[0..1]: SpecialValues
	ts: Date
	additionalData[0..1]: Object
}

class Program {
	id: String
	lastChangeDate[0..1]: Date
	name[0..1]: String
	additionalData[0..1]: Object
}

class SpecialValue {
	time[0..1]: Number
	name[0..1]: String
	value: <String, Boolean | Number | String>
}

hide Measurement

ProcessPayload - - Device
ProcessPayload - - Part
ProcessPayload - - Process
ProcessPayload "1" o- - "0..*" ProcessMeasurement: Measurements

Process - - Program

ProcessMeasurement - - Series
ProcessMeasurement "1" *- - "0..1" Context : ContextList

ProcessMeasurement "1" o- - "0..*" SpecialValue: SpecialValues
@enduml

PlantUML version 1.2018.01(Sun Jan 28 19:08:22 CET 2018)
(EPL source distribution)
Java Runtime: Java(TM) SE Runtime Environment
JVM: Java HotSpot(TM) 64-Bit Server VM
Java Version: 10.0.1+10
Operating System: Windows 10
OS Version: 10.0
Default Encoding: Cp1252
Language: en
Country: US
--></g></svg>