<?xml version="1.0" encoding="UTF-8" standalone="no"?>
<svg
   xmlns:dc="http://purl.org/dc/elements/1.1/"
   xmlns:cc="http://creativecommons.org/ns#"
   xmlns:rdf="http://www.w3.org/1999/02/22-rdf-syntax-ns#"
   xmlns:svg="http://www.w3.org/2000/svg"
   xmlns="http://www.w3.org/2000/svg"
   version="1.1"
   id="svg2"
   viewBox="0 0 194.01165 45.434978"
   height="12.822761mm"
   width="54.754398mm">
  <defs
     id="defs4" />
  <metadata
     id="metadata7">
    <rdf:RDF>
      <cc:Work
         rdf:about="">
        <dc:format>image/svg+xml</dc:format>
        <dc:type
           rdf:resource="http://purl.org/dc/dcmitype/StillImage" />
        <dc:title></dc:title>
      </cc:Work>
    </rdf:RDF>
  </metadata>
  <g
     transform="translate(-138.42962,-840.07049)"
     id="layer1">
    <path
       d="m 324.58752,859.69527 c -1.73375,-5.73875 -4.3625,-7.7025 -9.0375,-6.83875 -4.43875,0.82125 -6.5625,3.90625 -6.52875,9.71625 l 15.56625,-2.8775 z m 7.85375,11.035 c -1.895,5.30875 -5.56375,8.3125 -11.305,9.37375 -8.9375,1.65125 -16.285,-3.6625 -18.035,-13.1325 -1.7725,-9.58875 2.98,-17.3225 11.5625,-18.90875 8.52375,-1.575 14.69625,3.34375 16.50125,13.11 l 0.35,1.89375 -21.9,4.0475 c 1.1,3.95875 2.3225,5.9375 4.5225,7.24375 1.71,0.97 3.7125,1.21125 6.08,0.77375 3.61125,-0.66625 5.4525,-2.2925 6.83,-6.0975 l 5.39375,1.69625 z"
       style="fill:#50237f;fill-opacity:1;fill-rule:nonzero;stroke:none"
       id="path4366-7" />
    <path
       id="path4376-3"
       style="fill:#50237f;fill-opacity:1;fill-rule:nonzero;stroke:none"
       d="m 264.3719,848.5179 7.00125,0 0,31.285 -7.00125,0 0,-31.285 z" />
    <path
       id="path5020-3"
       style="fill:#50237f;fill-opacity:1;fill-rule:nonzero;stroke:none"
       d="m 256.6774,861.0319 c 0,-8.445 -4.46375,-12.995 -12.7775,-12.995 -8.35625,0 -12.86375,4.50625 -12.86375,12.82 l 0,18.94625 7.00125,0 0,-18.59625 c 0,-5.25125 1.75,-7.4825 5.90625,-7.4825 4.245,0 6.0825,2.3625 6.0825,7.745 l 0,18.33375 6.65125,0 0,-18.77125 z" />
    <path
       id="path5028-2"
       d="m 278.76665,848.51736 0,5.5586 4.68164,0 c 5.3375,0 8.22656,3.5425 8.22656,10.0625 0,6.56375 -2.84289,10.10742 -8.18164,10.10742 l -4.72656,0 0,5.55664 4.37695,0 c 10.0625,0 15.83789,-5.73195 15.83789,-15.75195 0,-9.845 -5.73164,-15.53321 -15.61914,-15.53321 l -4.5957,0 z"
       style="fill:#50237f;fill-opacity:1;fill-rule:nonzero;stroke:none" />
    <path
       d="m 224.1269,867.28677 c 0,8.445 -4.46375,12.995 -12.7775,12.995 -8.35625,0 -12.86375,-4.50625 -12.86375,-12.82 l 0,-18.94625 7.00125,0 0,18.59625 c 0,5.25125 1.75,7.4825 5.90625,7.4825 4.245,0 6.0825,-2.3625 6.0825,-7.745 l 0,-18.33375 6.65125,0 0,18.77125 z"
       style="fill:#78be20;fill-opacity:1;fill-rule:nonzero;stroke:none"
       id="path5711-5" />
    <path
       d="m 161.03402,844.7619 c 5.97125,-5.97125 12.34625,-6.0325 18.22375,-0.155 5.91,5.91 5.91,12.28375 0.0312,18.1625 l -13.3975,13.39625 -4.95,-4.95 13.15,-13.15 c 3.7125,-3.7125 4.0525,-6.5275 1.11375,-9.4675 -3.00125,-3.00125 -5.97125,-2.62875 -9.7775,1.17625 l -12.96375,12.96375 -4.7025,-4.70375 13.2725,-13.2725 z"
       style="fill:#50237f;fill-opacity:1;fill-rule:nonzero;stroke:none"
       id="path5725-3" />
    <path
       d="m 156.22327,849.57265 4.70375,4.70375 -12.96375,12.9625 c -3.80625,3.80625 -4.1775,6.77625 -1.17625,9.7775 2.93875,2.93875 5.755,2.59875 9.4675,-1.11375 l 13.14875,-13.15 4.95125,4.95125 -13.3975,13.39625 c -5.87875,5.87875 -12.2525,5.87875 -18.16125,-0.03 -5.8775,-5.87875 -5.81625,-12.25375 0.155,-18.225 l 13.2725,-13.2725 z"
       style="fill:#3f136c;fill-opacity:1;fill-rule:nonzero;stroke:none"
       id="path5729-0" />
    <path
       d="m 143.00915,862.73065 c -5.97125,-5.97125 -6.0325,-12.34625 -0.155,-18.22375 5.91,-5.91 12.28375,-5.91 18.1625,-0.0312 l 13.39625,13.3975 -4.95,4.95 -13.15,-13.15 c -3.7125,-3.7125 -6.5275,-4.0525 -9.4675,-1.11375 -3.00125,3.00125 -2.62875,5.97125 1.17625,9.7775 l 12.96375,12.96375 -4.70375,4.7025 -13.2725,-13.2725 z"
       style="fill:#50237f;fill-opacity:1;fill-rule:nonzero;stroke:none"
       id="path5733-1" />
    <path
       d="m 147.73352,867.4549 4.70375,-4.70375 12.9625,12.96375 c 3.80625,3.80625 6.77625,4.1775 9.7775,1.17625 2.93875,-2.93875 2.59875,-5.755 -1.11375,-9.4675 l -13.15,-13.14875 4.95125,-4.95125 13.39625,13.3975 c 5.87875,5.87875 5.87875,12.2525 -0.03,18.16125 -5.87875,5.8775 -12.25375,5.81625 -18.225,-0.155 l -13.2725,-13.2725 z"
       style="fill:#78be20;fill-opacity:1;fill-rule:nonzero;stroke:none"
       id="path5737-8" />
  </g>
</svg>
