<?xml version="1.0" encoding="UTF-8" standalone="no"?><svg xmlns="http://www.w3.org/2000/svg" xmlns:xlink="http://www.w3.org/1999/xlink" contentScriptType="application/ecmascript" contentStyleType="text/css" height="349px" preserveAspectRatio="none" style="width:580px;height:349px;" version="1.1" viewBox="0 0 580 349" width="580px" zoomAndPan="magnify"><defs><filter height="300%" id="f1jix2jleldpzu" width="300%" x="-1" y="-1"><feGaussianBlur result="blurOut" stdDeviation="2.0"/><feColorMatrix in="blurOut" result="blurOut2" type="matrix" values="0 0 0 0 0 0 0 0 0 0 0 0 0 0 0 0 0 0 .4 0"/><feOffset dx="4.0" dy="4.0" in="blurOut2" result="blurOut3"/><feBlend in="SourceGraphic" in2="blurOut3" mode="normal"/></filter></defs><g><!--cluster PPMP Producer / Machine--><polygon fill="#FFFFFF" filter="url(#f1jix2jleldpzu)" points="22,34,32,24,558,24,558,109,548,119,22,119,22,34" style="stroke: #000000; stroke-width: 1.5;"/><line style="stroke: #000000; stroke-width: 1.5;" x1="548" x2="557" y1="34" y2="25"/><line style="stroke: #000000; stroke-width: 1.5;" x1="22" x2="548" y1="34" y2="34"/><line style="stroke: #000000; stroke-width: 1.5;" x1="548" x2="548" y1="34" y2="119"/><text fill="#50237F" font-family="sans-serif" font-size="14" font-weight="bold" lengthAdjust="spacingAndGlyphs" textLength="181" x="195.5" y="51.5332">PPMP Producer / Machine</text><!--cluster PPMP Consumer--><polygon fill="#FFFFFF" filter="url(#f1jix2jleldpzu)" points="25,252,35,242,460,242,460,327,450,337,25,337,25,252" style="stroke: #000000; stroke-width: 1.5;"/><line style="stroke: #000000; stroke-width: 1.5;" x1="450" x2="459" y1="252" y2="243"/><line style="stroke: #000000; stroke-width: 1.5;" x1="25" x2="450" y1="252" y2="252"/><line style="stroke: #000000; stroke-width: 1.5;" x1="450" x2="450" y1="252" y2="337"/><text fill="#50237F" font-family="sans-serif" font-size="14" font-weight="bold" lengthAdjust="spacingAndGlyphs" textLength="116" x="180.5" y="269.5332">PPMP Consumer</text><!--entity Information / Alarms--><rect fill="#F5F5F5" filter="url(#f1jix2jleldpzu)" height="37.6094" style="stroke: #000000; stroke-width: 1.5;" width="145" x="38.5" y="65"/><rect fill="#F5F5F5" height="5" style="stroke: #000000; stroke-width: 1.5;" width="10" x="33.5" y="70"/><rect fill="#F5F5F5" height="5" style="stroke: #000000; stroke-width: 1.5;" width="10" x="33.5" y="92.6094"/><text fill="#50237F" font-family="sans-serif" font-size="14" lengthAdjust="spacingAndGlyphs" textLength="125" x="48.5" y="89.5332">Information / Alarms</text><!--entity Sensor values--><rect fill="#F5F5F5" filter="url(#f1jix2jleldpzu)" height="37.6094" style="stroke: #000000; stroke-width: 1.5;" width="110" x="219" y="65"/><rect fill="#F5F5F5" height="5" style="stroke: #000000; stroke-width: 1.5;" width="10" x="214" y="70"/><rect fill="#F5F5F5" height="5" style="stroke: #000000; stroke-width: 1.5;" width="10" x="214" y="92.6094"/><text fill="#50237F" font-family="sans-serif" font-size="14" lengthAdjust="spacingAndGlyphs" textLength="90" x="229" y="89.5332">Sensor values</text><!--entity End-to-end process data--><rect fill="#F5F5F5" filter="url(#f1jix2jleldpzu)" height="37.6094" style="stroke: #000000; stroke-width: 1.5;" width="177" x="364.5" y="65"/><rect fill="#F5F5F5" height="5" style="stroke: #000000; stroke-width: 1.5;" width="10" x="359.5" y="70"/><rect fill="#F5F5F5" height="5" style="stroke: #000000; stroke-width: 1.5;" width="10" x="359.5" y="92.6094"/><text fill="#50237F" font-family="sans-serif" font-size="14" lengthAdjust="spacingAndGlyphs" textLength="157" x="374.5" y="89.5332">End-to-end process data</text><!--entity Machine Messages--><rect fill="#F5F5F5" filter="url(#f1jix2jleldpzu)" height="37.6094" style="stroke: #000000; stroke-width: 1.5;" width="141" x="41.5" y="283"/><rect fill="#F5F5F5" height="5" style="stroke: #000000; stroke-width: 1.5;" width="10" x="36.5" y="288"/><rect fill="#F5F5F5" height="5" style="stroke: #000000; stroke-width: 1.5;" width="10" x="36.5" y="310.6094"/><text fill="#50237F" font-family="sans-serif" font-size="14" lengthAdjust="spacingAndGlyphs" textLength="121" x="51.5" y="307.5332">Machine Messages</text><!--entity Measurements--><rect fill="#F5F5F5" filter="url(#f1jix2jleldpzu)" height="37.6094" style="stroke: #000000; stroke-width: 1.5;" width="113" x="217.5" y="283"/><rect fill="#F5F5F5" height="5" style="stroke: #000000; stroke-width: 1.5;" width="10" x="212.5" y="288"/><rect fill="#F5F5F5" height="5" style="stroke: #000000; stroke-width: 1.5;" width="10" x="212.5" y="310.6094"/><text fill="#50237F" font-family="sans-serif" font-size="14" lengthAdjust="spacingAndGlyphs" textLength="93" x="227.5" y="307.5332">Measurements</text><!--entity Processs--><rect fill="#F5F5F5" filter="url(#f1jix2jleldpzu)" height="37.6094" style="stroke: #000000; stroke-width: 1.5;" width="78" x="366" y="283"/><rect fill="#F5F5F5" height="5" style="stroke: #000000; stroke-width: 1.5;" width="10" x="361" y="288"/><rect fill="#F5F5F5" height="5" style="stroke: #000000; stroke-width: 1.5;" width="10" x="361" y="310.6094"/><text fill="#50237F" font-family="sans-serif" font-size="14" lengthAdjust="spacingAndGlyphs" textLength="58" x="376" y="307.5332">Processs</text><!--entity p--><ellipse cx="429" cy="193" fill="#78BE20" filter="url(#f1jix2jleldpzu)" rx="8" ry="8" style="stroke: #000000; stroke-width: 2.0;"/><text fill="#50237F" font-family="sans-serif" font-size="14" lengthAdjust="spacingAndGlyphs" textLength="54" x="402" y="224.5332">/process</text><!--entity m--><ellipse cx="111" cy="193" fill="#78BE20" filter="url(#f1jix2jleldpzu)" rx="8" ry="8" style="stroke: #000000; stroke-width: 2.0;"/><text fill="#50237F" font-family="sans-serif" font-size="14" lengthAdjust="spacingAndGlyphs" textLength="61" x="80.5" y="224.5332">/message</text><!--entity s--><ellipse cx="274" cy="193" fill="#78BE20" filter="url(#f1jix2jleldpzu)" rx="8" ry="8" style="stroke: #000000; stroke-width: 2.0;"/><text fill="#50237F" font-family="sans-serif" font-size="14" lengthAdjust="spacingAndGlyphs" textLength="90" x="229" y="224.5332">/measurement</text><!--link Information / Alarms to m--><path d="M111,103.151 C111,124.441 111,159.248 111,178.364 " fill="none" id="Information / Alarms-m" style="stroke: #000000; stroke-width: 1.0;"/><polygon fill="#000000" points="111,183.761,115,174.761,111,178.761,107,174.761,111,183.761" style="stroke: #000000; stroke-width: 1.0;"/><!--link m to Machine Messages--><path d="M111.075,202.042 C111.223,217.857 111.556,253.5389 111.78,277.4483 " fill="none" id="m-Machine Messages" style="stroke: #000000; stroke-width: 1.0;"/><polygon fill="#000000" points="111.829,282.6574,115.7445,273.6203,111.7821,277.6576,107.7448,273.6953,111.829,282.6574" style="stroke: #000000; stroke-width: 1.0;"/><!--link Sensor values to s--><path d="M274,103.151 C274,124.441 274,159.248 274,178.364 " fill="none" id="Sensor values-s" style="stroke: #000000; stroke-width: 1.0;"/><polygon fill="#000000" points="274,183.761,278,174.761,274,178.761,270,174.761,274,183.761" style="stroke: #000000; stroke-width: 1.0;"/><!--link s to Measurements--><path d="M274,202.042 C274,217.857 274,253.5389 274,277.4483 " fill="none" id="s-Measurements" style="stroke: #000000; stroke-width: 1.0;"/><polygon fill="#000000" points="274,282.6574,278,273.6574,274,277.6574,270,273.6574,274,282.6574" style="stroke: #000000; stroke-width: 1.0;"/><!--link End-to-end process data to p--><path d="M448.929,103.151 C444.112,124.624 436.211,159.849 431.948,178.855 " fill="none" id="End-to-end process data-p" style="stroke: #000000; stroke-width: 1.0;"/><polygon fill="#000000" points="430.848,183.761,436.7208,175.8547,431.9423,178.8822,428.9148,174.1037,430.848,183.761" style="stroke: #000000; stroke-width: 1.0;"/><!--link p to Processs--><path d="M427.196,202.042 C423.634,217.923 415.578,253.8391 410.215,277.749 " fill="none" id="p-Processs" style="stroke: #000000; stroke-width: 1.0;"/><polygon fill="#000000" points="409.114,282.6574,414.9868,274.7511,410.2083,277.7786,407.1808,273.0001,409.114,282.6574" style="stroke: #000000; stroke-width: 1.0;"/><!--
@startuml
skinparam interface {
  BackgroundColor #78be20
  FontColor #50237f
  BorderColor black
}

skinparam node {
  FontColor #50237f
}

skinparam component {
  BorderColor black
  FontColor #50237f
  BackgroundColor #f5f5f5
  ArrowColor black
}

() "/process" as p
() "/message" as m
() "/measurement" as s

node "PPMP Producer / Machine" {
  [Information / Alarms]
  [Sensor values]
  [End-to-end process data]
} 
node "PPMP Consumer" {
  [Machine Messages]
  [Measurements]
  [Processs]
} 

[Information / Alarms] - ->  m
m - -> [Machine Messages]
[Sensor values] - -> s
s - -> [Measurements]
[End-to-end process data] - -> p
p - -> [Processs]
@enduml

PlantUML version 1.2018.00(Thu Jan 04 20:42:56 CET 2018)
(MIT source distribution)
Java Runtime: Java(TM) SE Runtime Environment
JVM: Java HotSpot(TM) 64-Bit Server VM
Java Version: 1.8.0_144-b01
Operating System: Windows 10
OS Version: 10.0
Default Encoding: Cp1252
Language: en
Country: US
--></g></svg>