<?xml version="1.0" encoding="UTF-8" standalone="no"?><svg xmlns="http://www.w3.org/2000/svg" xmlns:xlink="http://www.w3.org/1999/xlink" contentScriptType="application/ecmascript" contentStyleType="text/css" height="512px" preserveAspectRatio="none" style="width:606px;height:512px;" version="1.1" viewBox="0 0 606 512" width="606px" zoomAndPan="magnify"><defs><filter height="300%" id="f1wn8ikzvxolav" width="300%" x="-1" y="-1"><feGaussianBlur result="blurOut" stdDeviation="2.0"/><feColorMatrix in="blurOut" result="blurOut2" type="matrix" values="0 0 0 0 0 0 0 0 0 0 0 0 0 0 0 0 0 0 .4 0"/><feOffset dx="4.0" dy="4.0" in="blurOut2" result="blurOut3"/><feBlend in="SourceGraphic" in2="blurOut3" mode="normal"/></filter></defs><g><!--class MeasurementPayload--><rect fill="#F5F5F5" filter="url(#f1wn8ikzvxolav)" height="103.3438" id="MeasurementPayload" style="stroke: #000000; stroke-width: 1.5;" width="163" x="205.5" y="8"/><ellipse cx="225.45" cy="24" fill="#FFFFFF" rx="11" ry="11" style="stroke: #000000; stroke-width: 1.0;"/><path d="M228.2156,19.875 Q228.3719,19.6563 228.5594,19.5469 Q228.7469,19.4375 228.9656,19.4375 Q229.3406,19.4375 229.575,19.6953 Q229.8094,19.9531 229.8094,20.5625 L229.8094,22.0156 Q229.8094,22.625 229.575,22.8906 Q229.3406,23.1563 228.9656,23.1563 Q228.6219,23.1563 228.4188,22.9531 Q228.2156,22.7656 228.1063,22.25 Q228.0594,21.8906 227.8719,21.7031 Q227.5438,21.3281 226.9344,21.1094 Q226.325,20.8906 225.7,20.8906 Q224.9344,20.8906 224.3016,21.2188 Q223.6688,21.5469 223.1766,22.2969 Q222.6844,23.0469 222.6844,24.0781 L222.6844,25.1719 Q222.6844,26.4063 223.575,27.2266 Q224.4656,28.0469 226.0594,28.0469 Q226.9969,28.0469 227.6531,27.7969 Q228.0438,27.6406 228.4656,27.2031 Q228.7313,26.9375 228.8797,26.8594 Q229.0281,26.7813 229.2313,26.7813 Q229.5594,26.7813 229.8172,27.0391 Q230.075,27.2969 230.075,27.6406 Q230.075,27.9844 229.7313,28.3906 Q229.2313,28.9688 228.4344,29.2969 Q227.3563,29.75 226.0594,29.75 Q224.5438,29.75 223.3406,29.125 Q222.3563,28.625 221.6688,27.5547 Q220.9813,26.4844 220.9813,25.2031 L220.9813,24.0469 Q220.9813,22.7188 221.5984,21.5703 Q222.2156,20.4219 223.3094,19.8047 Q224.4031,19.1875 225.6375,19.1875 Q226.3719,19.1875 227.0203,19.3516 Q227.6688,19.5156 228.2156,19.875 Z "/><text fill="#50237F" font-family="sans-serif" font-size="12" lengthAdjust="spacingAndGlyphs" textLength="120" x="240.55" y="28.9102">MeasurementPayload</text><line style="stroke: #000000; stroke-width: 1.5;" x1="206.5" x2="367.5" y1="40" y2="40"/><text fill="#000000" font-family="sans-serif" font-size="11" lengthAdjust="spacingAndGlyphs" textLength="101" x="211.5" y="55.4189">content-spec : String</text><text fill="#000000" font-family="sans-serif" font-size="11" lengthAdjust="spacingAndGlyphs" textLength="74" x="211.5" y="69.2549">device : Device</text><text fill="#000000" font-family="sans-serif" font-size="11" lengthAdjust="spacingAndGlyphs" textLength="151" x="211.5" y="83.0908">measurements : Measurements</text><text fill="#000000" font-family="sans-serif" font-size="11" lengthAdjust="spacingAndGlyphs" textLength="71" x="211.5" y="96.9268">part[0..1] : Part</text><line style="stroke: #000000; stroke-width: 1.5;" x1="206.5" x2="367.5" y1="103.3438" y2="103.3438"/><!--class Device--><rect fill="#F5F5F5" filter="url(#f1wn8ikzvxolav)" height="89.5078" id="Device" style="stroke: #000000; stroke-width: 1.5;" width="164" x="6" y="202.5"/><ellipse cx="65.25" cy="218.5" fill="#FFFFFF" rx="11" ry="11" style="stroke: #000000; stroke-width: 1.0;"/><path d="M68.0156,214.375 Q68.1719,214.1563 68.3594,214.0469 Q68.5469,213.9375 68.7656,213.9375 Q69.1406,213.9375 69.375,214.1953 Q69.6094,214.4531 69.6094,215.0625 L69.6094,216.5156 Q69.6094,217.125 69.375,217.3906 Q69.1406,217.6563 68.7656,217.6563 Q68.4219,217.6563 68.2188,217.4531 Q68.0156,217.2656 67.9063,216.75 Q67.8594,216.3906 67.6719,216.2031 Q67.3438,215.8281 66.7344,215.6094 Q66.125,215.3906 65.5,215.3906 Q64.7344,215.3906 64.1016,215.7188 Q63.4688,216.0469 62.9766,216.7969 Q62.4844,217.5469 62.4844,218.5781 L62.4844,219.6719 Q62.4844,220.9063 63.375,221.7266 Q64.2656,222.5469 65.8594,222.5469 Q66.7969,222.5469 67.4531,222.2969 Q67.8438,222.1406 68.2656,221.7031 Q68.5313,221.4375 68.6797,221.3594 Q68.8281,221.2813 69.0313,221.2813 Q69.3594,221.2813 69.6172,221.5391 Q69.875,221.7969 69.875,222.1406 Q69.875,222.4844 69.5313,222.8906 Q69.0313,223.4688 68.2344,223.7969 Q67.1563,224.25 65.8594,224.25 Q64.3438,224.25 63.1406,223.625 Q62.1563,223.125 61.4688,222.0547 Q60.7813,220.9844 60.7813,219.7031 L60.7813,218.5469 Q60.7813,217.2188 61.3984,216.0703 Q62.0156,214.9219 63.1094,214.3047 Q64.2031,213.6875 65.4375,213.6875 Q66.1719,213.6875 66.8203,213.8516 Q67.4688,214.0156 68.0156,214.375 Z "/><text fill="#50237F" font-family="sans-serif" font-size="12" lengthAdjust="spacingAndGlyphs" textLength="37" x="85.75" y="223.4102">Device</text><line style="stroke: #000000; stroke-width: 1.5;" x1="7" x2="169" y1="234.5" y2="234.5"/><text fill="#000000" font-family="sans-serif" font-size="11" lengthAdjust="spacingAndGlyphs" textLength="78" x="12" y="249.9189">deviceID : String</text><text fill="#000000" font-family="sans-serif" font-size="11" lengthAdjust="spacingAndGlyphs" textLength="152" x="12" y="263.7549">metaData[0..1] : &lt;String, String&gt;</text><text fill="#000000" font-family="sans-serif" font-size="11" lengthAdjust="spacingAndGlyphs" textLength="145" x="12" y="277.5908">operationalStatus[0..1] : String</text><line style="stroke: #000000; stroke-width: 1.5;" x1="7" x2="169" y1="284.0078" y2="284.0078"/><!--class Part--><rect fill="#F5F5F5" filter="url(#f1wn8ikzvxolav)" height="117.1797" id="Part" style="stroke: #000000; stroke-width: 1.5;" width="164" x="205" y="189"/><ellipse cx="271.75" cy="205" fill="#FFFFFF" rx="11" ry="11" style="stroke: #000000; stroke-width: 1.0;"/><path d="M274.5156,200.875 Q274.6719,200.6563 274.8594,200.5469 Q275.0469,200.4375 275.2656,200.4375 Q275.6406,200.4375 275.875,200.6953 Q276.1094,200.9531 276.1094,201.5625 L276.1094,203.0156 Q276.1094,203.625 275.875,203.8906 Q275.6406,204.1563 275.2656,204.1563 Q274.9219,204.1563 274.7188,203.9531 Q274.5156,203.7656 274.4063,203.25 Q274.3594,202.8906 274.1719,202.7031 Q273.8438,202.3281 273.2344,202.1094 Q272.625,201.8906 272,201.8906 Q271.2344,201.8906 270.6016,202.2188 Q269.9688,202.5469 269.4766,203.2969 Q268.9844,204.0469 268.9844,205.0781 L268.9844,206.1719 Q268.9844,207.4063 269.875,208.2266 Q270.7656,209.0469 272.3594,209.0469 Q273.2969,209.0469 273.9531,208.7969 Q274.3438,208.6406 274.7656,208.2031 Q275.0313,207.9375 275.1797,207.8594 Q275.3281,207.7813 275.5313,207.7813 Q275.8594,207.7813 276.1172,208.0391 Q276.375,208.2969 276.375,208.6406 Q276.375,208.9844 276.0313,209.3906 Q275.5313,209.9688 274.7344,210.2969 Q273.6563,210.75 272.3594,210.75 Q270.8438,210.75 269.6406,210.125 Q268.6563,209.625 267.9688,208.5547 Q267.2813,207.4844 267.2813,206.2031 L267.2813,205.0469 Q267.2813,203.7188 267.8984,202.5703 Q268.5156,201.4219 269.6094,200.8047 Q270.7031,200.1875 271.9375,200.1875 Q272.6719,200.1875 273.3203,200.3516 Q273.9688,200.5156 274.5156,200.875 Z "/><text fill="#50237F" font-family="sans-serif" font-size="12" lengthAdjust="spacingAndGlyphs" textLength="22" x="292.25" y="209.9102">Part</text><line style="stroke: #000000; stroke-width: 1.5;" x1="206" x2="368" y1="221" y2="221"/><text fill="#000000" font-family="sans-serif" font-size="11" lengthAdjust="spacingAndGlyphs" textLength="85" x="211" y="236.4189">code[0..1] : String</text><text fill="#000000" font-family="sans-serif" font-size="11" lengthAdjust="spacingAndGlyphs" textLength="152" x="211" y="250.2549">metaData[0..1] : &lt;String, String&gt;</text><text fill="#000000" font-family="sans-serif" font-size="11" lengthAdjust="spacingAndGlyphs" textLength="89" x="211" y="264.0908">partID[0..1] : String</text><text fill="#000000" font-family="sans-serif" font-size="11" lengthAdjust="spacingAndGlyphs" textLength="113" x="211" y="277.9268">partTypeID[0..1] : String</text><text fill="#000000" font-family="sans-serif" font-size="11" lengthAdjust="spacingAndGlyphs" textLength="90" x="211" y="291.7627">result[0..1] : Result</text><line style="stroke: #000000; stroke-width: 1.5;" x1="206" x2="368" y1="298.1797" y2="298.1797"/><!--class Measurement--><rect fill="#F5F5F5" filter="url(#f1wn8ikzvxolav)" height="117.1797" id="Measurement" style="stroke: #000000; stroke-width: 1.5;" width="112" x="404" y="189"/><ellipse cx="420.8" cy="205" fill="#FFFFFF" rx="11" ry="11" style="stroke: #000000; stroke-width: 1.0;"/><path d="M423.5656,200.875 Q423.7219,200.6563 423.9094,200.5469 Q424.0969,200.4375 424.3156,200.4375 Q424.6906,200.4375 424.925,200.6953 Q425.1594,200.9531 425.1594,201.5625 L425.1594,203.0156 Q425.1594,203.625 424.925,203.8906 Q424.6906,204.1563 424.3156,204.1563 Q423.9719,204.1563 423.7688,203.9531 Q423.5656,203.7656 423.4563,203.25 Q423.4094,202.8906 423.2219,202.7031 Q422.8938,202.3281 422.2844,202.1094 Q421.675,201.8906 421.05,201.8906 Q420.2844,201.8906 419.6516,202.2188 Q419.0188,202.5469 418.5266,203.2969 Q418.0344,204.0469 418.0344,205.0781 L418.0344,206.1719 Q418.0344,207.4063 418.925,208.2266 Q419.8156,209.0469 421.4094,209.0469 Q422.3469,209.0469 423.0031,208.7969 Q423.3938,208.6406 423.8156,208.2031 Q424.0813,207.9375 424.2297,207.8594 Q424.3781,207.7813 424.5813,207.7813 Q424.9094,207.7813 425.1672,208.0391 Q425.425,208.2969 425.425,208.6406 Q425.425,208.9844 425.0813,209.3906 Q424.5813,209.9688 423.7844,210.2969 Q422.7063,210.75 421.4094,210.75 Q419.8938,210.75 418.6906,210.125 Q417.7063,209.625 417.0188,208.5547 Q416.3313,207.4844 416.3313,206.2031 L416.3313,205.0469 Q416.3313,203.7188 416.9484,202.5703 Q417.5656,201.4219 418.6594,200.8047 Q419.7531,200.1875 420.9875,200.1875 Q421.7219,200.1875 422.3703,200.3516 Q423.0188,200.5156 423.5656,200.875 Z "/><text fill="#50237F" font-family="sans-serif" font-size="12" lengthAdjust="spacingAndGlyphs" textLength="76" x="435.2" y="209.9102">Measurement</text><line style="stroke: #000000; stroke-width: 1.5;" x1="405" x2="515" y1="221" y2="221"/><text fill="#000000" font-family="sans-serif" font-size="11" lengthAdjust="spacingAndGlyphs" textLength="85" x="410" y="236.4189">code[0..1] : String</text><text fill="#000000" font-family="sans-serif" font-size="11" lengthAdjust="spacingAndGlyphs" textLength="100" x="410" y="250.2549">limits[0..1] : LimitsList</text><text fill="#000000" font-family="sans-serif" font-size="11" lengthAdjust="spacingAndGlyphs" textLength="90" x="410" y="264.0908">result[0..1] : Result</text><text fill="#000000" font-family="sans-serif" font-size="11" lengthAdjust="spacingAndGlyphs" textLength="70" x="410" y="277.9268">series : Series</text><text fill="#000000" font-family="sans-serif" font-size="11" lengthAdjust="spacingAndGlyphs" textLength="40" x="410" y="291.7627">ts : Date</text><line style="stroke: #000000; stroke-width: 1.5;" x1="405" x2="515" y1="298.1797" y2="298.1797"/><!--class Limits--><rect fill="#F5F5F5" filter="url(#f1wn8ikzvxolav)" height="117.1797" id="Limits" style="stroke: #000000; stroke-width: 1.5;" width="123" x="320.5" y="384"/><ellipse cx="361.15" cy="400" fill="#FFFFFF" rx="11" ry="11" style="stroke: #000000; stroke-width: 1.0;"/><path d="M363.9156,395.875 Q364.0719,395.6563 364.2594,395.5469 Q364.4469,395.4375 364.6656,395.4375 Q365.0406,395.4375 365.275,395.6953 Q365.5094,395.9531 365.5094,396.5625 L365.5094,398.0156 Q365.5094,398.625 365.275,398.8906 Q365.0406,399.1563 364.6656,399.1563 Q364.3219,399.1563 364.1188,398.9531 Q363.9156,398.7656 363.8063,398.25 Q363.7594,397.8906 363.5719,397.7031 Q363.2438,397.3281 362.6344,397.1094 Q362.025,396.8906 361.4,396.8906 Q360.6344,396.8906 360.0016,397.2188 Q359.3688,397.5469 358.8766,398.2969 Q358.3844,399.0469 358.3844,400.0781 L358.3844,401.1719 Q358.3844,402.4063 359.275,403.2266 Q360.1656,404.0469 361.7594,404.0469 Q362.6969,404.0469 363.3531,403.7969 Q363.7438,403.6406 364.1656,403.2031 Q364.4313,402.9375 364.5797,402.8594 Q364.7281,402.7813 364.9313,402.7813 Q365.2594,402.7813 365.5172,403.0391 Q365.775,403.2969 365.775,403.6406 Q365.775,403.9844 365.4313,404.3906 Q364.9313,404.9688 364.1344,405.2969 Q363.0563,405.75 361.7594,405.75 Q360.2438,405.75 359.0406,405.125 Q358.0563,404.625 357.3688,403.5547 Q356.6813,402.4844 356.6813,401.2031 L356.6813,400.0469 Q356.6813,398.7188 357.2984,397.5703 Q357.9156,396.4219 359.0094,395.8047 Q360.1031,395.1875 361.3375,395.1875 Q362.0719,395.1875 362.7203,395.3516 Q363.3688,395.5156 363.9156,395.875 Z "/><text fill="#50237F" font-family="sans-serif" font-size="12" lengthAdjust="spacingAndGlyphs" textLength="34" x="380.85" y="404.9102">Limits</text><line style="stroke: #000000; stroke-width: 1.5;" x1="321.5" x2="442.5" y1="416" y2="416"/><text fill="#000000" font-family="sans-serif" font-size="11" lengthAdjust="spacingAndGlyphs" textLength="108" x="326.5" y="431.4189">lowerError[0..1] : Float</text><text fill="#000000" font-family="sans-serif" font-size="11" lengthAdjust="spacingAndGlyphs" textLength="110" x="326.5" y="445.2549">lowerWarn[0..1] : Float</text><text fill="#000000" font-family="sans-serif" font-size="11" lengthAdjust="spacingAndGlyphs" textLength="87" x="326.5" y="459.0908">target[0..1] :  Float</text><text fill="#000000" font-family="sans-serif" font-size="11" lengthAdjust="spacingAndGlyphs" textLength="111" x="326.5" y="472.9268">upperError[0..1] : Float,</text><text fill="#000000" font-family="sans-serif" font-size="11" lengthAdjust="spacingAndGlyphs" textLength="110" x="326.5" y="486.7627">upperWarn[0..1] : Float</text><line style="stroke: #000000; stroke-width: 1.5;" x1="321.5" x2="442.5" y1="493.1797" y2="493.1797"/><!--class Series--><rect fill="#F5F5F5" filter="url(#f1wn8ikzvxolav)" height="75.6719" id="Series" style="stroke: #000000; stroke-width: 1.5;" width="116" x="479" y="404.5"/><ellipse cx="515.6" cy="420.5" fill="#FFFFFF" rx="11" ry="11" style="stroke: #000000; stroke-width: 1.0;"/><path d="M518.3656,416.375 Q518.5219,416.1563 518.7094,416.0469 Q518.8969,415.9375 519.1156,415.9375 Q519.4906,415.9375 519.725,416.1953 Q519.9594,416.4531 519.9594,417.0625 L519.9594,418.5156 Q519.9594,419.125 519.725,419.3906 Q519.4906,419.6563 519.1156,419.6563 Q518.7719,419.6563 518.5688,419.4531 Q518.3656,419.2656 518.2563,418.75 Q518.2094,418.3906 518.0219,418.2031 Q517.6938,417.8281 517.0844,417.6094 Q516.475,417.3906 515.85,417.3906 Q515.0844,417.3906 514.4516,417.7188 Q513.8188,418.0469 513.3266,418.7969 Q512.8344,419.5469 512.8344,420.5781 L512.8344,421.6719 Q512.8344,422.9063 513.725,423.7266 Q514.6156,424.5469 516.2094,424.5469 Q517.1469,424.5469 517.8031,424.2969 Q518.1938,424.1406 518.6156,423.7031 Q518.8813,423.4375 519.0297,423.3594 Q519.1781,423.2813 519.3813,423.2813 Q519.7094,423.2813 519.9672,423.5391 Q520.225,423.7969 520.225,424.1406 Q520.225,424.4844 519.8813,424.8906 Q519.3813,425.4688 518.5844,425.7969 Q517.5063,426.25 516.2094,426.25 Q514.6938,426.25 513.4906,425.625 Q512.5063,425.125 511.8188,424.0547 Q511.1313,422.9844 511.1313,421.7031 L511.1313,420.5469 Q511.1313,419.2188 511.7484,418.0703 Q512.3656,416.9219 513.4594,416.3047 Q514.5531,415.6875 515.7875,415.6875 Q516.5219,415.6875 517.1703,415.8516 Q517.8188,416.0156 518.3656,416.375 Z "/><text fill="#50237F" font-family="sans-serif" font-size="12" lengthAdjust="spacingAndGlyphs" textLength="36" x="534.4" y="425.4102">Series</text><line style="stroke: #000000; stroke-width: 1.5;" x1="480" x2="594" y1="436.5" y2="436.5"/><text fill="#000000" font-family="sans-serif" font-size="11" lengthAdjust="spacingAndGlyphs" textLength="79" x="485" y="451.9189">$_time : [Integer]</text><text fill="#000000" font-family="sans-serif" font-size="11" lengthAdjust="spacingAndGlyphs" textLength="104" x="485" y="465.7549">&lt;values&gt;[1..*] : [Float]</text><line style="stroke: #000000; stroke-width: 1.5;" x1="480" x2="594" y1="472.1719" y2="472.1719"/><!--class Result--><rect fill="#F5F5F5" filter="url(#f1wn8ikzvxolav)" height="89.5078" id="Result" style="stroke: #000000; stroke-width: 1.5;" width="68" x="404" y="14.5"/><ellipse cx="419" cy="30.5" fill="#FFFFFF" rx="11" ry="11" style="stroke: #000000; stroke-width: 1.0;"/><path d="M417.8594,31.2969 L417.8594,33.7969 L422.1875,33.7969 L422.1875,32.875 Q422.1875,32.2656 422.4297,32 Q422.6719,31.7344 423.0469,31.7344 Q423.4219,31.7344 423.6563,32 Q423.8906,32.2656 423.8906,32.875 L423.8906,35.5 L415.8906,35.5 Q415.2656,35.5 415.0078,35.2656 Q414.75,35.0313 414.75,34.6406 Q414.75,34.2656 415.0156,34.0313 Q415.2813,33.7969 415.8906,33.7969 L416.1563,33.7969 L416.1563,27.1406 L415.8906,27.1406 Q415.2656,27.1406 415.0078,26.9063 Q414.75,26.6719 414.75,26.2813 Q414.75,25.9063 415.0078,25.6719 Q415.2656,25.4375 415.8906,25.4375 L423.5156,25.4375 L423.5156,28.0313 Q423.5156,28.6406 423.2891,28.8984 Q423.0625,29.1563 422.6719,29.1563 Q422.2969,29.1563 422.0625,28.8984 Q421.8281,28.6406 421.8281,28.0313 L421.8281,27.1406 L417.8594,27.1406 L417.8594,29.5938 L419.3438,29.5938 Q419.3438,28.9375 419.4688,28.75 Q419.7344,28.3438 420.2031,28.3438 Q420.5781,28.3438 420.8125,28.6016 Q421.0469,28.8594 421.0469,29.4688 L421.0469,31.4375 Q421.0469,31.9844 420.9219,32.1719 Q420.6563,32.5625 420.2031,32.5625 Q419.7344,32.5625 419.4688,32.1563 Q419.3438,31.9688 419.3438,31.2969 L417.8594,31.2969 Z "/><text fill="#50237F" font-family="sans-serif" font-size="12" lengthAdjust="spacingAndGlyphs" textLength="36" x="433" y="35.4102">Result</text><line style="stroke: #000000; stroke-width: 1.5;" x1="405" x2="471" y1="46.5" y2="46.5"/><text fill="#000000" font-family="sans-serif" font-size="11" lengthAdjust="spacingAndGlyphs" textLength="15" x="410" y="61.9189">OK</text><text fill="#000000" font-family="sans-serif" font-size="11" lengthAdjust="spacingAndGlyphs" textLength="22" x="410" y="75.7549">NOK</text><text fill="#000000" font-family="sans-serif" font-size="11" lengthAdjust="spacingAndGlyphs" textLength="53" x="410" y="89.5908">UNKNOWN</text><line style="stroke: #000000; stroke-width: 1.5;" x1="405" x2="471" y1="96.0078" y2="96.0078"/><!--link MeasurementPayload to Device--><path d="M232.885,111.08 C202.385,139.587 164.645,174.862 135.329,202.263 " fill="none" id="MeasurementPayload-Device" style="stroke: #000000; stroke-width: 1.0;"/><!--link MeasurementPayload to Part--><path d="M287,111.325 C287,135.311 287,164.046 287,188.843 " fill="none" id="MeasurementPayload-Part" style="stroke: #000000; stroke-width: 1.0;"/><!--link MeasurementPayload to Measurement--><path d="M343.377,121.113 C363.617,142.875 386.372,167.339 406.373,188.843 " fill="none" id="MeasurementPayload-Measurement" style="stroke: #000000; stroke-width: 1.0;"/><polygon fill="#FFFFFF" points="334.273,111.325,335.4302,118.4426,342.4454,120.112,341.2882,112.9943,334.273,111.325" style="stroke: #000000; stroke-width: 1.0;"/><text fill="#000000" font-family="sans-serif" font-size="13" lengthAdjust="spacingAndGlyphs" textLength="86" x="374" y="155.4951">Measurements</text><text fill="#000000" font-family="sans-serif" font-size="13" lengthAdjust="spacingAndGlyphs" textLength="7" x="333.155" y="132.8596">1</text><text fill="#000000" font-family="sans-serif" font-size="13" lengthAdjust="spacingAndGlyphs" textLength="20" x="378.6185" y="178.2248">1..*</text><!--link Measurement to Series--><path d="M482.998,306.145 C495.672,337.912 511.037,376.424 522.132,404.2332 " fill="none" id="Measurement-Series" style="stroke: #000000; stroke-width: 1.0;"/><!--link Measurement to Limits--><path d="M431.825,318.216 C423.125,339.742 413.645,363.199 405.312,383.819 " fill="none" id="Measurement-Limits" style="stroke: #000000; stroke-width: 1.0;"/><polygon fill="#000000" points="436.703,306.145,430.7461,310.2089,432.2063,317.2706,438.1632,313.2067,436.703,306.145" style="stroke: #000000; stroke-width: 1.0;"/><text fill="#000000" font-family="sans-serif" font-size="13" lengthAdjust="spacingAndGlyphs" textLength="56" x="424" y="350.4951">LimitsList</text><text fill="#000000" font-family="sans-serif" font-size="13" lengthAdjust="spacingAndGlyphs" textLength="7" x="426.4371" y="327.773">1</text><text fill="#000000" font-family="sans-serif" font-size="13" lengthAdjust="spacingAndGlyphs" textLength="22" x="384.8125" y="373.1978">0..1</text><!--
@startuml

skinparam class {
	BorderColor black
	FontColor #50237f
	BackgroundColor #f5f5f5
	ArrowColor black
}

skinparam stereotype {
	CBackgroundColor white
	EBackgroundColor white
}

class MeasurementPayload {
	content-spec : String
	device : Device
	measurements : Measurements
	part[0..1] : Part
}

class Device {
	deviceID : String
	metaData[0..1] : <String, String>
	operationalStatus[0..1] : String
}

class Part {
	code[0..1] : String
	metaData[0..1] : <String, String>
	partID[0..1] : String
	partTypeID[0..1] : String
	result[0..1] : Result
}

class Measurement {
	code[0..1] : String
	limits[0..1] : LimitsList
	result[0..1] : Result
	series : Series
	ts : Date
}

class Limits {
	lowerError[0..1] : Float
	lowerWarn[0..1] : Float
	target[0..1] :  Float
	upperError[0..1] : Float,
	upperWarn[0..1] : Float
}

class Series {
	$_time : [Integer]
	<values>[1..*] : [Float]
}

enum Result {
	OK
	NOK
	UNKNOWN
}

MeasurementPayload - - Device
MeasurementPayload - - Part
MeasurementPayload "1" o- - "1..*" Measurement : Measurements

Measurement - - Series
Measurement "1" *- - "0..1" Limits : LimitsList

@enduml

PlantUML version 1.2018.01(Sun Jan 28 19:08:22 CET 2018)
(EPL source distribution)
Java Runtime: Java(TM) SE Runtime Environment
JVM: Java HotSpot(TM) 64-Bit Server VM
Java Version: 9.0.4+11
Operating System: Windows 10
OS Version: 10.0
Default Encoding: Cp1252
Language: en
Country: US
--></g></svg>